%TF.GenerationSoftware,KiCad,Pcbnew,(5.99.0-11498-g1a301d8eea)*%
%TF.CreationDate,2021-09-07T15:50:55+03:00*%
%TF.ProjectId,f,662e6b69-6361-4645-9f70-636258585858,rev?*%
%TF.SameCoordinates,Original*%
%TF.FileFunction,Legend,Bot*%
%TF.FilePolarity,Positive*%
%FSLAX46Y46*%
G04 Gerber Fmt 4.6, Leading zero omitted, Abs format (unit mm)*
G04 Created by KiCad (PCBNEW (5.99.0-11498-g1a301d8eea)) date 2021-09-07 15:50:55*
%MOMM*%
%LPD*%
G01*
G04 APERTURE LIST*
%ADD10C,0.150000*%
%ADD11C,0.120000*%
G04 APERTURE END LIST*
D10*
%TO.C,BT1*%
X229372714Y-46281571D02*
X229229857Y-46329190D01*
X229182238Y-46376809D01*
X229134619Y-46472047D01*
X229134619Y-46614904D01*
X229182238Y-46710142D01*
X229229857Y-46757761D01*
X229325095Y-46805380D01*
X229706047Y-46805380D01*
X229706047Y-45805380D01*
X229372714Y-45805380D01*
X229277476Y-45853000D01*
X229229857Y-45900619D01*
X229182238Y-45995857D01*
X229182238Y-46091095D01*
X229229857Y-46186333D01*
X229277476Y-46233952D01*
X229372714Y-46281571D01*
X229706047Y-46281571D01*
X228848904Y-45805380D02*
X228277476Y-45805380D01*
X228563190Y-46805380D02*
X228563190Y-45805380D01*
X227420333Y-46805380D02*
X227991761Y-46805380D01*
X227706047Y-46805380D02*
X227706047Y-45805380D01*
X227801285Y-45948238D01*
X227896523Y-46043476D01*
X227991761Y-46091095D01*
X191213428Y-71610142D02*
X190070571Y-71610142D01*
X190642000Y-72181571D02*
X190642000Y-71038714D01*
X232968428Y-71610142D02*
X231825571Y-71610142D01*
X232968428Y-56620142D02*
X231825571Y-56620142D01*
X232397000Y-57191571D02*
X232397000Y-56048714D01*
X191213428Y-56620142D02*
X190070571Y-56620142D01*
X212803428Y-56620142D02*
X211660571Y-56620142D01*
X212232000Y-57191571D02*
X212232000Y-56048714D01*
X212803428Y-71610142D02*
X211660571Y-71610142D01*
D11*
X210962000Y-76758000D02*
X210962000Y-79298000D01*
X179212000Y-79298000D02*
X179212000Y-76758000D01*
X193182000Y-68963000D02*
X193182000Y-70233000D01*
X210962000Y-57783000D02*
X210962000Y-55243000D01*
X191912000Y-79298000D02*
X191912000Y-76758000D01*
X171567000Y-80568000D02*
X171567000Y-47448000D01*
X172837000Y-64262000D02*
X230007000Y-64262000D01*
X172837000Y-79298000D02*
X179212000Y-79298000D01*
X191912000Y-53973000D02*
X191912000Y-55243000D01*
X210962000Y-68963000D02*
X193182000Y-68963000D01*
X191912000Y-51258000D02*
X191912000Y-48718000D01*
X223662000Y-51258000D02*
X223662000Y-48718000D01*
X230007000Y-48718000D02*
X230007000Y-79298000D01*
X230007000Y-79298000D02*
X223662000Y-79298000D01*
X209692000Y-59053000D02*
X209692000Y-57783000D01*
X210962000Y-74043000D02*
X210962000Y-68963000D01*
X191912000Y-48718000D02*
X210962000Y-48718000D01*
X191912000Y-72773000D02*
X193182000Y-72773000D01*
X179212000Y-48718000D02*
X179212000Y-51258000D01*
X171567000Y-47448000D02*
X231277000Y-47448000D01*
X230007000Y-63754000D02*
X172837000Y-63754000D01*
X172837000Y-48718000D02*
X172837000Y-79298000D01*
X172837000Y-48718000D02*
X179212000Y-48718000D01*
X223662000Y-48718000D02*
X230007000Y-48718000D01*
X191912000Y-70233000D02*
X191912000Y-72773000D01*
X191912000Y-59053000D02*
X209692000Y-59053000D01*
X209692000Y-53973000D02*
X191912000Y-53973000D01*
X210962000Y-48718000D02*
X210962000Y-51258000D01*
X193182000Y-74043000D02*
X210962000Y-74043000D01*
X223662000Y-79298000D02*
X223662000Y-76758000D01*
X179212000Y-51258000D02*
X191912000Y-51258000D01*
X193182000Y-72773000D02*
X193182000Y-74043000D01*
X231277000Y-80568000D02*
X171567000Y-80568000D01*
X179212000Y-76758000D02*
X191912000Y-76758000D01*
X209692000Y-55243000D02*
X209692000Y-53973000D01*
X193182000Y-70233000D02*
X191912000Y-70233000D01*
X210962000Y-55243000D02*
X209692000Y-55243000D01*
X231277000Y-47448000D02*
X231277000Y-80568000D01*
X191912000Y-55243000D02*
X191912000Y-59053000D01*
X223662000Y-51258000D02*
X210962000Y-51258000D01*
X223662000Y-76758000D02*
X210962000Y-76758000D01*
X210962000Y-79298000D02*
X191912000Y-79298000D01*
X209692000Y-57783000D02*
X210962000Y-57783000D01*
%TD*%
M02*
