%TF.GenerationSoftware,KiCad,Pcbnew,(5.99.0-11498-g1a301d8eea)*%
%TF.CreationDate,2021-09-07T15:50:55+03:00*%
%TF.ProjectId,f,662e6b69-6361-4645-9f70-636258585858,rev?*%
%TF.SameCoordinates,Original*%
%TF.FileFunction,Profile,NP*%
%FSLAX46Y46*%
G04 Gerber Fmt 4.6, Leading zero omitted, Abs format (unit mm)*
G04 Created by KiCad (PCBNEW (5.99.0-11498-g1a301d8eea)) date 2021-09-07 15:50:55*
%MOMM*%
%LPD*%
G01*
G04 APERTURE LIST*
%TA.AperFunction,Profile*%
%ADD10C,0.100000*%
%TD*%
G04 APERTURE END LIST*
D10*
X180848000Y-91948000D02*
X180848000Y-93218000D01*
X178816000Y-91948000D02*
X180848000Y-91948000D01*
X149733000Y-83312000D02*
X151003000Y-83312000D01*
X165862000Y-93218000D02*
X163322000Y-93218000D01*
X148336000Y-93980000D02*
X148336000Y-111506000D01*
X149098000Y-61214000D02*
X151384000Y-61214000D01*
X209042000Y-93218000D02*
X208026000Y-93218000D01*
X222758000Y-91948000D02*
X223520000Y-91948000D01*
X209042000Y-91948000D02*
X209042000Y-93218000D01*
X151003000Y-71628000D02*
X149733000Y-71628000D01*
X208534000Y-91948000D02*
X209042000Y-91948000D01*
X131318000Y-38354000D02*
X131064000Y-39116000D01*
X163322000Y-91948000D02*
X165862000Y-91948000D01*
X149098000Y-37592000D02*
X149098000Y-61214000D01*
X182118000Y-93980000D02*
X179324000Y-93980000D01*
X166878000Y-93980000D02*
X164084000Y-93980000D01*
X225552000Y-91948000D02*
X224790000Y-91948000D01*
X131064000Y-39116000D02*
X129286000Y-40386000D01*
X211328000Y-93980000D02*
X211328000Y-111760000D01*
X180848000Y-93218000D02*
X180594000Y-93218000D01*
X181610000Y-93218000D02*
X182372000Y-93218000D01*
X195326000Y-91948000D02*
X195326000Y-93218000D01*
X237744000Y-45466000D02*
G75*
G02*
X237744000Y-45466000I-9144000J-254000D01*
G01*
X151003000Y-83312000D02*
X151003000Y-71628000D01*
X135128000Y-93218000D02*
X135128000Y-93980000D01*
X135128000Y-93218000D02*
X151130000Y-93218000D01*
X151130000Y-83820000D02*
X131826000Y-83820000D01*
X237236000Y-93218000D02*
X237236000Y-91948000D01*
X135128000Y-111506000D02*
X135128000Y-93980000D01*
X224790000Y-91948000D02*
X224790000Y-93218000D01*
X181610000Y-91948000D02*
X181610000Y-93218000D01*
X225552000Y-93218000D02*
X237236000Y-93218000D01*
X148336000Y-111506000D02*
G75*
G02*
X135128000Y-111506000I-6604000J9072164D01*
G01*
X196342000Y-91948000D02*
X196342000Y-93218000D01*
X166878000Y-111760000D02*
X166878000Y-93980000D01*
X151130000Y-71374000D02*
X151130000Y-61976000D01*
X223012000Y-93980000D02*
X225806000Y-93980000D01*
X179324000Y-93980000D02*
X179324000Y-111760000D01*
X211074000Y-91948000D02*
X210312000Y-91948000D01*
X196342000Y-93218000D02*
X208026000Y-93218000D01*
X149733000Y-71628000D02*
X149733000Y-83312000D01*
X151638000Y-93218000D02*
X163322000Y-93218000D01*
X163322000Y-91948000D02*
X151638000Y-91948000D01*
X193802000Y-111760000D02*
G75*
G02*
X182118000Y-111760000I-5842000J4055301D01*
G01*
X165862000Y-91948000D02*
X165862000Y-93218000D01*
X167132000Y-91948000D02*
X167132000Y-93218000D01*
X237236000Y-91948000D02*
X225552000Y-91948000D01*
X128524000Y-41402000D02*
X129286000Y-40386000D01*
X178816000Y-91948000D02*
X167132000Y-91948000D01*
X151130000Y-61976000D02*
X151130000Y-61722000D01*
X208534000Y-111760000D02*
G75*
G02*
X196342000Y-111760000I-6096000J5842004D01*
G01*
X151130000Y-93980000D02*
X148336000Y-93980000D01*
X132334000Y-61722000D02*
X130556000Y-60706000D01*
X151384000Y-37846000D02*
X151384000Y-37592000D01*
X223520000Y-91948000D02*
X223520000Y-93218000D01*
X237744000Y-111760000D02*
G75*
G02*
X225806000Y-111760000I-5969000J5439728D01*
G01*
X222758000Y-91948000D02*
X211074000Y-91948000D01*
X196342000Y-93980000D02*
X193548000Y-93980000D01*
X182118000Y-111760000D02*
X182118000Y-93980000D01*
X211328000Y-93980000D02*
X208534000Y-93980000D01*
X208534000Y-93980000D02*
X208534000Y-111760000D01*
X164084000Y-93980000D02*
X164084000Y-111506000D01*
X237744000Y-111760000D02*
X237743999Y-39624000D01*
X193548000Y-93980000D02*
X193802000Y-111760000D01*
X235712000Y-37592000D02*
X131826000Y-37338000D01*
X151130000Y-93218000D02*
X151130000Y-83820000D01*
X151384000Y-37846000D02*
X151384000Y-61214000D01*
X208026000Y-91948000D02*
X196342000Y-91948000D01*
X210312000Y-93218000D02*
X211074000Y-93218000D01*
X151384000Y-37592000D02*
X149098000Y-37592000D01*
X167132000Y-93218000D02*
X178816000Y-93218000D01*
X235712000Y-37591998D02*
G75*
G02*
X237743999Y-39624000I451558J-1580442D01*
G01*
X180594000Y-93218000D02*
X178816000Y-93218000D01*
X223520000Y-93218000D02*
X222758000Y-93218000D01*
X223012000Y-111760000D02*
X223012000Y-93980000D01*
X210312000Y-91948000D02*
X210312000Y-93218000D01*
X208026000Y-91948000D02*
X208534000Y-91948000D01*
X151130000Y-111506000D02*
X151130000Y-93980000D01*
X128524000Y-41402000D02*
G75*
G03*
X130556000Y-60706000I11455984J-8553054D01*
G01*
X224790000Y-93218000D02*
X225552000Y-93218000D01*
X195326000Y-93218000D02*
X194056000Y-93218000D01*
X223012000Y-111760000D02*
G75*
G02*
X211328000Y-111760000I-5842000J5080843D01*
G01*
X164084000Y-111506000D02*
G75*
G02*
X151130000Y-111506000I-6477000J8897703D01*
G01*
X179324000Y-111760000D02*
G75*
G02*
X166878000Y-111760000I-6223000J7528127D01*
G01*
X133056331Y-71373999D02*
G75*
G03*
X131826000Y-83820000I2434372J-6524458D01*
G01*
X151130000Y-71374000D02*
X133056331Y-71374000D01*
X182372000Y-91948000D02*
X181610000Y-91948000D01*
X182372000Y-93218000D02*
X194056000Y-93218000D01*
X211074000Y-93218000D02*
X222758000Y-93218000D01*
X130810000Y-71628000D02*
G75*
G02*
X130810000Y-71628000I0J-1270000D01*
G01*
X151130000Y-61722000D02*
X132334000Y-61722000D01*
X131826000Y-37338000D02*
X131318000Y-38354000D01*
X151638000Y-91948000D02*
X151638000Y-93218000D01*
X196342000Y-111760000D02*
X196342000Y-93980000D01*
X195326000Y-91948000D02*
X182372000Y-91948000D01*
X225806000Y-93980000D02*
X225806000Y-111760000D01*
M02*
