%TF.GenerationSoftware,KiCad,Pcbnew,(5.99.0-11498-g1a301d8eea)*%
%TF.CreationDate,2021-09-07T15:50:55+03:00*%
%TF.ProjectId,f,662e6b69-6361-4645-9f70-636258585858,rev?*%
%TF.SameCoordinates,Original*%
%TF.FileFunction,Soldermask,Top*%
%TF.FilePolarity,Negative*%
%FSLAX46Y46*%
G04 Gerber Fmt 4.6, Leading zero omitted, Abs format (unit mm)*
G04 Created by KiCad (PCBNEW (5.99.0-11498-g1a301d8eea)) date 2021-09-07 15:50:55*
%MOMM*%
%LPD*%
G01*
G04 APERTURE LIST*
G04 Aperture macros list*
%AMRoundRect*
0 Rectangle with rounded corners*
0 $1 Rounding radius*
0 $2 $3 $4 $5 $6 $7 $8 $9 X,Y pos of 4 corners*
0 Add a 4 corners polygon primitive as box body*
4,1,4,$2,$3,$4,$5,$6,$7,$8,$9,$2,$3,0*
0 Add four circle primitives for the rounded corners*
1,1,$1+$1,$2,$3*
1,1,$1+$1,$4,$5*
1,1,$1+$1,$6,$7*
1,1,$1+$1,$8,$9*
0 Add four rect primitives between the rounded corners*
20,1,$1+$1,$2,$3,$4,$5,0*
20,1,$1+$1,$4,$5,$6,$7,0*
20,1,$1+$1,$6,$7,$8,$9,0*
20,1,$1+$1,$8,$9,$2,$3,0*%
%AMFreePoly0*
4,1,9,5.362500,-0.866500,1.237500,-0.866500,1.237500,-0.450000,-1.237500,-0.450000,-1.237500,0.450000,1.237500,0.450000,1.237500,0.866500,5.362500,0.866500,5.362500,-0.866500,5.362500,-0.866500,$1*%
G04 Aperture macros list end*
%ADD10C,2.100000*%
%ADD11RoundRect,0.250000X-0.600000X-0.725000X0.600000X-0.725000X0.600000X0.725000X-0.600000X0.725000X0*%
%ADD12O,1.700000X1.950000*%
%ADD13RoundRect,0.250000X-0.725000X0.600000X-0.725000X-0.600000X0.725000X-0.600000X0.725000X0.600000X0*%
%ADD14O,1.950000X1.700000*%
%ADD15RoundRect,0.250000X0.600000X0.725000X-0.600000X0.725000X-0.600000X-0.725000X0.600000X-0.725000X0*%
%ADD16RoundRect,0.243750X-0.243750X-0.456250X0.243750X-0.456250X0.243750X0.456250X-0.243750X0.456250X0*%
%ADD17R,1.800000X1.800000*%
%ADD18C,1.800000*%
%ADD19RoundRect,0.250000X-0.550000X1.050000X-0.550000X-1.050000X0.550000X-1.050000X0.550000X1.050000X0*%
%ADD20R,2.800000X2.800000*%
%ADD21O,2.800000X2.800000*%
%ADD22RoundRect,0.243750X-0.456250X0.243750X-0.456250X-0.243750X0.456250X-0.243750X0.456250X0.243750X0*%
%ADD23C,1.440000*%
%ADD24RoundRect,0.250000X-0.600000X0.625000X-0.600000X-0.625000X0.600000X-0.625000X0.600000X0.625000X0*%
%ADD25RoundRect,0.243750X0.243750X0.456250X-0.243750X0.456250X-0.243750X-0.456250X0.243750X-0.456250X0*%
%ADD26RoundRect,0.150000X-0.650000X-0.150000X0.650000X-0.150000X0.650000X0.150000X-0.650000X0.150000X0*%
%ADD27R,2.410000X3.100000*%
%ADD28R,1.600000X1.600000*%
%ADD29O,1.600000X1.600000*%
%ADD30C,1.600000*%
%ADD31R,2.000000X4.000000*%
%ADD32O,2.000000X3.300000*%
%ADD33O,3.500000X2.000000*%
%ADD34RoundRect,0.250000X-0.625000X-0.600000X0.625000X-0.600000X0.625000X0.600000X-0.625000X0.600000X0*%
%ADD35R,1.500000X1.500000*%
%ADD36O,1.500000X1.500000*%
%ADD37R,1.380000X0.450000*%
%ADD38R,1.900000X1.800000*%
%ADD39R,1.300000X1.650000*%
%ADD40R,1.900000X1.000000*%
%ADD41R,1.550000X1.425000*%
%ADD42RoundRect,0.250000X-0.625000X0.375000X-0.625000X-0.375000X0.625000X-0.375000X0.625000X0.375000X0*%
%ADD43RoundRect,0.250000X0.625000X-0.375000X0.625000X0.375000X-0.625000X0.375000X-0.625000X-0.375000X0*%
%ADD44RoundRect,0.250000X-0.375000X-0.625000X0.375000X-0.625000X0.375000X0.625000X-0.375000X0.625000X0*%
%ADD45RoundRect,0.250000X-0.600000X-0.750000X0.600000X-0.750000X0.600000X0.750000X-0.600000X0.750000X0*%
%ADD46O,1.700000X2.000000*%
%ADD47RoundRect,0.218750X0.256250X-0.218750X0.256250X0.218750X-0.256250X0.218750X-0.256250X-0.218750X0*%
%ADD48C,2.000000*%
%ADD49RoundRect,0.243750X0.456250X-0.243750X0.456250X0.243750X-0.456250X0.243750X-0.456250X-0.243750X0*%
%ADD50RoundRect,0.150000X0.825000X0.150000X-0.825000X0.150000X-0.825000X-0.150000X0.825000X-0.150000X0*%
%ADD51RoundRect,0.218750X-0.256250X0.218750X-0.256250X-0.218750X0.256250X-0.218750X0.256250X0.218750X0*%
%ADD52RoundRect,0.250000X1.050000X0.550000X-1.050000X0.550000X-1.050000X-0.550000X1.050000X-0.550000X0*%
%ADD53R,1.700000X1.700000*%
%ADD54O,1.700000X1.700000*%
%ADD55RoundRect,0.250000X0.375000X0.625000X-0.375000X0.625000X-0.375000X-0.625000X0.375000X-0.625000X0*%
%ADD56R,2.300000X0.900000*%
%ADD57FreePoly0,180.000000*%
%ADD58R,0.650000X1.060000*%
%ADD59C,3.300000*%
%ADD60R,2.000000X2.000000*%
G04 APERTURE END LIST*
D10*
%TO.C,H*%
X202692000Y-111506000D03*
%TD*%
D11*
%TO.C,Beak*%
X156718000Y-88660000D03*
D12*
X159218000Y-88660000D03*
X161718000Y-88660000D03*
%TD*%
D11*
%TO.C,F3*%
X197438000Y-88660000D03*
D12*
X199938000Y-88660000D03*
X202438000Y-88660000D03*
%TD*%
D13*
%TO.C,Bdy*%
X155956000Y-44062000D03*
D14*
X155956000Y-46562000D03*
X155956000Y-49062000D03*
X155956000Y-51562000D03*
X155956000Y-54062000D03*
%TD*%
D10*
%TO.C,H*%
X221234000Y-83566000D03*
%TD*%
%TO.C,H*%
X205994000Y-83820000D03*
%TD*%
D15*
%TO.C,F4*%
X202438000Y-65786000D03*
D12*
X199938000Y-65786000D03*
X197438000Y-65786000D03*
%TD*%
D16*
%TO.C,R6*%
X183974500Y-43688000D03*
X185849500Y-43688000D03*
%TD*%
D17*
%TO.C,D12*%
X235712000Y-106426000D03*
D18*
X233172000Y-106426000D03*
%TD*%
D17*
%TO.C,D9*%
X177043000Y-106680000D03*
D18*
X174503000Y-106680000D03*
%TD*%
D16*
%TO.C,R21*%
X139128500Y-74071000D03*
X141003500Y-74071000D03*
%TD*%
D17*
%TO.C,D19*%
X184912000Y-107447000D03*
D18*
X184912000Y-104907000D03*
%TD*%
D19*
%TO.C,C7*%
X163576000Y-55350000D03*
X163576000Y-58950000D03*
%TD*%
D11*
%TO.C,Beak*%
X138938000Y-96774000D03*
D12*
X141438000Y-96774000D03*
X143938000Y-96774000D03*
%TD*%
D20*
%TO.C,D25*%
X214122000Y-79502000D03*
D21*
X214122000Y-69342000D03*
%TD*%
D22*
%TO.C,R14*%
X175006000Y-101424500D03*
X175006000Y-103299500D03*
%TD*%
D23*
%TO.C,P_Changer*%
X170424000Y-42477000D03*
X167884000Y-42477000D03*
X165344000Y-42477000D03*
%TD*%
D17*
%TO.C,D14*%
X139446000Y-106172000D03*
D18*
X136906000Y-106172000D03*
%TD*%
D10*
%TO.C,H*%
X131064000Y-77724000D03*
%TD*%
D22*
%TO.C,R17*%
X234950000Y-101170500D03*
X234950000Y-103045500D03*
%TD*%
D24*
%TO.C,D24*%
X224028000Y-54617000D03*
X224028000Y-58667000D03*
%TD*%
D11*
%TO.C,F2*%
X185460000Y-96982000D03*
D12*
X187960000Y-96982000D03*
X190460000Y-96982000D03*
%TD*%
D25*
%TO.C,R10*%
X141321000Y-50672000D03*
X139446000Y-50672000D03*
%TD*%
D16*
%TO.C,R5*%
X177116500Y-48260000D03*
X178991500Y-48260000D03*
%TD*%
D13*
%TO.C,N2*%
X135691000Y-74965000D03*
D14*
X135691000Y-77465000D03*
X135691000Y-79965000D03*
%TD*%
D10*
%TO.C,H*%
X129540000Y-50292000D03*
%TD*%
D26*
%TO.C,U2*%
X207916000Y-41275000D03*
X207916000Y-42545000D03*
X207916000Y-43815000D03*
X207916000Y-45085000D03*
X213216000Y-45085000D03*
X213216000Y-43815000D03*
X213216000Y-42545000D03*
X213216000Y-41275000D03*
D27*
X210566000Y-43180000D03*
%TD*%
D28*
%TO.C,12V SW*%
X217795600Y-88660000D03*
D29*
X210175600Y-88660000D03*
%TD*%
D30*
%TO.C,J2*%
X235148000Y-84836000D03*
D31*
X226148000Y-84836000D03*
D32*
X232148000Y-84836000D03*
D33*
X233148000Y-89336000D03*
X233148000Y-80336000D03*
%TD*%
D10*
%TO.C,H*%
X157226000Y-110744000D03*
%TD*%
D25*
%TO.C,R3*%
X218440000Y-40640000D03*
X216565000Y-40640000D03*
%TD*%
D11*
%TO.C,F3*%
X199938000Y-96474000D03*
D12*
X202438000Y-96474000D03*
X204938000Y-96474000D03*
%TD*%
D34*
%TO.C,D1*%
X225305000Y-48514000D03*
X229355000Y-48514000D03*
%TD*%
D35*
%TO.C,D3*%
X205237000Y-61214000D03*
D36*
X197617000Y-61214000D03*
%TD*%
D25*
%TO.C,R27*%
X140988500Y-46100000D03*
X139113500Y-46100000D03*
%TD*%
D22*
%TO.C,R24*%
X185420000Y-100916500D03*
X185420000Y-102791500D03*
%TD*%
D37*
%TO.C,J1*%
X233052000Y-56538000D03*
X233052000Y-55888000D03*
X233052000Y-54588000D03*
X233052000Y-53938000D03*
D38*
X235712000Y-56388000D03*
D39*
X235712000Y-58613000D03*
D40*
X235712000Y-53688000D03*
D41*
X233137000Y-52750500D03*
D39*
X235712000Y-51863000D03*
D41*
X233137000Y-57725500D03*
%TD*%
D42*
%TO.C,C4*%
X202946000Y-49654000D03*
X202946000Y-52454000D03*
%TD*%
D43*
%TO.C,C5*%
X198374000Y-57788000D03*
X198374000Y-54988000D03*
%TD*%
D10*
%TO.C,H*%
X234442000Y-40640000D03*
%TD*%
D44*
%TO.C,C6*%
X189608000Y-54102000D03*
X192408000Y-54102000D03*
%TD*%
D45*
%TO.C,Temp Sesnor *%
X194056000Y-40877000D03*
D46*
X196556000Y-40877000D03*
%TD*%
D22*
%TO.C,R26*%
X214122000Y-101678500D03*
X214122000Y-103553500D03*
%TD*%
D47*
%TO.C,R7*%
X161544000Y-50800000D03*
X161544000Y-49225000D03*
%TD*%
D17*
%TO.C,D13*%
X143251000Y-105918000D03*
D18*
X145791000Y-105918000D03*
%TD*%
D13*
%TO.C,Bdy*%
X146096000Y-44276000D03*
D14*
X146096000Y-46776000D03*
X146096000Y-49276000D03*
X146096000Y-51776000D03*
X146096000Y-54276000D03*
%TD*%
D25*
%TO.C,R9*%
X141321000Y-55244000D03*
X139446000Y-55244000D03*
%TD*%
D11*
%TO.C,F2*%
X184050800Y-88660000D03*
D12*
X186550800Y-88660000D03*
X189050800Y-88660000D03*
%TD*%
D17*
%TO.C,D7*%
X203708000Y-106426000D03*
D18*
X206248000Y-106426000D03*
%TD*%
D48*
%TO.C,F1*%
X222494000Y-75692000D03*
X222504000Y-70612000D03*
%TD*%
D15*
%TO.C,N2*%
X161256000Y-65786000D03*
D12*
X158756000Y-65786000D03*
X156256000Y-65786000D03*
%TD*%
D49*
%TO.C,R8*%
X177292000Y-60198000D03*
X177292000Y-58323000D03*
%TD*%
D43*
%TO.C,C9*%
X215900000Y-65154000D03*
X215900000Y-62354000D03*
%TD*%
D10*
%TO.C,H*%
X231902000Y-111760000D03*
%TD*%
D17*
%TO.C,D21*%
X214122000Y-108463000D03*
D18*
X214122000Y-105923000D03*
%TD*%
D10*
%TO.C,H*%
X141478000Y-110744000D03*
%TD*%
D50*
%TO.C,U3*%
X172147000Y-52959000D03*
X172147000Y-51689000D03*
X172147000Y-50419000D03*
X172147000Y-49149000D03*
X167197000Y-49149000D03*
X167197000Y-50419000D03*
X167197000Y-51689000D03*
X167197000Y-52959000D03*
%TD*%
D51*
%TO.C,R18*%
X144018000Y-100812500D03*
X144018000Y-102387500D03*
%TD*%
D22*
%TO.C,R22*%
X154432000Y-100408500D03*
X154432000Y-102283500D03*
%TD*%
D11*
%TO.C,N1*%
X229148000Y-97444000D03*
D12*
X231648000Y-97444000D03*
X234148000Y-97444000D03*
%TD*%
D25*
%TO.C,R2*%
X180848000Y-41148000D03*
X178973000Y-41148000D03*
%TD*%
D42*
%TO.C,C8*%
X177292000Y-52448000D03*
X177292000Y-55248000D03*
%TD*%
D17*
%TO.C,D22*%
X135128000Y-44275154D03*
D18*
X135128000Y-46815154D03*
%TD*%
D10*
%TO.C,H*%
X217170000Y-111760000D03*
%TD*%
%TO.C,H*%
X172466000Y-111252000D03*
%TD*%
D22*
%TO.C,R25*%
X199136000Y-100662500D03*
X199136000Y-102537500D03*
%TD*%
D42*
%TO.C,C3*%
X184150000Y-54988000D03*
X184150000Y-57788000D03*
%TD*%
D11*
%TO.C,BN*%
X155244000Y-96682000D03*
D12*
X157744000Y-96682000D03*
X160244000Y-96682000D03*
%TD*%
D17*
%TO.C,D18*%
X170180000Y-107701000D03*
D18*
X170180000Y-105161000D03*
%TD*%
D17*
%TO.C,D17*%
X155448000Y-105918000D03*
D18*
X152908000Y-105918000D03*
%TD*%
D11*
%TO.C,N1*%
X170153400Y-88660000D03*
D12*
X172653400Y-88660000D03*
X175153400Y-88660000D03*
%TD*%
D48*
%TO.C,L1*%
X194564000Y-46228000D03*
X194564000Y-50228000D03*
%TD*%
D49*
%TO.C,R29*%
X235140000Y-67589500D03*
X235140000Y-65714500D03*
%TD*%
D22*
%TO.C,R20*%
X229108000Y-101170500D03*
X229108000Y-103045500D03*
%TD*%
D16*
%TO.C,R16*%
X139270500Y-80264000D03*
X141145500Y-80264000D03*
%TD*%
D17*
%TO.C,D20*%
X200660000Y-106426000D03*
D18*
X198120000Y-106426000D03*
%TD*%
D17*
%TO.C,D23*%
X134028000Y-40132000D03*
D18*
X136568000Y-40132000D03*
%TD*%
D17*
%TO.C,D5*%
X134028000Y-50968308D03*
D18*
X136568000Y-50968308D03*
%TD*%
D22*
%TO.C,R12*%
X204978000Y-100916500D03*
X204978000Y-102791500D03*
%TD*%
D15*
%TO.C,F1*%
X188710666Y-65786000D03*
D12*
X186210666Y-65786000D03*
X183710666Y-65786000D03*
%TD*%
D17*
%TO.C,D6*%
X219710000Y-108204000D03*
D18*
X219710000Y-105664000D03*
%TD*%
D22*
%TO.C,R11*%
X219202000Y-101424500D03*
X219202000Y-103299500D03*
%TD*%
D17*
%TO.C,D10*%
X161549000Y-105664000D03*
D18*
X159009000Y-105664000D03*
%TD*%
D52*
%TO.C,C10*%
X211858000Y-57912000D03*
X208258000Y-57912000D03*
%TD*%
D22*
%TO.C,R15*%
X159258000Y-100408500D03*
X159258000Y-102283500D03*
%TD*%
D15*
%TO.C,BN*%
X174983333Y-65786000D03*
D12*
X172483333Y-65786000D03*
X169983333Y-65786000D03*
%TD*%
D44*
%TO.C,C1*%
X215608000Y-56388000D03*
X218408000Y-56388000D03*
%TD*%
D28*
%TO.C,U5*%
X179339000Y-80254000D03*
D29*
X181879000Y-80254000D03*
X184419000Y-80254000D03*
X186959000Y-80254000D03*
X189499000Y-80254000D03*
X192039000Y-80254000D03*
X194579000Y-80254000D03*
X197119000Y-80254000D03*
X197119000Y-72634000D03*
X194579000Y-72634000D03*
X192039000Y-72634000D03*
X189499000Y-72634000D03*
X186959000Y-72634000D03*
X184419000Y-72634000D03*
X181879000Y-72634000D03*
X179339000Y-72634000D03*
%TD*%
D22*
%TO.C,R19*%
X138938000Y-100716500D03*
X138938000Y-102591500D03*
%TD*%
D17*
%TO.C,D15*%
X229362000Y-107701000D03*
D18*
X229362000Y-105161000D03*
%TD*%
D17*
%TO.C,D4*%
X135128000Y-58166000D03*
D18*
X135128000Y-55626000D03*
%TD*%
D17*
%TO.C,D8*%
X190246000Y-107447000D03*
D18*
X190246000Y-104907000D03*
%TD*%
D10*
%TO.C,H*%
X187960000Y-111252000D03*
%TD*%
D25*
%TO.C,R1*%
X219377500Y-44958000D03*
X217502500Y-44958000D03*
%TD*%
%TO.C,R4*%
X188897500Y-40386000D03*
X187022500Y-40386000D03*
%TD*%
D34*
%TO.C,D2*%
X224797000Y-40835000D03*
X228847000Y-40835000D03*
%TD*%
D25*
%TO.C,R28*%
X140813000Y-41528000D03*
X138938000Y-41528000D03*
%TD*%
D22*
%TO.C,R13*%
X189992000Y-100916500D03*
X189992000Y-102791500D03*
%TD*%
D11*
%TO.C,F4*%
X214670000Y-97028000D03*
D12*
X217170000Y-97028000D03*
X219670000Y-97028000D03*
%TD*%
D17*
%TO.C,D16*%
X145796000Y-75443000D03*
D18*
X145796000Y-72903000D03*
%TD*%
D53*
%TO.C,Alt power*%
X205232000Y-75946000D03*
D54*
X205232000Y-73406000D03*
%TD*%
D55*
%TO.C,C2*%
X191138000Y-60706000D03*
X188338000Y-60706000D03*
%TD*%
D56*
%TO.C,U6*%
X225552000Y-65786000D03*
D57*
X225464500Y-64286000D03*
D56*
X225552000Y-62786000D03*
%TD*%
D28*
%TO.C,U4*%
X172556000Y-72654000D03*
D29*
X170016000Y-72654000D03*
X167476000Y-72654000D03*
X164936000Y-72654000D03*
X162396000Y-72654000D03*
X159856000Y-72654000D03*
X157316000Y-72654000D03*
X154776000Y-72654000D03*
X154776000Y-80274000D03*
X157316000Y-80274000D03*
X159856000Y-80274000D03*
X162396000Y-80274000D03*
X164936000Y-80274000D03*
X167476000Y-80274000D03*
X170016000Y-80274000D03*
X172556000Y-80274000D03*
%TD*%
D11*
%TO.C,F1*%
X170434000Y-97444000D03*
D12*
X172934000Y-97444000D03*
X175434000Y-97444000D03*
%TD*%
D22*
%TO.C,R23*%
X170180000Y-101170500D03*
X170180000Y-103045500D03*
%TD*%
D17*
%TO.C,D11*%
X147071000Y-80264000D03*
D18*
X144531000Y-80264000D03*
%TD*%
D58*
%TO.C,U1*%
X186624000Y-49192000D03*
X185674000Y-49192000D03*
X184724000Y-49192000D03*
X184724000Y-51392000D03*
X185674000Y-51392000D03*
X186624000Y-51392000D03*
%TD*%
D59*
%TO.C,BT1*%
X201422000Y-56513000D03*
X201422000Y-71503000D03*
D60*
X228587000Y-56513000D03*
D48*
X228587000Y-71503000D03*
%TD*%
M02*
