M48
; DRILL file {KiCad (5.99.0-11498-g1a301d8eea)} date Tue Sep  7 15:51:28 2021
; FORMAT={-:-/ absolute / inch / decimal}
; #@! TF.CreationDate,2021-09-07T15:51:28+03:00
; #@! TF.GenerationSoftware,Kicad,Pcbnew,(5.99.0-11498-g1a301d8eea)
; #@! TF.FileFunction,Plated,1,2,PTH
FMAT,2
INCH
; #@! TA.AperFunction,Plated,PTH,ViaDrill
T1C0.0157
; #@! TA.AperFunction,Plated,PTH,ViaDrill
T2C0.0197
; #@! TA.AperFunction,Plated,PTH,ComponentDrill
T3C0.0295
; #@! TA.AperFunction,Plated,PTH,ComponentDrill
T4C0.0315
; #@! TA.AperFunction,Plated,PTH,ComponentDrill
T5C0.0354
; #@! TA.AperFunction,Plated,PTH,ComponentDrill
T6C0.0374
; #@! TA.AperFunction,Plated,PTH,ComponentDrill
T7C0.0394
; #@! TA.AperFunction,Plated,PTH,ComponentDrill
T8C0.0402
; #@! TA.AperFunction,Plated,PTH,ComponentDrill
T9C0.0551
%
G90
G05
T1
X6.07Y-2.39
X6.18Y-2.36
X6.18Y-2.46
X6.43Y-1.96
X6.4879Y-2.0394
X6.5Y-2.77
X6.54Y-1.84
X6.62Y-3.0
X6.88Y-2.03
X6.895Y-3.03
X6.93Y-2.98
X6.94Y-2.43
X6.98Y-3.2466
X7.05Y-2.63
X7.08Y-2.41
X7.11Y-2.33
X7.12Y-2.18
X7.15Y-3.37
X7.2Y-1.81
X7.4258Y-2.0141
X7.69Y-2.06
X7.87Y-2.94
X7.96Y-3.28
X8.01Y-1.77
X8.41Y-1.54
X8.47Y-2.34
X8.52Y-2.66
X8.61Y-2.44
X9.16Y-2.67
T2
X6.35Y-1.76
X6.36Y-2.07
X6.49Y-2.09
X6.89Y-2.9
X6.97Y-2.95
X7.09Y-2.47
X7.13Y-1.83
X7.13Y-2.7424
X7.28Y-2.46
X7.37Y-2.16
X7.3761Y-2.2939
X7.38Y-2.09
X7.41Y-2.2
X7.63Y-2.1926
X8.0Y-1.88
X8.08Y-1.82
X8.09Y-1.73
X8.37Y-1.83
X8.67Y-1.95
X8.9Y-2.1619
T3
X7.7802Y-2.41
X8.0802Y-2.41
T4
X6.0935Y-2.8604
X6.0935Y-3.1604
X6.1935Y-2.8604
X6.1935Y-3.1604
X6.2935Y-2.8604
X6.2935Y-3.1604
X6.3935Y-2.8604
X6.3935Y-3.1604
X6.4935Y-2.8604
X6.4935Y-3.1604
X6.5096Y-1.6723
X6.5935Y-2.8604
X6.5935Y-3.1604
X6.6096Y-1.6723
X6.6935Y-2.8604
X6.6935Y-3.1604
X6.7096Y-1.6723
X6.7935Y-2.8604
X6.7935Y-3.1604
X7.0606Y-2.8596
X7.0606Y-3.1596
X7.1606Y-2.8596
X7.1606Y-3.1596
X7.2606Y-2.8596
X7.2606Y-3.1596
X7.3606Y-2.8596
X7.3606Y-3.1596
X7.4606Y-2.8596
X7.4606Y-3.1596
X7.5606Y-2.8596
X7.5606Y-3.1596
X7.6606Y-2.8596
X7.6606Y-3.1596
X7.7606Y-2.8596
X7.7606Y-3.1596
X8.2746Y-3.4906
X8.5746Y-3.4906
T5
X5.2767Y-1.58
X5.2767Y-2.0066
X5.32Y-1.7431
X5.32Y-1.8431
X5.32Y-2.19
X5.32Y-2.29
X5.3767Y-1.58
X5.3767Y-2.0066
X5.39Y-4.18
X5.49Y-4.18
X5.6398Y-4.17
X5.6902Y-3.16
X5.7398Y-4.17
X5.74Y-2.8702
X5.74Y-2.9702
X5.7902Y-3.16
X6.02Y-4.17
X6.12Y-4.17
X6.2602Y-4.16
X6.3602Y-4.16
X6.7Y-4.1402
X6.7Y-4.2402
X6.8702Y-4.2
X6.9702Y-4.2
X7.28Y-4.1302
X7.28Y-4.2302
X7.49Y-4.1302
X7.49Y-4.2302
X7.8Y-4.19
X7.9Y-4.19
X8.02Y-4.19
X8.12Y-4.19
X8.43Y-4.1702
X8.43Y-4.2702
X8.65Y-4.16
X8.65Y-4.26
X9.03Y-4.1402
X9.03Y-4.2402
X9.18Y-4.19
X9.28Y-4.19
T6
X5.3422Y-2.9514
X5.3422Y-3.0498
X5.3422Y-3.1482
X5.47Y-3.81
X5.5684Y-3.81
X5.6669Y-3.81
X5.7518Y-1.7431
X5.7518Y-1.8416
X5.7518Y-1.94
X5.7518Y-2.0384
X5.7518Y-2.1369
X6.112Y-3.8064
X6.14Y-1.7347
X6.14Y-1.8331
X6.14Y-1.9316
X6.14Y-2.03
X6.14Y-2.1284
X6.1518Y-2.59
X6.17Y-3.4906
X6.2104Y-3.8064
X6.2502Y-2.59
X6.2684Y-3.4906
X6.3088Y-3.8064
X6.3487Y-2.59
X6.3669Y-3.4906
X6.6923Y-2.59
X6.699Y-3.4906
X6.71Y-3.8364
X6.7907Y-2.59
X6.7974Y-3.4906
X6.8084Y-3.8364
X6.8891Y-2.59
X6.8958Y-3.4906
X6.9069Y-3.8364
X7.2327Y-2.59
X7.2461Y-3.4906
X7.3016Y-3.8182
X7.3311Y-2.59
X7.3445Y-3.4906
X7.4Y-3.8182
X7.4296Y-2.59
X7.4429Y-3.4906
X7.4984Y-3.8182
X7.7731Y-2.59
X7.7731Y-3.4906
X7.8716Y-2.59
X7.8716Y-3.4906
X7.8716Y-3.7982
X7.97Y-2.59
X7.97Y-3.4906
X7.97Y-3.7982
X8.0684Y-3.7982
X8.4516Y-3.82
X8.55Y-3.82
X8.6484Y-3.82
X9.0216Y-3.8364
X9.12Y-3.8364
X9.2184Y-3.8364
T7
X7.64Y-1.6093
X7.66Y-1.82
X7.66Y-1.9775
X7.7384Y-1.6093
X8.08Y-2.89
X8.08Y-2.99
X8.7596Y-2.98
X8.76Y-2.78
T8
X8.9995Y-2.2249
X8.9995Y-2.8151
T9
X8.43Y-2.73
X8.43Y-3.13
T7
G00X8.9035Y-3.3794
M15
G01X8.9035Y-3.3006
M16
G05
G00X9.1397Y-3.3656
M15
G01X9.1397Y-3.3144
M16
G05
G00X9.1495Y-3.1628
M15
G01X9.2086Y-3.1628
M16
G05
G00X9.1495Y-3.5172
M15
G01X9.2086Y-3.5172
M16
G05
T0
M30
