%TF.GenerationSoftware,KiCad,Pcbnew,(5.99.0-11498-g1a301d8eea)*%
%TF.CreationDate,2021-09-08T01:16:22+03:00*%
%TF.ProjectId,f,662e6b69-6361-4645-9f70-636258585858,rev?*%
%TF.SameCoordinates,Original*%
%TF.FileFunction,Legend,Bot*%
%TF.FilePolarity,Positive*%
%FSLAX46Y46*%
G04 Gerber Fmt 4.6, Leading zero omitted, Abs format (unit mm)*
G04 Created by KiCad (PCBNEW (5.99.0-11498-g1a301d8eea)) date 2021-09-08 01:16:22*
%MOMM*%
%LPD*%
G01*
G04 APERTURE LIST*
%ADD10C,0.150000*%
%ADD11C,0.120000*%
G04 APERTURE END LIST*
D10*
%TO.C,BT1*%
X101242573Y-109697296D02*
X101099716Y-109744915D01*
X101052097Y-109792534D01*
X101004478Y-109887772D01*
X101004478Y-110030629D01*
X101052097Y-110125867D01*
X101099716Y-110173486D01*
X101194954Y-110221105D01*
X101575906Y-110221105D01*
X101575906Y-109221105D01*
X101242573Y-109221105D01*
X101147335Y-109268725D01*
X101099716Y-109316344D01*
X101052097Y-109411582D01*
X101052097Y-109506820D01*
X101099716Y-109602058D01*
X101147335Y-109649677D01*
X101242573Y-109697296D01*
X101575906Y-109697296D01*
X100718763Y-109221105D02*
X100147335Y-109221105D01*
X100433049Y-110221105D02*
X100433049Y-109221105D01*
X99290192Y-110221105D02*
X99861620Y-110221105D01*
X99575906Y-110221105D02*
X99575906Y-109221105D01*
X99671144Y-109363963D01*
X99766382Y-109459201D01*
X99861620Y-109506820D01*
X103778287Y-105875867D02*
X102635430Y-105875867D01*
X103206859Y-106447296D02*
X103206859Y-105304439D01*
D11*
X99006859Y-103968725D02*
X99006859Y-102768725D01*
X128493029Y-105841038D02*
G75*
G03*
X103306859Y-102268725I-12836170J72313D01*
G01*
X103308613Y-102242341D02*
G75*
G02*
X102556859Y-102768725I-751754J273616D01*
G01*
X128493029Y-105696412D02*
G75*
G02*
X103306859Y-109268725I-12836170J-72313D01*
G01*
X103308613Y-109295109D02*
G75*
G03*
X102556859Y-108768725I-751754J-273616D01*
G01*
X99006859Y-108768725D02*
X102606859Y-108768725D01*
X99006859Y-107568725D02*
X99006859Y-108768725D01*
X99006859Y-102768725D02*
X102606859Y-102768725D01*
%TD*%
M02*
