%TF.GenerationSoftware,KiCad,Pcbnew,(5.99.0-11498-g1a301d8eea)*%
%TF.CreationDate,2021-09-08T01:16:22+03:00*%
%TF.ProjectId,f,662e6b69-6361-4645-9f70-636258585858,rev?*%
%TF.SameCoordinates,Original*%
%TF.FileFunction,Legend,Top*%
%TF.FilePolarity,Positive*%
%FSLAX46Y46*%
G04 Gerber Fmt 4.6, Leading zero omitted, Abs format (unit mm)*
G04 Created by KiCad (PCBNEW (5.99.0-11498-g1a301d8eea)) date 2021-09-08 01:16:22*
%MOMM*%
%LPD*%
G01*
G04 APERTURE LIST*
%ADD10C,0.150000*%
%ADD11C,0.120000*%
G04 APERTURE END LIST*
D10*
%TO.C,D4*%
X67587904Y-51918380D02*
X67587904Y-50918380D01*
X67826000Y-50918380D01*
X67968857Y-50966000D01*
X68064095Y-51061238D01*
X68111714Y-51156476D01*
X68159333Y-51346952D01*
X68159333Y-51489809D01*
X68111714Y-51680285D01*
X68064095Y-51775523D01*
X67968857Y-51870761D01*
X67826000Y-51918380D01*
X67587904Y-51918380D01*
X69016476Y-51251714D02*
X69016476Y-51918380D01*
X68778380Y-50870761D02*
X68540285Y-51585047D01*
X69159333Y-51585047D01*
%TO.C,C3*%
X118959333Y-100475142D02*
X118911714Y-100522761D01*
X118768857Y-100570380D01*
X118673619Y-100570380D01*
X118530761Y-100522761D01*
X118435523Y-100427523D01*
X118387904Y-100332285D01*
X118340285Y-100141809D01*
X118340285Y-99998952D01*
X118387904Y-99808476D01*
X118435523Y-99713238D01*
X118530761Y-99618000D01*
X118673619Y-99570380D01*
X118768857Y-99570380D01*
X118911714Y-99618000D01*
X118959333Y-99665619D01*
X119292666Y-99570380D02*
X119911714Y-99570380D01*
X119578380Y-99951333D01*
X119721238Y-99951333D01*
X119816476Y-99998952D01*
X119864095Y-100046571D01*
X119911714Y-100141809D01*
X119911714Y-100379904D01*
X119864095Y-100475142D01*
X119816476Y-100522761D01*
X119721238Y-100570380D01*
X119435523Y-100570380D01*
X119340285Y-100522761D01*
X119292666Y-100475142D01*
%TO.C,D3*%
X91750380Y-104624095D02*
X90750380Y-104624095D01*
X90750380Y-104386000D01*
X90798000Y-104243142D01*
X90893238Y-104147904D01*
X90988476Y-104100285D01*
X91178952Y-104052666D01*
X91321809Y-104052666D01*
X91512285Y-104100285D01*
X91607523Y-104147904D01*
X91702761Y-104243142D01*
X91750380Y-104386000D01*
X91750380Y-104624095D01*
X90750380Y-103719333D02*
X90750380Y-103100285D01*
X91131333Y-103433619D01*
X91131333Y-103290761D01*
X91178952Y-103195523D01*
X91226571Y-103147904D01*
X91321809Y-103100285D01*
X91559904Y-103100285D01*
X91655142Y-103147904D01*
X91702761Y-103195523D01*
X91750380Y-103290761D01*
X91750380Y-103576476D01*
X91702761Y-103671714D01*
X91655142Y-103719333D01*
X91920380Y-107957904D02*
X90920380Y-107957904D01*
X91920380Y-107386476D02*
X91348952Y-107815047D01*
X90920380Y-107386476D02*
X91491809Y-107957904D01*
%TO.C,R6*%
X109815333Y-100402380D02*
X109482000Y-99926190D01*
X109243904Y-100402380D02*
X109243904Y-99402380D01*
X109624857Y-99402380D01*
X109720095Y-99450000D01*
X109767714Y-99497619D01*
X109815333Y-99592857D01*
X109815333Y-99735714D01*
X109767714Y-99830952D01*
X109720095Y-99878571D01*
X109624857Y-99926190D01*
X109243904Y-99926190D01*
X110672476Y-99402380D02*
X110482000Y-99402380D01*
X110386761Y-99450000D01*
X110339142Y-99497619D01*
X110243904Y-99640476D01*
X110196285Y-99830952D01*
X110196285Y-100211904D01*
X110243904Y-100307142D01*
X110291523Y-100354761D01*
X110386761Y-100402380D01*
X110577238Y-100402380D01*
X110672476Y-100354761D01*
X110720095Y-100307142D01*
X110767714Y-100211904D01*
X110767714Y-99973809D01*
X110720095Y-99878571D01*
X110672476Y-99830952D01*
X110577238Y-99783333D01*
X110386761Y-99783333D01*
X110291523Y-99830952D01*
X110243904Y-99878571D01*
X110196285Y-99973809D01*
%TO.C,C2*%
X117676272Y-108115867D02*
X117628653Y-108163486D01*
X117485796Y-108211105D01*
X117390558Y-108211105D01*
X117247700Y-108163486D01*
X117152462Y-108068248D01*
X117104843Y-107973010D01*
X117057224Y-107782534D01*
X117057224Y-107639677D01*
X117104843Y-107449201D01*
X117152462Y-107353963D01*
X117247700Y-107258725D01*
X117390558Y-107211105D01*
X117485796Y-107211105D01*
X117628653Y-107258725D01*
X117676272Y-107306344D01*
X118057224Y-107306344D02*
X118104843Y-107258725D01*
X118200081Y-107211105D01*
X118438177Y-107211105D01*
X118533415Y-107258725D01*
X118581034Y-107306344D01*
X118628653Y-107401582D01*
X118628653Y-107496820D01*
X118581034Y-107639677D01*
X118009605Y-108211105D01*
X118628653Y-108211105D01*
%TO.C,R4*%
X137979319Y-104919391D02*
X137503129Y-105252725D01*
X137979319Y-105490820D02*
X136979319Y-105490820D01*
X136979319Y-105109867D01*
X137026939Y-105014629D01*
X137074558Y-104967010D01*
X137169796Y-104919391D01*
X137312653Y-104919391D01*
X137407891Y-104967010D01*
X137455510Y-105014629D01*
X137503129Y-105109867D01*
X137503129Y-105490820D01*
X137312653Y-104062248D02*
X137979319Y-104062248D01*
X136931700Y-104300344D02*
X137645986Y-104538439D01*
X137645986Y-103919391D01*
%TO.C,R5*%
X119960380Y-93638666D02*
X119484190Y-93972000D01*
X119960380Y-94210095D02*
X118960380Y-94210095D01*
X118960380Y-93829142D01*
X119008000Y-93733904D01*
X119055619Y-93686285D01*
X119150857Y-93638666D01*
X119293714Y-93638666D01*
X119388952Y-93686285D01*
X119436571Y-93733904D01*
X119484190Y-93829142D01*
X119484190Y-94210095D01*
X118960380Y-92733904D02*
X118960380Y-93210095D01*
X119436571Y-93257714D01*
X119388952Y-93210095D01*
X119341333Y-93114857D01*
X119341333Y-92876761D01*
X119388952Y-92781523D01*
X119436571Y-92733904D01*
X119531809Y-92686285D01*
X119769904Y-92686285D01*
X119865142Y-92733904D01*
X119912761Y-92781523D01*
X119960380Y-92876761D01*
X119960380Y-93114857D01*
X119912761Y-93210095D01*
X119865142Y-93257714D01*
%TO.C,D1*%
X147781319Y-107021820D02*
X146781319Y-107021820D01*
X146781319Y-106783725D01*
X146828939Y-106640867D01*
X146924177Y-106545629D01*
X147019415Y-106498010D01*
X147209891Y-106450391D01*
X147352748Y-106450391D01*
X147543224Y-106498010D01*
X147638462Y-106545629D01*
X147733700Y-106640867D01*
X147781319Y-106783725D01*
X147781319Y-107021820D01*
X147781319Y-105498010D02*
X147781319Y-106069439D01*
X147781319Y-105783725D02*
X146781319Y-105783725D01*
X146924177Y-105878963D01*
X147019415Y-105974201D01*
X147067034Y-106069439D01*
%TO.C,R7*%
X71207333Y-56204380D02*
X70874000Y-55728190D01*
X70635904Y-56204380D02*
X70635904Y-55204380D01*
X71016857Y-55204380D01*
X71112095Y-55252000D01*
X71159714Y-55299619D01*
X71207333Y-55394857D01*
X71207333Y-55537714D01*
X71159714Y-55632952D01*
X71112095Y-55680571D01*
X71016857Y-55728190D01*
X70635904Y-55728190D01*
X71540666Y-55204380D02*
X72207333Y-55204380D01*
X71778761Y-56204380D01*
%TO.C,C4*%
X114374272Y-117089867D02*
X114326653Y-117137486D01*
X114183796Y-117185105D01*
X114088558Y-117185105D01*
X113945700Y-117137486D01*
X113850462Y-117042248D01*
X113802843Y-116947010D01*
X113755224Y-116756534D01*
X113755224Y-116613677D01*
X113802843Y-116423201D01*
X113850462Y-116327963D01*
X113945700Y-116232725D01*
X114088558Y-116185105D01*
X114183796Y-116185105D01*
X114326653Y-116232725D01*
X114374272Y-116280344D01*
X115231415Y-116518439D02*
X115231415Y-117185105D01*
X114993319Y-116137486D02*
X114755224Y-116851772D01*
X115374272Y-116851772D01*
%TO.C,D2*%
X130820843Y-91765105D02*
X130820843Y-90765105D01*
X131058939Y-90765105D01*
X131201796Y-90812725D01*
X131297034Y-90907963D01*
X131344653Y-91003201D01*
X131392272Y-91193677D01*
X131392272Y-91336534D01*
X131344653Y-91527010D01*
X131297034Y-91622248D01*
X131201796Y-91717486D01*
X131058939Y-91765105D01*
X130820843Y-91765105D01*
X131773224Y-90860344D02*
X131820843Y-90812725D01*
X131916081Y-90765105D01*
X132154177Y-90765105D01*
X132249415Y-90812725D01*
X132297034Y-90860344D01*
X132344653Y-90955582D01*
X132344653Y-91050820D01*
X132297034Y-91193677D01*
X131725605Y-91765105D01*
X132344653Y-91765105D01*
%TO.C,J1*%
X115985605Y-88363105D02*
X115985605Y-89077391D01*
X115937986Y-89220248D01*
X115842748Y-89315486D01*
X115699891Y-89363105D01*
X115604653Y-89363105D01*
X116985605Y-89363105D02*
X116414177Y-89363105D01*
X116699891Y-89363105D02*
X116699891Y-88363105D01*
X116604653Y-88505963D01*
X116509415Y-88601201D01*
X116414177Y-88648820D01*
%TO.C,C5*%
X116477142Y-97448666D02*
X116524761Y-97496285D01*
X116572380Y-97639142D01*
X116572380Y-97734380D01*
X116524761Y-97877238D01*
X116429523Y-97972476D01*
X116334285Y-98020095D01*
X116143809Y-98067714D01*
X116000952Y-98067714D01*
X115810476Y-98020095D01*
X115715238Y-97972476D01*
X115620000Y-97877238D01*
X115572380Y-97734380D01*
X115572380Y-97639142D01*
X115620000Y-97496285D01*
X115667619Y-97448666D01*
X115572380Y-96543904D02*
X115572380Y-97020095D01*
X116048571Y-97067714D01*
X116000952Y-97020095D01*
X115953333Y-96924857D01*
X115953333Y-96686761D01*
X116000952Y-96591523D01*
X116048571Y-96543904D01*
X116143809Y-96496285D01*
X116381904Y-96496285D01*
X116477142Y-96543904D01*
X116524761Y-96591523D01*
X116572380Y-96686761D01*
X116572380Y-96924857D01*
X116524761Y-97020095D01*
X116477142Y-97067714D01*
%TO.C,R1*%
X143759772Y-103045105D02*
X143426439Y-102568915D01*
X143188343Y-103045105D02*
X143188343Y-102045105D01*
X143569296Y-102045105D01*
X143664534Y-102092725D01*
X143712153Y-102140344D01*
X143759772Y-102235582D01*
X143759772Y-102378439D01*
X143712153Y-102473677D01*
X143664534Y-102521296D01*
X143569296Y-102568915D01*
X143188343Y-102568915D01*
X144712153Y-103045105D02*
X144140724Y-103045105D01*
X144426439Y-103045105D02*
X144426439Y-102045105D01*
X144331200Y-102187963D01*
X144235962Y-102283201D01*
X144140724Y-102330820D01*
%TO.C,C6*%
X107574081Y-110761391D02*
X107621700Y-110809010D01*
X107669319Y-110951867D01*
X107669319Y-111047105D01*
X107621700Y-111189963D01*
X107526462Y-111285201D01*
X107431224Y-111332820D01*
X107240748Y-111380439D01*
X107097891Y-111380439D01*
X106907415Y-111332820D01*
X106812177Y-111285201D01*
X106716939Y-111189963D01*
X106669319Y-111047105D01*
X106669319Y-110951867D01*
X106716939Y-110809010D01*
X106764558Y-110761391D01*
X106669319Y-109904248D02*
X106669319Y-110094725D01*
X106716939Y-110189963D01*
X106764558Y-110237582D01*
X106907415Y-110332820D01*
X107097891Y-110380439D01*
X107478843Y-110380439D01*
X107574081Y-110332820D01*
X107621700Y-110285201D01*
X107669319Y-110189963D01*
X107669319Y-109999486D01*
X107621700Y-109904248D01*
X107574081Y-109856629D01*
X107478843Y-109809010D01*
X107240748Y-109809010D01*
X107145510Y-109856629D01*
X107097891Y-109904248D01*
X107050272Y-109999486D01*
X107050272Y-110189963D01*
X107097891Y-110285201D01*
X107145510Y-110332820D01*
X107240748Y-110380439D01*
%TO.C,U2*%
X133199319Y-98910629D02*
X134008843Y-98910629D01*
X134104081Y-98863010D01*
X134151700Y-98815391D01*
X134199319Y-98720153D01*
X134199319Y-98529677D01*
X134151700Y-98434439D01*
X134104081Y-98386820D01*
X134008843Y-98339201D01*
X133199319Y-98339201D01*
X133294558Y-97910629D02*
X133246939Y-97863010D01*
X133199319Y-97767772D01*
X133199319Y-97529677D01*
X133246939Y-97434439D01*
X133294558Y-97386820D01*
X133389796Y-97339201D01*
X133485034Y-97339201D01*
X133627891Y-97386820D01*
X134199319Y-97958248D01*
X134199319Y-97339201D01*
%TO.C,R3*%
X139249319Y-92219391D02*
X138773129Y-92552725D01*
X139249319Y-92790820D02*
X138249319Y-92790820D01*
X138249319Y-92409867D01*
X138296939Y-92314629D01*
X138344558Y-92267010D01*
X138439796Y-92219391D01*
X138582653Y-92219391D01*
X138677891Y-92267010D01*
X138725510Y-92314629D01*
X138773129Y-92409867D01*
X138773129Y-92790820D01*
X138249319Y-91886058D02*
X138249319Y-91267010D01*
X138630272Y-91600344D01*
X138630272Y-91457486D01*
X138677891Y-91362248D01*
X138725510Y-91314629D01*
X138820748Y-91267010D01*
X139058843Y-91267010D01*
X139154081Y-91314629D01*
X139201700Y-91362248D01*
X139249319Y-91457486D01*
X139249319Y-91743201D01*
X139201700Y-91838439D01*
X139154081Y-91886058D01*
%TO.C,L1*%
X105286380Y-98178666D02*
X105286380Y-98654857D01*
X104286380Y-98654857D01*
X105286380Y-97321523D02*
X105286380Y-97892952D01*
X105286380Y-97607238D02*
X104286380Y-97607238D01*
X104429238Y-97702476D01*
X104524476Y-97797714D01*
X104572095Y-97892952D01*
%TO.C,U1*%
X114154380Y-93979904D02*
X114963904Y-93979904D01*
X115059142Y-93932285D01*
X115106761Y-93884666D01*
X115154380Y-93789428D01*
X115154380Y-93598952D01*
X115106761Y-93503714D01*
X115059142Y-93456095D01*
X114963904Y-93408476D01*
X114154380Y-93408476D01*
X115154380Y-92408476D02*
X115154380Y-92979904D01*
X115154380Y-92694190D02*
X114154380Y-92694190D01*
X114297238Y-92789428D01*
X114392476Y-92884666D01*
X114440095Y-92979904D01*
%TO.C,C1*%
X140028272Y-107691867D02*
X139980653Y-107739486D01*
X139837796Y-107787105D01*
X139742558Y-107787105D01*
X139599700Y-107739486D01*
X139504462Y-107644248D01*
X139456843Y-107549010D01*
X139409224Y-107358534D01*
X139409224Y-107215677D01*
X139456843Y-107025201D01*
X139504462Y-106929963D01*
X139599700Y-106834725D01*
X139742558Y-106787105D01*
X139837796Y-106787105D01*
X139980653Y-106834725D01*
X140028272Y-106882344D01*
X140980653Y-107787105D02*
X140409224Y-107787105D01*
X140694939Y-107787105D02*
X140694939Y-106787105D01*
X140599700Y-106929963D01*
X140504462Y-107025201D01*
X140409224Y-107072820D01*
%TO.C,R2*%
X114624380Y-90336666D02*
X114148190Y-90670000D01*
X114624380Y-90908095D02*
X113624380Y-90908095D01*
X113624380Y-90527142D01*
X113672000Y-90431904D01*
X113719619Y-90384285D01*
X113814857Y-90336666D01*
X113957714Y-90336666D01*
X114052952Y-90384285D01*
X114100571Y-90431904D01*
X114148190Y-90527142D01*
X114148190Y-90908095D01*
X113719619Y-89955714D02*
X113672000Y-89908095D01*
X113624380Y-89812857D01*
X113624380Y-89574761D01*
X113672000Y-89479523D01*
X113719619Y-89431904D01*
X113814857Y-89384285D01*
X113910095Y-89384285D01*
X114052952Y-89431904D01*
X114624380Y-90003333D01*
X114624380Y-89384285D01*
D11*
%TO.C,D4*%
X66082758Y-49086724D02*
G75*
G03*
X70386000Y-49404749I2243242J1080724D01*
G01*
X66082758Y-46925276D02*
G75*
G02*
X70386000Y-46607251I2243242J-1080724D01*
G01*
X66643287Y-49086961D02*
G75*
G03*
X70009330Y-49086000I1682713J1080961D01*
G01*
X66643287Y-46925039D02*
G75*
G02*
X70009330Y-46926000I1682713J-1080961D01*
G01*
X70386000Y-49405000D02*
X70386000Y-49086000D01*
X70386000Y-46926000D02*
X70386000Y-46607000D01*
%TO.C,C3*%
X119728064Y-97388000D02*
X118523936Y-97388000D01*
X119728064Y-99208000D02*
X118523936Y-99208000D01*
%TO.C,D3*%
X92298000Y-104830000D02*
X94138000Y-104830000D01*
X94138000Y-105526000D02*
X94138000Y-102246000D01*
X93218000Y-106706000D02*
X93218000Y-105526000D01*
X92298000Y-105070000D02*
X94138000Y-105070000D01*
X92298000Y-104950000D02*
X94138000Y-104950000D01*
X92298000Y-102246000D02*
X92298000Y-105526000D01*
X92298000Y-105526000D02*
X94138000Y-105526000D01*
X94138000Y-102246000D02*
X92298000Y-102246000D01*
X93218000Y-101066000D02*
X93218000Y-102246000D01*
%TO.C,R6*%
X109723422Y-102310000D02*
X110240578Y-102310000D01*
X109723422Y-100890000D02*
X110240578Y-100890000D01*
%TO.C,C2*%
X117240875Y-108668725D02*
X118445003Y-108668725D01*
X117240875Y-110488725D02*
X118445003Y-110488725D01*
%TO.C,R4*%
X135166939Y-104494147D02*
X135166939Y-105011303D01*
X136586939Y-104494147D02*
X136586939Y-105011303D01*
%TO.C,R5*%
X121868000Y-93730578D02*
X121868000Y-93213422D01*
X120448000Y-93730578D02*
X120448000Y-93213422D01*
%TO.C,D1*%
X146638939Y-103123725D02*
X144418939Y-103123725D01*
X146638939Y-108533725D02*
X146638939Y-103123725D01*
X144418939Y-103123725D02*
X144418939Y-108533725D01*
%TO.C,R7*%
X71632578Y-53392000D02*
X71115422Y-53392000D01*
X71632578Y-54812000D02*
X71115422Y-54812000D01*
%TO.C,C4*%
X115143003Y-115822725D02*
X113938875Y-115822725D01*
X115143003Y-114002725D02*
X113938875Y-114002725D01*
%TO.C,D2*%
X129308939Y-90622725D02*
X134718939Y-90622725D01*
X134718939Y-90622725D02*
X134718939Y-88402725D01*
X134718939Y-88402725D02*
X129308939Y-88402725D01*
%TO.C,J1*%
X112508939Y-87320725D02*
X112508939Y-85550725D01*
X120128939Y-83010725D02*
X120128939Y-83270725D01*
X120128939Y-85550725D02*
X120128939Y-87320725D01*
X120128939Y-87320725D02*
X119748939Y-87320725D01*
X112508939Y-87320725D02*
X112888939Y-87320725D01*
X112508939Y-83270725D02*
X112508939Y-83010725D01*
%TO.C,C5*%
X115210000Y-96679936D02*
X115210000Y-97884064D01*
X113390000Y-96679936D02*
X113390000Y-97884064D01*
%TO.C,R1*%
X144185017Y-101652725D02*
X143667861Y-101652725D01*
X144185017Y-100232725D02*
X143667861Y-100232725D01*
%TO.C,C6*%
X106306939Y-109992661D02*
X106306939Y-111196789D01*
X104486939Y-109992661D02*
X104486939Y-111196789D01*
%TO.C,U2*%
X134586939Y-98148725D02*
X134586939Y-96198725D01*
X139706939Y-98148725D02*
X139706939Y-96198725D01*
X139706939Y-98148725D02*
X139706939Y-100098725D01*
X134586939Y-98148725D02*
X134586939Y-101598725D01*
%TO.C,R3*%
X137856939Y-91794147D02*
X137856939Y-92311303D01*
X136436939Y-91794147D02*
X136436939Y-92311303D01*
%TO.C,L1*%
X99324000Y-100866260D02*
G75*
G02*
X99324000Y-95157740I1260000J2854260D01*
G01*
X101844000Y-100866260D02*
G75*
G03*
X101844000Y-95157740I-1260000J2854260D01*
G01*
%TO.C,U1*%
X119212000Y-94118000D02*
X119212000Y-92318000D01*
X115992000Y-92318000D02*
X115992000Y-94768000D01*
%TO.C,C1*%
X140797003Y-106424725D02*
X139592875Y-106424725D01*
X140797003Y-104604725D02*
X139592875Y-104604725D01*
%TO.C,R2*%
X111812000Y-89911422D02*
X111812000Y-90428578D01*
X113232000Y-89911422D02*
X113232000Y-90428578D01*
%TD*%
M02*
