M48
; DRILL file {KiCad (5.99.0-11498-g1a301d8eea)} date Wed Sep  8 01:16:26 2021
; FORMAT={-:-/ absolute / inch / decimal}
; #@! TF.CreationDate,2021-09-08T01:16:26+03:00
; #@! TF.GenerationSoftware,Kicad,Pcbnew,(5.99.0-11498-g1a301d8eea)
; #@! TF.FileFunction,Plated,1,2,PTH
FMAT,2
INCH
; #@! TA.AperFunction,Plated,PTH,ViaDrill
T1C0.0157
; #@! TA.AperFunction,Plated,PTH,ComponentDrill
T2C0.0295
; #@! TA.AperFunction,Plated,PTH,ComponentDrill
T3C0.0354
; #@! TA.AperFunction,Plated,PTH,ComponentDrill
T4C0.0394
; #@! TA.AperFunction,Plated,PTH,ComponentDrill
T5C0.0591
%
G90
G05
T1
X3.33Y-2.86
X3.45Y-4.01
X4.17Y-4.22
X4.27Y-3.63
X4.45Y-3.71
X4.5Y-3.67
X4.53Y-3.98
X4.58Y-3.77
X4.73Y-3.77
X4.79Y-4.04
X5.09Y-3.86
X5.25Y-4.04
X5.47Y-4.05
X5.56Y-3.83
T2
X3.67Y-3.94
X3.67Y-4.24
T3
X2.64Y-1.89
X2.74Y-1.89
T4
X3.96Y-3.78
X3.96Y-3.9375
T5
X3.955Y-4.1641
X4.7617Y-4.1641
T0
M30
