%TF.GenerationSoftware,KiCad,Pcbnew,(5.99.0-11498-g1a301d8eea)*%
%TF.CreationDate,2021-09-07T22:17:03+03:00*%
%TF.ProjectId,f,662e6b69-6361-4645-9f70-636258585858,rev?*%
%TF.SameCoordinates,Original*%
%TF.FileFunction,Legend,Top*%
%TF.FilePolarity,Positive*%
%FSLAX46Y46*%
G04 Gerber Fmt 4.6, Leading zero omitted, Abs format (unit mm)*
G04 Created by KiCad (PCBNEW (5.99.0-11498-g1a301d8eea)) date 2021-09-07 22:17:03*
%MOMM*%
%LPD*%
G01*
G04 APERTURE LIST*
%ADD10C,0.200000*%
%ADD11C,0.150000*%
%ADD12C,0.250000*%
%ADD13C,0.120000*%
G04 APERTURE END LIST*
D10*
X233426000Y-77216000D02*
X234950000Y-75946000D01*
D11*
X235712000Y-46482000D02*
X235712000Y-50038000D01*
X199898000Y-39370000D02*
X200406000Y-40132000D01*
X158750000Y-40132000D02*
X162560000Y-41402000D01*
X235712000Y-50038000D02*
X235204000Y-48768000D01*
X205740000Y-65278000D02*
X206502000Y-66548000D01*
D10*
X233426000Y-77216000D02*
X232410000Y-75438000D01*
D11*
X162560000Y-41402000D02*
X161290000Y-41656000D01*
X162560000Y-41402000D02*
X162306000Y-40386000D01*
X206502000Y-66548000D02*
X205740000Y-65278000D01*
X209550000Y-65786000D02*
X205740000Y-65278000D01*
X202692000Y-39370000D02*
X199898000Y-39370000D01*
X235712000Y-50038000D02*
X236220000Y-48768000D01*
X199898000Y-39370000D02*
X200152000Y-38608000D01*
D10*
X233934000Y-72898000D02*
X233426000Y-77216000D01*
D11*
X205740000Y-65278000D02*
X206248000Y-64516000D01*
X151598380Y-45005523D02*
X152312666Y-45005523D01*
X152455523Y-45053142D01*
X152550761Y-45148380D01*
X152598380Y-45291238D01*
X152598380Y-45386476D01*
X152598380Y-44005523D02*
X152598380Y-44576952D01*
X152598380Y-44291238D02*
X151598380Y-44291238D01*
X151741238Y-44386476D01*
X151836476Y-44481714D01*
X151884095Y-44576952D01*
X151693619Y-43624571D02*
X151646000Y-43576952D01*
X151598380Y-43481714D01*
X151598380Y-43243619D01*
X151646000Y-43148380D01*
X151693619Y-43100761D01*
X151788857Y-43053142D01*
X151884095Y-43053142D01*
X152026952Y-43100761D01*
X152598380Y-43672190D01*
X152598380Y-43053142D01*
D12*
X231457714Y-43308380D02*
X230981523Y-43308380D01*
X230933904Y-43784571D01*
X230981523Y-43736952D01*
X231076761Y-43689333D01*
X231314857Y-43689333D01*
X231410095Y-43736952D01*
X231457714Y-43784571D01*
X231505333Y-43879809D01*
X231505333Y-44117904D01*
X231457714Y-44213142D01*
X231410095Y-44260761D01*
X231314857Y-44308380D01*
X231076761Y-44308380D01*
X230981523Y-44260761D01*
X230933904Y-44213142D01*
X231791047Y-43308380D02*
X232124380Y-44308380D01*
X232457714Y-43308380D01*
X233552952Y-44308380D02*
X233552952Y-43308380D01*
X234029142Y-44308380D02*
X234029142Y-43308380D01*
X234600571Y-44308380D01*
X234600571Y-43308380D01*
X230433904Y-44918380D02*
X231005333Y-44918380D01*
X230719619Y-45918380D02*
X230719619Y-44918380D01*
X231243428Y-45251714D02*
X231481523Y-45918380D01*
X231719619Y-45251714D02*
X231481523Y-45918380D01*
X231386285Y-46156476D01*
X231338666Y-46204095D01*
X231243428Y-46251714D01*
X232100571Y-45251714D02*
X232100571Y-46251714D01*
X232100571Y-45299333D02*
X232195809Y-45251714D01*
X232386285Y-45251714D01*
X232481523Y-45299333D01*
X232529142Y-45346952D01*
X232576761Y-45442190D01*
X232576761Y-45727904D01*
X232529142Y-45823142D01*
X232481523Y-45870761D01*
X232386285Y-45918380D01*
X232195809Y-45918380D01*
X232100571Y-45870761D01*
X233386285Y-45870761D02*
X233291047Y-45918380D01*
X233100571Y-45918380D01*
X233005333Y-45870761D01*
X232957714Y-45775523D01*
X232957714Y-45394571D01*
X233005333Y-45299333D01*
X233100571Y-45251714D01*
X233291047Y-45251714D01*
X233386285Y-45299333D01*
X233433904Y-45394571D01*
X233433904Y-45489809D01*
X232957714Y-45585047D01*
X234576761Y-45632666D02*
X235052952Y-45632666D01*
X234481523Y-45918380D02*
X234814857Y-44918380D01*
X235148190Y-45918380D01*
X232529142Y-46861714D02*
X232529142Y-47528380D01*
X232100571Y-46861714D02*
X232100571Y-47385523D01*
X232148190Y-47480761D01*
X232243428Y-47528380D01*
X232386285Y-47528380D01*
X232481523Y-47480761D01*
X232529142Y-47433142D01*
X232957714Y-47480761D02*
X233052952Y-47528380D01*
X233243428Y-47528380D01*
X233338666Y-47480761D01*
X233386285Y-47385523D01*
X233386285Y-47337904D01*
X233338666Y-47242666D01*
X233243428Y-47195047D01*
X233100571Y-47195047D01*
X233005333Y-47147428D01*
X232957714Y-47052190D01*
X232957714Y-47004571D01*
X233005333Y-46909333D01*
X233100571Y-46861714D01*
X233243428Y-46861714D01*
X233338666Y-46909333D01*
X233814857Y-47528380D02*
X233814857Y-46528380D01*
X233814857Y-46909333D02*
X233910095Y-46861714D01*
X234100571Y-46861714D01*
X234195809Y-46909333D01*
X234243428Y-46956952D01*
X234291047Y-47052190D01*
X234291047Y-47337904D01*
X234243428Y-47433142D01*
X234195809Y-47480761D01*
X234100571Y-47528380D01*
X233910095Y-47528380D01*
X233814857Y-47480761D01*
X233188000Y-71529380D02*
X232616571Y-71529380D01*
X232902285Y-71529380D02*
X232902285Y-70529380D01*
X232807047Y-70672238D01*
X232711809Y-70767476D01*
X232616571Y-70815095D01*
X233568952Y-70624619D02*
X233616571Y-70577000D01*
X233711809Y-70529380D01*
X233949904Y-70529380D01*
X234045142Y-70577000D01*
X234092761Y-70624619D01*
X234140380Y-70719857D01*
X234140380Y-70815095D01*
X234092761Y-70957952D01*
X233521333Y-71529380D01*
X234140380Y-71529380D01*
X234426095Y-70529380D02*
X234759428Y-71529380D01*
X235092761Y-70529380D01*
X232449904Y-73139380D02*
X232449904Y-72139380D01*
X232449904Y-73091761D02*
X232354666Y-73139380D01*
X232164190Y-73139380D01*
X232068952Y-73091761D01*
X232021333Y-73044142D01*
X231973714Y-72948904D01*
X231973714Y-72663190D01*
X232021333Y-72567952D01*
X232068952Y-72520333D01*
X232164190Y-72472714D01*
X232354666Y-72472714D01*
X232449904Y-72520333D01*
X233354666Y-73091761D02*
X233259428Y-73139380D01*
X233068952Y-73139380D01*
X232973714Y-73091761D01*
X232926095Y-73044142D01*
X232878476Y-72948904D01*
X232878476Y-72663190D01*
X232926095Y-72567952D01*
X232973714Y-72520333D01*
X233068952Y-72472714D01*
X233259428Y-72472714D01*
X233354666Y-72520333D01*
X234545142Y-73139380D02*
X234545142Y-72139380D01*
X235021333Y-73139380D02*
X235021333Y-72139380D01*
X235592761Y-73139380D01*
X235592761Y-72139380D01*
D11*
X128842380Y-107044619D02*
X128842380Y-107616047D01*
X128842380Y-107330333D02*
X127842380Y-107330333D01*
X127985238Y-107425571D01*
X128080476Y-107520809D01*
X128128095Y-107616047D01*
X128842380Y-106568428D02*
X128842380Y-106377952D01*
X128794761Y-106282714D01*
X128747142Y-106235095D01*
X128604285Y-106139857D01*
X128413809Y-106092238D01*
X128032857Y-106092238D01*
X127937619Y-106139857D01*
X127890000Y-106187476D01*
X127842380Y-106282714D01*
X127842380Y-106473190D01*
X127890000Y-106568428D01*
X127937619Y-106616047D01*
X128032857Y-106663666D01*
X128270952Y-106663666D01*
X128366190Y-106616047D01*
X128413809Y-106568428D01*
X128461428Y-106473190D01*
X128461428Y-106282714D01*
X128413809Y-106187476D01*
X128366190Y-106139857D01*
X128270952Y-106092238D01*
X128747142Y-105663666D02*
X128794761Y-105616047D01*
X128842380Y-105663666D01*
X128794761Y-105711285D01*
X128747142Y-105663666D01*
X128842380Y-105663666D01*
X127842380Y-104711285D02*
X127842380Y-105187476D01*
X128318571Y-105235095D01*
X128270952Y-105187476D01*
X128223333Y-105092238D01*
X128223333Y-104854142D01*
X128270952Y-104758904D01*
X128318571Y-104711285D01*
X128413809Y-104663666D01*
X128651904Y-104663666D01*
X128747142Y-104711285D01*
X128794761Y-104758904D01*
X128842380Y-104854142D01*
X128842380Y-105092238D01*
X128794761Y-105187476D01*
X128747142Y-105235095D01*
X127842380Y-103758904D02*
X127842380Y-104235095D01*
X128318571Y-104282714D01*
X128270952Y-104235095D01*
X128223333Y-104139857D01*
X128223333Y-103901761D01*
X128270952Y-103806523D01*
X128318571Y-103758904D01*
X128413809Y-103711285D01*
X128651904Y-103711285D01*
X128747142Y-103758904D01*
X128794761Y-103806523D01*
X128842380Y-103901761D01*
X128842380Y-104139857D01*
X128794761Y-104235095D01*
X128747142Y-104282714D01*
X128270952Y-103139857D02*
X128223333Y-103235095D01*
X128175714Y-103282714D01*
X128080476Y-103330333D01*
X128032857Y-103330333D01*
X127937619Y-103282714D01*
X127890000Y-103235095D01*
X127842380Y-103139857D01*
X127842380Y-102949380D01*
X127890000Y-102854142D01*
X127937619Y-102806523D01*
X128032857Y-102758904D01*
X128080476Y-102758904D01*
X128175714Y-102806523D01*
X128223333Y-102854142D01*
X128270952Y-102949380D01*
X128270952Y-103139857D01*
X128318571Y-103235095D01*
X128366190Y-103282714D01*
X128461428Y-103330333D01*
X128651904Y-103330333D01*
X128747142Y-103282714D01*
X128794761Y-103235095D01*
X128842380Y-103139857D01*
X128842380Y-102949380D01*
X128794761Y-102854142D01*
X128747142Y-102806523D01*
X128651904Y-102758904D01*
X128461428Y-102758904D01*
X128366190Y-102806523D01*
X128318571Y-102854142D01*
X128270952Y-102949380D01*
X127842380Y-102139857D02*
X127842380Y-102044619D01*
X127890000Y-101949380D01*
X127937619Y-101901761D01*
X128032857Y-101854142D01*
X128223333Y-101806523D01*
X128461428Y-101806523D01*
X128651904Y-101854142D01*
X128747142Y-101901761D01*
X128794761Y-101949380D01*
X128842380Y-102044619D01*
X128842380Y-102139857D01*
X128794761Y-102235095D01*
X128747142Y-102282714D01*
X128651904Y-102330333D01*
X128461428Y-102377952D01*
X128223333Y-102377952D01*
X128032857Y-102330333D01*
X127937619Y-102282714D01*
X127890000Y-102235095D01*
X127842380Y-102139857D01*
X128842380Y-100616047D02*
X128175714Y-100616047D01*
X128270952Y-100616047D02*
X128223333Y-100568428D01*
X128175714Y-100473190D01*
X128175714Y-100330333D01*
X128223333Y-100235095D01*
X128318571Y-100187476D01*
X128842380Y-100187476D01*
X128318571Y-100187476D02*
X128223333Y-100139857D01*
X128175714Y-100044619D01*
X128175714Y-99901761D01*
X128223333Y-99806523D01*
X128318571Y-99758904D01*
X128842380Y-99758904D01*
X128842380Y-99282714D02*
X128175714Y-99282714D01*
X128270952Y-99282714D02*
X128223333Y-99235095D01*
X128175714Y-99139857D01*
X128175714Y-98997000D01*
X128223333Y-98901761D01*
X128318571Y-98854142D01*
X128842380Y-98854142D01*
X128318571Y-98854142D02*
X128223333Y-98806523D01*
X128175714Y-98711285D01*
X128175714Y-98568428D01*
X128223333Y-98473190D01*
X128318571Y-98425571D01*
X128842380Y-98425571D01*
X134628000Y-93218000D02*
X128953580Y-93218000D01*
X134628000Y-112776000D02*
X128953580Y-112776000D01*
X129540000Y-93218000D02*
X129540000Y-97612476D01*
X129540000Y-108381524D02*
X129540000Y-112776000D01*
X129540000Y-93218000D02*
X128953579Y-94344504D01*
X129540000Y-93218000D02*
X130126421Y-94344504D01*
X129540000Y-112776000D02*
X130126421Y-111649496D01*
X129540000Y-112776000D02*
X128953579Y-111649496D01*
X244682380Y-68484238D02*
X244682380Y-68960428D01*
X245158571Y-69008047D01*
X245110952Y-68960428D01*
X245063333Y-68865190D01*
X245063333Y-68627095D01*
X245110952Y-68531857D01*
X245158571Y-68484238D01*
X245253809Y-68436619D01*
X245491904Y-68436619D01*
X245587142Y-68484238D01*
X245634761Y-68531857D01*
X245682380Y-68627095D01*
X245682380Y-68865190D01*
X245634761Y-68960428D01*
X245587142Y-69008047D01*
X244682380Y-68103285D02*
X244682380Y-67484238D01*
X245063333Y-67817571D01*
X245063333Y-67674714D01*
X245110952Y-67579476D01*
X245158571Y-67531857D01*
X245253809Y-67484238D01*
X245491904Y-67484238D01*
X245587142Y-67531857D01*
X245634761Y-67579476D01*
X245682380Y-67674714D01*
X245682380Y-67960428D01*
X245634761Y-68055666D01*
X245587142Y-68103285D01*
X245587142Y-67055666D02*
X245634761Y-67008047D01*
X245682380Y-67055666D01*
X245634761Y-67103285D01*
X245587142Y-67055666D01*
X245682380Y-67055666D01*
X244682380Y-66103285D02*
X244682380Y-66579476D01*
X245158571Y-66627095D01*
X245110952Y-66579476D01*
X245063333Y-66484238D01*
X245063333Y-66246142D01*
X245110952Y-66150904D01*
X245158571Y-66103285D01*
X245253809Y-66055666D01*
X245491904Y-66055666D01*
X245587142Y-66103285D01*
X245634761Y-66150904D01*
X245682380Y-66246142D01*
X245682380Y-66484238D01*
X245634761Y-66579476D01*
X245587142Y-66627095D01*
X245682380Y-65579476D02*
X245682380Y-65389000D01*
X245634761Y-65293761D01*
X245587142Y-65246142D01*
X245444285Y-65150904D01*
X245253809Y-65103285D01*
X244872857Y-65103285D01*
X244777619Y-65150904D01*
X244730000Y-65198523D01*
X244682380Y-65293761D01*
X244682380Y-65484238D01*
X244730000Y-65579476D01*
X244777619Y-65627095D01*
X244872857Y-65674714D01*
X245110952Y-65674714D01*
X245206190Y-65627095D01*
X245253809Y-65579476D01*
X245301428Y-65484238D01*
X245301428Y-65293761D01*
X245253809Y-65198523D01*
X245206190Y-65150904D01*
X245110952Y-65103285D01*
X245015714Y-64246142D02*
X245682380Y-64246142D01*
X244634761Y-64484238D02*
X245349047Y-64722333D01*
X245349047Y-64103285D01*
X244682380Y-63531857D02*
X244682380Y-63436619D01*
X244730000Y-63341380D01*
X244777619Y-63293761D01*
X244872857Y-63246142D01*
X245063333Y-63198523D01*
X245301428Y-63198523D01*
X245491904Y-63246142D01*
X245587142Y-63293761D01*
X245634761Y-63341380D01*
X245682380Y-63436619D01*
X245682380Y-63531857D01*
X245634761Y-63627095D01*
X245587142Y-63674714D01*
X245491904Y-63722333D01*
X245301428Y-63769952D01*
X245063333Y-63769952D01*
X244872857Y-63722333D01*
X244777619Y-63674714D01*
X244730000Y-63627095D01*
X244682380Y-63531857D01*
X245682380Y-62008047D02*
X245015714Y-62008047D01*
X245110952Y-62008047D02*
X245063333Y-61960428D01*
X245015714Y-61865190D01*
X245015714Y-61722333D01*
X245063333Y-61627095D01*
X245158571Y-61579476D01*
X245682380Y-61579476D01*
X245158571Y-61579476D02*
X245063333Y-61531857D01*
X245015714Y-61436619D01*
X245015714Y-61293761D01*
X245063333Y-61198523D01*
X245158571Y-61150904D01*
X245682380Y-61150904D01*
X245682380Y-60674714D02*
X245015714Y-60674714D01*
X245110952Y-60674714D02*
X245063333Y-60627095D01*
X245015714Y-60531857D01*
X245015714Y-60389000D01*
X245063333Y-60293761D01*
X245158571Y-60246142D01*
X245682380Y-60246142D01*
X245158571Y-60246142D02*
X245063333Y-60198523D01*
X245015714Y-60103285D01*
X245015714Y-59960428D01*
X245063333Y-59865190D01*
X245158571Y-59817571D01*
X245682380Y-59817571D01*
X236212000Y-37592000D02*
X246966420Y-37592000D01*
X236212000Y-91186000D02*
X246966420Y-91186000D01*
X246380000Y-37592000D02*
X246380000Y-59004476D01*
X246380000Y-69773524D02*
X246380000Y-91186000D01*
X246380000Y-37592000D02*
X245793579Y-38718504D01*
X246380000Y-37592000D02*
X246966421Y-38718504D01*
X246380000Y-91186000D02*
X246966421Y-90059496D01*
X246380000Y-91186000D02*
X245793579Y-90059496D01*
X119121660Y-53843658D02*
X119074539Y-53795546D01*
X119027915Y-53699817D01*
X119030395Y-53461735D01*
X119079003Y-53366998D01*
X119127116Y-53319877D01*
X119222845Y-53273253D01*
X119318078Y-53274245D01*
X119460431Y-53323349D01*
X120025876Y-53900699D01*
X120032325Y-53281685D01*
X119374622Y-52417645D02*
X120041253Y-52424589D01*
X118991210Y-52651759D02*
X119702977Y-52897281D01*
X119709425Y-52278267D01*
X119951476Y-51899816D02*
X119999588Y-51852695D01*
X120046709Y-51900808D01*
X119998596Y-51947928D01*
X119951476Y-51899816D01*
X120046709Y-51900808D01*
X119050731Y-51509460D02*
X119057179Y-50890446D01*
X119434639Y-51227729D01*
X119436127Y-51084880D01*
X119484735Y-50990143D01*
X119532848Y-50943022D01*
X119628577Y-50896398D01*
X119866659Y-50898878D01*
X119961396Y-50947486D01*
X120008516Y-50995599D01*
X120055141Y-51091328D01*
X120052165Y-51377026D01*
X120003556Y-51471763D01*
X119955444Y-51518884D01*
X119491679Y-50323512D02*
X119443071Y-50418249D01*
X119394958Y-50465370D01*
X119299229Y-50511994D01*
X119251613Y-50511498D01*
X119156876Y-50462890D01*
X119109756Y-50414777D01*
X119063131Y-50319048D01*
X119065115Y-50128582D01*
X119113724Y-50033845D01*
X119161836Y-49986725D01*
X119257565Y-49940100D01*
X119305181Y-49940596D01*
X119399918Y-49989205D01*
X119447039Y-50037317D01*
X119493663Y-50133046D01*
X119491679Y-50323512D01*
X119538304Y-50419241D01*
X119585424Y-50467354D01*
X119680161Y-50515962D01*
X119870627Y-50517946D01*
X119966356Y-50471322D01*
X120014468Y-50424201D01*
X120063077Y-50329464D01*
X120065061Y-50138998D01*
X120018436Y-50043269D01*
X119971316Y-49995157D01*
X119876579Y-49946548D01*
X119686113Y-49944564D01*
X119590384Y-49991189D01*
X119542272Y-50038309D01*
X119493663Y-50133046D01*
X119076523Y-49033404D02*
X119071563Y-49509568D01*
X119547232Y-49562145D01*
X119500111Y-49514032D01*
X119453487Y-49418303D01*
X119455967Y-49180221D01*
X119504575Y-49085484D01*
X119552688Y-49038364D01*
X119648417Y-48991739D01*
X119886499Y-48994219D01*
X119981236Y-49042828D01*
X120028356Y-49090940D01*
X120074981Y-49186669D01*
X120072501Y-49424751D01*
X120023892Y-49519488D01*
X119975780Y-49566609D01*
X119080491Y-48652472D02*
X119086939Y-48033458D01*
X119464399Y-48370741D01*
X119465887Y-48227892D01*
X119514495Y-48133155D01*
X119562608Y-48086034D01*
X119658337Y-48039410D01*
X119896419Y-48041890D01*
X119991156Y-48090498D01*
X120038277Y-48138611D01*
X120084901Y-48234340D01*
X120081925Y-48520039D01*
X120033317Y-48614776D01*
X119985204Y-48661896D01*
X120099285Y-46853462D02*
X119432655Y-46846518D01*
X119527888Y-46847510D02*
X119480767Y-46799398D01*
X119434143Y-46703669D01*
X119435631Y-46560819D01*
X119484239Y-46466083D01*
X119579968Y-46419458D01*
X120103749Y-46424914D01*
X119579968Y-46419458D02*
X119485231Y-46370850D01*
X119438607Y-46275121D01*
X119440095Y-46132271D01*
X119488703Y-46037534D01*
X119584432Y-45990910D01*
X120108213Y-45996366D01*
X120113173Y-45520201D02*
X119446543Y-45513257D01*
X119541776Y-45514249D02*
X119494655Y-45466137D01*
X119448031Y-45370408D01*
X119449519Y-45227558D01*
X119498127Y-45132822D01*
X119593856Y-45086197D01*
X120117637Y-45091653D01*
X119593856Y-45086197D02*
X119499119Y-45037589D01*
X119452495Y-44941860D01*
X119453983Y-44799010D01*
X119502591Y-44704273D01*
X119598320Y-44657649D01*
X120122101Y-44663105D01*
X148090027Y-37332792D02*
X120312679Y-37043445D01*
X147836027Y-61716792D02*
X120058679Y-61427445D01*
X120899067Y-37049553D02*
X120828153Y-43857321D01*
X120715981Y-54625785D02*
X120645067Y-61433553D01*
X120899067Y-37049553D02*
X120300944Y-38169887D01*
X120899067Y-37049553D02*
X121473722Y-38182104D01*
X120645067Y-61433553D02*
X121243190Y-60313219D01*
X120645067Y-61433553D02*
X120070412Y-60301002D01*
X189907059Y-33247374D02*
X189812104Y-33199192D01*
X189764768Y-33151292D01*
X189717713Y-33055774D01*
X189717995Y-33008156D01*
X189766177Y-32913201D01*
X189814077Y-32865865D01*
X189909595Y-32818810D01*
X190100068Y-32819937D01*
X190195022Y-32868119D01*
X190242359Y-32916019D01*
X190289414Y-33011537D01*
X190289132Y-33059155D01*
X190240950Y-33154110D01*
X190193050Y-33201446D01*
X190097532Y-33248501D01*
X189907059Y-33247374D01*
X189811541Y-33294429D01*
X189763641Y-33341765D01*
X189715459Y-33436720D01*
X189714332Y-33627193D01*
X189761387Y-33722711D01*
X189808723Y-33770611D01*
X189903678Y-33818792D01*
X190094151Y-33819919D01*
X190189669Y-33772865D01*
X190237569Y-33725528D01*
X190285751Y-33630574D01*
X190286878Y-33440101D01*
X190239823Y-33344583D01*
X190192487Y-33296683D01*
X190097532Y-33248501D01*
X191195287Y-32826418D02*
X190719105Y-32823600D01*
X190668669Y-33299500D01*
X190716569Y-33252164D01*
X190812087Y-33205109D01*
X191050178Y-33206518D01*
X191145133Y-33254700D01*
X191192469Y-33302600D01*
X191239524Y-33398118D01*
X191238115Y-33636209D01*
X191189933Y-33731164D01*
X191142033Y-33778500D01*
X191046515Y-33825555D01*
X190808424Y-33824146D01*
X190713469Y-33775964D01*
X190666133Y-33728064D01*
X191666115Y-33733981D02*
X191713452Y-33781881D01*
X191665552Y-33829218D01*
X191618215Y-33781318D01*
X191666115Y-33733981D01*
X191665552Y-33829218D01*
X192287970Y-33261462D02*
X192193015Y-33213280D01*
X192145679Y-33165380D01*
X192098624Y-33069862D01*
X192098906Y-33022244D01*
X192147087Y-32927289D01*
X192194987Y-32879953D01*
X192290506Y-32832898D01*
X192480978Y-32834025D01*
X192575933Y-32882207D01*
X192623270Y-32930107D01*
X192670324Y-33025625D01*
X192670042Y-33073243D01*
X192621861Y-33168198D01*
X192573961Y-33215534D01*
X192478443Y-33262589D01*
X192287970Y-33261462D01*
X192192452Y-33308517D01*
X192144552Y-33355853D01*
X192096370Y-33450808D01*
X192095243Y-33641281D01*
X192142297Y-33736799D01*
X192189634Y-33784699D01*
X192284589Y-33832881D01*
X192475061Y-33834008D01*
X192570580Y-33786953D01*
X192618480Y-33739617D01*
X192666661Y-33644662D01*
X192667788Y-33454189D01*
X192620734Y-33358671D01*
X192573397Y-33310771D01*
X192478443Y-33262589D01*
X193576197Y-32840506D02*
X193100015Y-32837688D01*
X193049579Y-33313589D01*
X193097479Y-33266252D01*
X193192998Y-33219197D01*
X193431089Y-33220606D01*
X193526043Y-33268788D01*
X193573380Y-33316688D01*
X193620434Y-33412206D01*
X193619026Y-33650297D01*
X193570844Y-33745252D01*
X193522944Y-33792588D01*
X193427426Y-33839643D01*
X193189335Y-33838234D01*
X193094380Y-33790052D01*
X193047043Y-33742152D01*
X193957143Y-32842760D02*
X194576180Y-32846423D01*
X194240598Y-33225396D01*
X194383453Y-33226242D01*
X194478408Y-33274423D01*
X194525744Y-33322323D01*
X194572799Y-33417841D01*
X194571390Y-33655932D01*
X194523208Y-33750887D01*
X194475308Y-33798224D01*
X194379790Y-33845278D01*
X194094081Y-33843588D01*
X193999126Y-33795406D01*
X193951790Y-33747506D01*
X195480926Y-32851776D02*
X195004744Y-32848959D01*
X194954308Y-33324859D01*
X195002208Y-33277523D01*
X195097726Y-33230468D01*
X195335817Y-33231877D01*
X195430772Y-33280059D01*
X195478108Y-33327959D01*
X195525163Y-33423477D01*
X195523754Y-33661568D01*
X195475572Y-33756522D01*
X195427672Y-33803859D01*
X195332154Y-33850914D01*
X195094063Y-33849505D01*
X194999108Y-33801323D01*
X194951772Y-33753423D01*
X196713082Y-33859085D02*
X196717027Y-33192430D01*
X196716464Y-33287666D02*
X196764364Y-33240330D01*
X196859882Y-33193275D01*
X197002736Y-33194120D01*
X197097691Y-33242302D01*
X197144746Y-33337820D01*
X197141646Y-33861621D01*
X197144746Y-33337820D02*
X197192928Y-33242866D01*
X197288446Y-33195811D01*
X197431300Y-33196656D01*
X197526255Y-33244838D01*
X197573310Y-33340356D01*
X197570210Y-33864157D01*
X198046392Y-33866974D02*
X198050337Y-33200319D01*
X198049774Y-33295556D02*
X198097674Y-33248219D01*
X198193192Y-33201164D01*
X198336046Y-33202010D01*
X198431001Y-33250192D01*
X198478056Y-33345710D01*
X198474956Y-33869510D01*
X198478056Y-33345710D02*
X198526238Y-33250755D01*
X198621756Y-33203700D01*
X198764610Y-33204546D01*
X198859565Y-33252727D01*
X198906620Y-33348246D01*
X198903520Y-33872046D01*
X151386959Y-36838009D02*
X151405514Y-33702195D01*
X237238959Y-37346009D02*
X237257514Y-34210195D01*
X151402044Y-34288604D02*
X188943615Y-34510743D01*
X199712475Y-34574465D02*
X237254044Y-34796604D01*
X151402044Y-34288604D02*
X152525058Y-34881680D01*
X151402044Y-34288604D02*
X152531998Y-33708859D01*
X237254044Y-34796604D02*
X236131030Y-34203528D01*
X237254044Y-34796604D02*
X236124090Y-35376349D01*
X137747370Y-90030624D02*
X137176047Y-90019637D01*
X137461708Y-90025131D02*
X137480935Y-89025316D01*
X137382968Y-89166315D01*
X137285917Y-89259705D01*
X137189780Y-89305484D01*
X138099869Y-89037218D02*
X138718802Y-89049121D01*
X138378205Y-89423594D01*
X138521036Y-89426341D01*
X138615341Y-89475782D01*
X138662036Y-89524308D01*
X138707815Y-89620444D01*
X138703237Y-89858495D01*
X138653795Y-89952800D01*
X138605270Y-89999495D01*
X138509134Y-90045274D01*
X138223472Y-90039780D01*
X138129167Y-89990339D01*
X138082473Y-89941813D01*
X139129898Y-89961956D02*
X139176593Y-90010482D01*
X139128067Y-90057176D01*
X139081372Y-90008650D01*
X139129898Y-89961956D01*
X139128067Y-90057176D01*
X139573955Y-89160822D02*
X139622481Y-89114127D01*
X139718617Y-89068348D01*
X139956668Y-89072926D01*
X140050973Y-89122367D01*
X140097668Y-89170893D01*
X140143447Y-89267029D01*
X140141616Y-89362250D01*
X140091259Y-89504165D01*
X139508949Y-90064501D01*
X140127882Y-90076403D01*
X141080087Y-90094715D02*
X140508764Y-90083728D01*
X140794425Y-90089222D02*
X140813653Y-89089406D01*
X140715685Y-89230406D01*
X140618634Y-89323795D01*
X140522498Y-89369574D01*
X141718247Y-89106803D02*
X141813468Y-89108634D01*
X141907773Y-89158075D01*
X141954467Y-89206601D01*
X142000246Y-89302737D01*
X142044194Y-89494094D01*
X142039616Y-89732145D01*
X141988344Y-89921670D01*
X141938902Y-90015975D01*
X141890377Y-90062670D01*
X141794240Y-90108449D01*
X141699020Y-90106618D01*
X141604715Y-90057176D01*
X141558020Y-90008650D01*
X141512241Y-89912514D01*
X141468293Y-89721158D01*
X141472871Y-89483107D01*
X141524144Y-89293581D01*
X141573585Y-89199276D01*
X141622111Y-89152582D01*
X141718247Y-89106803D01*
X142902094Y-89462964D02*
X142889276Y-90129507D01*
X142671368Y-89077504D02*
X142419583Y-89787080D01*
X143038516Y-89798982D01*
X144174753Y-90154228D02*
X144187571Y-89487684D01*
X144185740Y-89582905D02*
X144234266Y-89536210D01*
X144330402Y-89490431D01*
X144473232Y-89493178D01*
X144567537Y-89542619D01*
X144613316Y-89638755D01*
X144603245Y-90162468D01*
X144613316Y-89638755D02*
X144662758Y-89544451D01*
X144758894Y-89498671D01*
X144901725Y-89501418D01*
X144996029Y-89550860D01*
X145041809Y-89646996D01*
X145031737Y-90170708D01*
X145507840Y-90179864D02*
X145520658Y-89513321D01*
X145518827Y-89608541D02*
X145567352Y-89561847D01*
X145663488Y-89516068D01*
X145806319Y-89518814D01*
X145900624Y-89568256D01*
X145946403Y-89664392D01*
X145936332Y-90188104D01*
X145946403Y-89664392D02*
X145995845Y-89570087D01*
X146091981Y-89524308D01*
X146234811Y-89527054D01*
X146329116Y-89576496D01*
X146374895Y-89672632D01*
X146364824Y-90196345D01*
X135137614Y-92718092D02*
X135188104Y-90092627D01*
X148345614Y-92972092D02*
X148396104Y-90346627D01*
X135176828Y-90678939D02*
X136397299Y-90702410D01*
X147164357Y-90909468D02*
X148384828Y-90932939D01*
X135176828Y-90678939D02*
X136291848Y-91286911D01*
X135176828Y-90678939D02*
X136314399Y-90114286D01*
X148384828Y-90932939D02*
X147269808Y-90324967D01*
X148384828Y-90932939D02*
X147247257Y-91497592D01*
X133265715Y-28942211D02*
X133313866Y-28895130D01*
X133409633Y-28848584D01*
X133647713Y-28851259D01*
X133742410Y-28899945D01*
X133789491Y-28948096D01*
X133836038Y-29043863D01*
X133834967Y-29139095D01*
X133785746Y-29281408D01*
X133207934Y-29846381D01*
X133826942Y-29853336D01*
X134218036Y-28952911D02*
X134266187Y-28905830D01*
X134361954Y-28859284D01*
X134600034Y-28861959D01*
X134694731Y-28910645D01*
X134741812Y-28958796D01*
X134788358Y-29054563D01*
X134787288Y-29149796D01*
X134738067Y-29292109D01*
X134160255Y-29857081D01*
X134779263Y-29864036D01*
X135208878Y-29773619D02*
X135255959Y-29821770D01*
X135207808Y-29868851D01*
X135160727Y-29820700D01*
X135208878Y-29773619D01*
X135207808Y-29868851D01*
X136123748Y-28879080D02*
X135933283Y-28876940D01*
X135837516Y-28923486D01*
X135789365Y-28970567D01*
X135692528Y-29112345D01*
X135642772Y-29302274D01*
X135638492Y-29683202D01*
X135685038Y-29778969D01*
X135732119Y-29827120D01*
X135826816Y-29875806D01*
X136017280Y-29877946D01*
X136113047Y-29831400D01*
X136161198Y-29784319D01*
X136209884Y-29689622D01*
X136212560Y-29451542D01*
X136166014Y-29355775D01*
X136118932Y-29307624D01*
X136024235Y-29258938D01*
X135833771Y-29256798D01*
X135738004Y-29303344D01*
X135689853Y-29350425D01*
X135641167Y-29445122D01*
X136837988Y-28887105D02*
X136933220Y-28888175D01*
X137027917Y-28936861D01*
X137074998Y-28985012D01*
X137121544Y-29080779D01*
X137167020Y-29271778D01*
X137164345Y-29509858D01*
X137114589Y-29699788D01*
X137065903Y-29794485D01*
X137017752Y-29841566D01*
X136921985Y-29888112D01*
X136826753Y-29887042D01*
X136732056Y-29838356D01*
X136684975Y-29790205D01*
X136638429Y-29694437D01*
X136592953Y-29503438D01*
X136595628Y-29265358D01*
X136645384Y-29075429D01*
X136694070Y-28980732D01*
X136742221Y-28933651D01*
X136837988Y-28887105D01*
X137504613Y-28894595D02*
X138171237Y-28902085D01*
X137731458Y-29897207D01*
X138976965Y-29244493D02*
X138969475Y-29911117D01*
X138743165Y-28860889D02*
X138497060Y-29572455D01*
X139116068Y-29579410D01*
X140255108Y-29925562D02*
X140262598Y-29258938D01*
X140261528Y-29354170D02*
X140309679Y-29307089D01*
X140405446Y-29260543D01*
X140548294Y-29262148D01*
X140642991Y-29310834D01*
X140689537Y-29406601D01*
X140683652Y-29930378D01*
X140689537Y-29406601D02*
X140738224Y-29311904D01*
X140833991Y-29265358D01*
X140976839Y-29266963D01*
X141071536Y-29315649D01*
X141118082Y-29411416D01*
X141112197Y-29935193D01*
X141588357Y-29940543D02*
X141595847Y-29273918D01*
X141594777Y-29369150D02*
X141642928Y-29322069D01*
X141738695Y-29275523D01*
X141881544Y-29277128D01*
X141976241Y-29325814D01*
X142022787Y-29421581D01*
X142016902Y-29945358D01*
X142022787Y-29421581D02*
X142071473Y-29326884D01*
X142167240Y-29280338D01*
X142310088Y-29281943D01*
X142404785Y-29330629D01*
X142451331Y-29426397D01*
X142445446Y-29950173D01*
X149103618Y-36584032D02*
X149176057Y-30137005D01*
X126497618Y-36330032D02*
X126570057Y-29883005D01*
X149169468Y-30723387D02*
X143250653Y-30656883D01*
X132482284Y-30535891D02*
X126563468Y-30469387D01*
X149169468Y-30723387D02*
X148049624Y-30124347D01*
X149169468Y-30723387D02*
X148036447Y-31297114D01*
X126563468Y-30469387D02*
X127683312Y-31068427D01*
X126563468Y-30469387D02*
X127696489Y-29895660D01*
%TO.C,J4*%
X153082666Y-85050380D02*
X153082666Y-85764666D01*
X153035047Y-85907523D01*
X152939809Y-86002761D01*
X152796952Y-86050380D01*
X152701714Y-86050380D01*
X153987428Y-85383714D02*
X153987428Y-86050380D01*
X153749333Y-85002761D02*
X153511238Y-85717047D01*
X154130285Y-85717047D01*
%TO.C,H*%
X137382285Y-111450380D02*
X137382285Y-110450380D01*
X137382285Y-110926571D02*
X137953714Y-110926571D01*
X137953714Y-111450380D02*
X137953714Y-110450380D01*
%TO.C,J19*%
X199128476Y-85312380D02*
X199128476Y-86026666D01*
X199080857Y-86169523D01*
X198985619Y-86264761D01*
X198842761Y-86312380D01*
X198747523Y-86312380D01*
X200128476Y-86312380D02*
X199557047Y-86312380D01*
X199842761Y-86312380D02*
X199842761Y-85312380D01*
X199747523Y-85455238D01*
X199652285Y-85550476D01*
X199557047Y-85598095D01*
X200604666Y-86312380D02*
X200795142Y-86312380D01*
X200890380Y-86264761D01*
X200938000Y-86217142D01*
X201033238Y-86074285D01*
X201080857Y-85883809D01*
X201080857Y-85502857D01*
X201033238Y-85407619D01*
X200985619Y-85360000D01*
X200890380Y-85312380D01*
X200699904Y-85312380D01*
X200604666Y-85360000D01*
X200557047Y-85407619D01*
X200509428Y-85502857D01*
X200509428Y-85740952D01*
X200557047Y-85836190D01*
X200604666Y-85883809D01*
X200699904Y-85931428D01*
X200890380Y-85931428D01*
X200985619Y-85883809D01*
X201033238Y-85836190D01*
X201080857Y-85740952D01*
%TO.C,J6*%
X152614380Y-39703333D02*
X153328666Y-39703333D01*
X153471523Y-39750952D01*
X153566761Y-39846190D01*
X153614380Y-39989047D01*
X153614380Y-40084285D01*
X152614380Y-38798571D02*
X152614380Y-38989047D01*
X152662000Y-39084285D01*
X152709619Y-39131904D01*
X152852476Y-39227142D01*
X153042952Y-39274761D01*
X153423904Y-39274761D01*
X153519142Y-39227142D01*
X153566761Y-39179523D01*
X153614380Y-39084285D01*
X153614380Y-38893809D01*
X153566761Y-38798571D01*
X153519142Y-38750952D01*
X153423904Y-38703333D01*
X153185809Y-38703333D01*
X153090571Y-38750952D01*
X153042952Y-38798571D01*
X152995333Y-38893809D01*
X152995333Y-39084285D01*
X153042952Y-39179523D01*
X153090571Y-39227142D01*
X153185809Y-39274761D01*
%TO.C,H*%
X168624285Y-111704380D02*
X168624285Y-110704380D01*
X168624285Y-111180571D02*
X169195714Y-111180571D01*
X169195714Y-111704380D02*
X169195714Y-110704380D01*
%TO.C,J21*%
X209502476Y-64984380D02*
X209502476Y-65698666D01*
X209454857Y-65841523D01*
X209359619Y-65936761D01*
X209216761Y-65984380D01*
X209121523Y-65984380D01*
X209931047Y-65079619D02*
X209978666Y-65032000D01*
X210073904Y-64984380D01*
X210312000Y-64984380D01*
X210407238Y-65032000D01*
X210454857Y-65079619D01*
X210502476Y-65174857D01*
X210502476Y-65270095D01*
X210454857Y-65412952D01*
X209883428Y-65984380D01*
X210502476Y-65984380D01*
X211454857Y-65984380D02*
X210883428Y-65984380D01*
X211169142Y-65984380D02*
X211169142Y-64984380D01*
X211073904Y-65127238D01*
X210978666Y-65222476D01*
X210883428Y-65270095D01*
%TO.C,R6*%
X183221333Y-40076380D02*
X182888000Y-39600190D01*
X182649904Y-40076380D02*
X182649904Y-39076380D01*
X183030857Y-39076380D01*
X183126095Y-39124000D01*
X183173714Y-39171619D01*
X183221333Y-39266857D01*
X183221333Y-39409714D01*
X183173714Y-39504952D01*
X183126095Y-39552571D01*
X183030857Y-39600190D01*
X182649904Y-39600190D01*
X184078476Y-39076380D02*
X183888000Y-39076380D01*
X183792761Y-39124000D01*
X183745142Y-39171619D01*
X183649904Y-39314476D01*
X183602285Y-39504952D01*
X183602285Y-39885904D01*
X183649904Y-39981142D01*
X183697523Y-40028761D01*
X183792761Y-40076380D01*
X183983238Y-40076380D01*
X184078476Y-40028761D01*
X184126095Y-39981142D01*
X184173714Y-39885904D01*
X184173714Y-39647809D01*
X184126095Y-39552571D01*
X184078476Y-39504952D01*
X183983238Y-39457333D01*
X183792761Y-39457333D01*
X183697523Y-39504952D01*
X183649904Y-39552571D01*
X183602285Y-39647809D01*
%TO.C,D12*%
X233989714Y-109838380D02*
X233989714Y-108838380D01*
X234227809Y-108838380D01*
X234370666Y-108886000D01*
X234465904Y-108981238D01*
X234513523Y-109076476D01*
X234561142Y-109266952D01*
X234561142Y-109409809D01*
X234513523Y-109600285D01*
X234465904Y-109695523D01*
X234370666Y-109790761D01*
X234227809Y-109838380D01*
X233989714Y-109838380D01*
X235513523Y-109838380D02*
X234942095Y-109838380D01*
X235227809Y-109838380D02*
X235227809Y-108838380D01*
X235132571Y-108981238D01*
X235037333Y-109076476D01*
X234942095Y-109124095D01*
X235894476Y-108933619D02*
X235942095Y-108886000D01*
X236037333Y-108838380D01*
X236275428Y-108838380D01*
X236370666Y-108886000D01*
X236418285Y-108933619D01*
X236465904Y-109028857D01*
X236465904Y-109124095D01*
X236418285Y-109266952D01*
X235846857Y-109838380D01*
X236465904Y-109838380D01*
%TO.C,D9*%
X176299904Y-110180380D02*
X176299904Y-109180380D01*
X176538000Y-109180380D01*
X176680857Y-109228000D01*
X176776095Y-109323238D01*
X176823714Y-109418476D01*
X176871333Y-109608952D01*
X176871333Y-109751809D01*
X176823714Y-109942285D01*
X176776095Y-110037523D01*
X176680857Y-110132761D01*
X176538000Y-110180380D01*
X176299904Y-110180380D01*
X177347523Y-110180380D02*
X177538000Y-110180380D01*
X177633238Y-110132761D01*
X177680857Y-110085142D01*
X177776095Y-109942285D01*
X177823714Y-109751809D01*
X177823714Y-109370857D01*
X177776095Y-109275619D01*
X177728476Y-109228000D01*
X177633238Y-109180380D01*
X177442761Y-109180380D01*
X177347523Y-109228000D01*
X177299904Y-109275619D01*
X177252285Y-109370857D01*
X177252285Y-109608952D01*
X177299904Y-109704190D01*
X177347523Y-109751809D01*
X177442761Y-109799428D01*
X177633238Y-109799428D01*
X177728476Y-109751809D01*
X177776095Y-109704190D01*
X177823714Y-109608952D01*
%TO.C,R21*%
X139423142Y-72873380D02*
X139089809Y-72397190D01*
X138851714Y-72873380D02*
X138851714Y-71873380D01*
X139232666Y-71873380D01*
X139327904Y-71921000D01*
X139375523Y-71968619D01*
X139423142Y-72063857D01*
X139423142Y-72206714D01*
X139375523Y-72301952D01*
X139327904Y-72349571D01*
X139232666Y-72397190D01*
X138851714Y-72397190D01*
X139804095Y-71968619D02*
X139851714Y-71921000D01*
X139946952Y-71873380D01*
X140185047Y-71873380D01*
X140280285Y-71921000D01*
X140327904Y-71968619D01*
X140375523Y-72063857D01*
X140375523Y-72159095D01*
X140327904Y-72301952D01*
X139756476Y-72873380D01*
X140375523Y-72873380D01*
X141327904Y-72873380D02*
X140756476Y-72873380D01*
X141042190Y-72873380D02*
X141042190Y-71873380D01*
X140946952Y-72016238D01*
X140851714Y-72111476D01*
X140756476Y-72159095D01*
%TO.C,D19*%
X183840380Y-103576285D02*
X182840380Y-103576285D01*
X182840380Y-103338190D01*
X182888000Y-103195333D01*
X182983238Y-103100095D01*
X183078476Y-103052476D01*
X183268952Y-103004857D01*
X183411809Y-103004857D01*
X183602285Y-103052476D01*
X183697523Y-103100095D01*
X183792761Y-103195333D01*
X183840380Y-103338190D01*
X183840380Y-103576285D01*
X183840380Y-102052476D02*
X183840380Y-102623904D01*
X183840380Y-102338190D02*
X182840380Y-102338190D01*
X182983238Y-102433428D01*
X183078476Y-102528666D01*
X183126095Y-102623904D01*
X183840380Y-101576285D02*
X183840380Y-101385809D01*
X183792761Y-101290571D01*
X183745142Y-101242952D01*
X183602285Y-101147714D01*
X183411809Y-101100095D01*
X183030857Y-101100095D01*
X182935619Y-101147714D01*
X182888000Y-101195333D01*
X182840380Y-101290571D01*
X182840380Y-101481047D01*
X182888000Y-101576285D01*
X182935619Y-101623904D01*
X183030857Y-101671523D01*
X183268952Y-101671523D01*
X183364190Y-101623904D01*
X183411809Y-101576285D01*
X183459428Y-101481047D01*
X183459428Y-101290571D01*
X183411809Y-101195333D01*
X183364190Y-101147714D01*
X183268952Y-101100095D01*
%TO.C,C7*%
X167133142Y-57316666D02*
X167180761Y-57364285D01*
X167228380Y-57507142D01*
X167228380Y-57602380D01*
X167180761Y-57745238D01*
X167085523Y-57840476D01*
X166990285Y-57888095D01*
X166799809Y-57935714D01*
X166656952Y-57935714D01*
X166466476Y-57888095D01*
X166371238Y-57840476D01*
X166276000Y-57745238D01*
X166228380Y-57602380D01*
X166228380Y-57507142D01*
X166276000Y-57364285D01*
X166323619Y-57316666D01*
X166228380Y-56983333D02*
X166228380Y-56316666D01*
X167228380Y-56745238D01*
%TO.C,J5*%
X141104666Y-93426380D02*
X141104666Y-94140666D01*
X141057047Y-94283523D01*
X140961809Y-94378761D01*
X140818952Y-94426380D01*
X140723714Y-94426380D01*
X142057047Y-93426380D02*
X141580857Y-93426380D01*
X141533238Y-93902571D01*
X141580857Y-93854952D01*
X141676095Y-93807333D01*
X141914190Y-93807333D01*
X142009428Y-93854952D01*
X142057047Y-93902571D01*
X142104666Y-93997809D01*
X142104666Y-94235904D01*
X142057047Y-94331142D01*
X142009428Y-94378761D01*
X141914190Y-94426380D01*
X141676095Y-94426380D01*
X141580857Y-94378761D01*
X141533238Y-94331142D01*
%TO.C,D25*%
X211604380Y-75636285D02*
X210604380Y-75636285D01*
X210604380Y-75398190D01*
X210652000Y-75255333D01*
X210747238Y-75160095D01*
X210842476Y-75112476D01*
X211032952Y-75064857D01*
X211175809Y-75064857D01*
X211366285Y-75112476D01*
X211461523Y-75160095D01*
X211556761Y-75255333D01*
X211604380Y-75398190D01*
X211604380Y-75636285D01*
X210699619Y-74683904D02*
X210652000Y-74636285D01*
X210604380Y-74541047D01*
X210604380Y-74302952D01*
X210652000Y-74207714D01*
X210699619Y-74160095D01*
X210794857Y-74112476D01*
X210890095Y-74112476D01*
X211032952Y-74160095D01*
X211604380Y-74731523D01*
X211604380Y-74112476D01*
X210604380Y-73207714D02*
X210604380Y-73683904D01*
X211080571Y-73731523D01*
X211032952Y-73683904D01*
X210985333Y-73588666D01*
X210985333Y-73350571D01*
X211032952Y-73255333D01*
X211080571Y-73207714D01*
X211175809Y-73160095D01*
X211413904Y-73160095D01*
X211509142Y-73207714D01*
X211556761Y-73255333D01*
X211604380Y-73350571D01*
X211604380Y-73588666D01*
X211556761Y-73683904D01*
X211509142Y-73731523D01*
X212174380Y-79763904D02*
X211174380Y-79763904D01*
X212174380Y-79192476D02*
X211602952Y-79621047D01*
X211174380Y-79192476D02*
X211745809Y-79763904D01*
%TO.C,R14*%
X178506380Y-102750857D02*
X178030190Y-103084190D01*
X178506380Y-103322285D02*
X177506380Y-103322285D01*
X177506380Y-102941333D01*
X177554000Y-102846095D01*
X177601619Y-102798476D01*
X177696857Y-102750857D01*
X177839714Y-102750857D01*
X177934952Y-102798476D01*
X177982571Y-102846095D01*
X178030190Y-102941333D01*
X178030190Y-103322285D01*
X178506380Y-101798476D02*
X178506380Y-102369904D01*
X178506380Y-102084190D02*
X177506380Y-102084190D01*
X177649238Y-102179428D01*
X177744476Y-102274666D01*
X177792095Y-102369904D01*
X177839714Y-100941333D02*
X178506380Y-100941333D01*
X177458761Y-101179428D02*
X178173047Y-101417523D01*
X178173047Y-100798476D01*
%TO.C,D26*%
X143304380Y-66746285D02*
X142304380Y-66746285D01*
X142304380Y-66508190D01*
X142352000Y-66365333D01*
X142447238Y-66270095D01*
X142542476Y-66222476D01*
X142732952Y-66174857D01*
X142875809Y-66174857D01*
X143066285Y-66222476D01*
X143161523Y-66270095D01*
X143256761Y-66365333D01*
X143304380Y-66508190D01*
X143304380Y-66746285D01*
X142399619Y-65793904D02*
X142352000Y-65746285D01*
X142304380Y-65651047D01*
X142304380Y-65412952D01*
X142352000Y-65317714D01*
X142399619Y-65270095D01*
X142494857Y-65222476D01*
X142590095Y-65222476D01*
X142732952Y-65270095D01*
X143304380Y-65841523D01*
X143304380Y-65222476D01*
X142304380Y-64365333D02*
X142304380Y-64555809D01*
X142352000Y-64651047D01*
X142399619Y-64698666D01*
X142542476Y-64793904D01*
X142732952Y-64841523D01*
X143113904Y-64841523D01*
X143209142Y-64793904D01*
X143256761Y-64746285D01*
X143304380Y-64651047D01*
X143304380Y-64460571D01*
X143256761Y-64365333D01*
X143209142Y-64317714D01*
X143113904Y-64270095D01*
X142875809Y-64270095D01*
X142780571Y-64317714D01*
X142732952Y-64365333D01*
X142685333Y-64460571D01*
X142685333Y-64651047D01*
X142732952Y-64746285D01*
X142780571Y-64793904D01*
X142875809Y-64841523D01*
%TO.C,RV1*%
X158154761Y-39568380D02*
X157821428Y-39092190D01*
X157583333Y-39568380D02*
X157583333Y-38568380D01*
X157964285Y-38568380D01*
X158059523Y-38616000D01*
X158107142Y-38663619D01*
X158154761Y-38758857D01*
X158154761Y-38901714D01*
X158107142Y-38996952D01*
X158059523Y-39044571D01*
X157964285Y-39092190D01*
X157583333Y-39092190D01*
X158440476Y-38568380D02*
X158773809Y-39568380D01*
X159107142Y-38568380D01*
X159964285Y-39568380D02*
X159392857Y-39568380D01*
X159678571Y-39568380D02*
X159678571Y-38568380D01*
X159583333Y-38711238D01*
X159488095Y-38806476D01*
X159392857Y-38854095D01*
%TO.C,H*%
X197580285Y-111704380D02*
X197580285Y-110704380D01*
X197580285Y-111180571D02*
X198151714Y-111180571D01*
X198151714Y-111704380D02*
X198151714Y-110704380D01*
X227552285Y-112466380D02*
X227552285Y-111466380D01*
X227552285Y-111942571D02*
X228123714Y-111942571D01*
X228123714Y-112466380D02*
X228123714Y-111466380D01*
%TO.C,D14*%
X136199714Y-110180380D02*
X136199714Y-109180380D01*
X136437809Y-109180380D01*
X136580666Y-109228000D01*
X136675904Y-109323238D01*
X136723523Y-109418476D01*
X136771142Y-109608952D01*
X136771142Y-109751809D01*
X136723523Y-109942285D01*
X136675904Y-110037523D01*
X136580666Y-110132761D01*
X136437809Y-110180380D01*
X136199714Y-110180380D01*
X137723523Y-110180380D02*
X137152095Y-110180380D01*
X137437809Y-110180380D02*
X137437809Y-109180380D01*
X137342571Y-109323238D01*
X137247333Y-109418476D01*
X137152095Y-109466095D01*
X138580666Y-109513714D02*
X138580666Y-110180380D01*
X138342571Y-109132761D02*
X138104476Y-109847047D01*
X138723523Y-109847047D01*
%TO.C,R17*%
X237052380Y-102750857D02*
X236576190Y-103084190D01*
X237052380Y-103322285D02*
X236052380Y-103322285D01*
X236052380Y-102941333D01*
X236100000Y-102846095D01*
X236147619Y-102798476D01*
X236242857Y-102750857D01*
X236385714Y-102750857D01*
X236480952Y-102798476D01*
X236528571Y-102846095D01*
X236576190Y-102941333D01*
X236576190Y-103322285D01*
X237052380Y-101798476D02*
X237052380Y-102369904D01*
X237052380Y-102084190D02*
X236052380Y-102084190D01*
X236195238Y-102179428D01*
X236290476Y-102274666D01*
X236338095Y-102369904D01*
X236052380Y-101465142D02*
X236052380Y-100798476D01*
X237052380Y-101227047D01*
%TO.C,D24*%
X226280380Y-57856285D02*
X225280380Y-57856285D01*
X225280380Y-57618190D01*
X225328000Y-57475333D01*
X225423238Y-57380095D01*
X225518476Y-57332476D01*
X225708952Y-57284857D01*
X225851809Y-57284857D01*
X226042285Y-57332476D01*
X226137523Y-57380095D01*
X226232761Y-57475333D01*
X226280380Y-57618190D01*
X226280380Y-57856285D01*
X225375619Y-56903904D02*
X225328000Y-56856285D01*
X225280380Y-56761047D01*
X225280380Y-56522952D01*
X225328000Y-56427714D01*
X225375619Y-56380095D01*
X225470857Y-56332476D01*
X225566095Y-56332476D01*
X225708952Y-56380095D01*
X226280380Y-56951523D01*
X226280380Y-56332476D01*
X225613714Y-55475333D02*
X226280380Y-55475333D01*
X225232761Y-55713428D02*
X225947047Y-55951523D01*
X225947047Y-55332476D01*
%TO.C,J14*%
X187658476Y-93432380D02*
X187658476Y-94146666D01*
X187610857Y-94289523D01*
X187515619Y-94384761D01*
X187372761Y-94432380D01*
X187277523Y-94432380D01*
X188658476Y-94432380D02*
X188087047Y-94432380D01*
X188372761Y-94432380D02*
X188372761Y-93432380D01*
X188277523Y-93575238D01*
X188182285Y-93670476D01*
X188087047Y-93718095D01*
X189515619Y-93765714D02*
X189515619Y-94432380D01*
X189277523Y-93384761D02*
X189039428Y-94099047D01*
X189658476Y-94099047D01*
%TO.C,R10*%
X139740642Y-52774380D02*
X139407309Y-52298190D01*
X139169214Y-52774380D02*
X139169214Y-51774380D01*
X139550166Y-51774380D01*
X139645404Y-51822000D01*
X139693023Y-51869619D01*
X139740642Y-51964857D01*
X139740642Y-52107714D01*
X139693023Y-52202952D01*
X139645404Y-52250571D01*
X139550166Y-52298190D01*
X139169214Y-52298190D01*
X140693023Y-52774380D02*
X140121595Y-52774380D01*
X140407309Y-52774380D02*
X140407309Y-51774380D01*
X140312071Y-51917238D01*
X140216833Y-52012476D01*
X140121595Y-52060095D01*
X141312071Y-51774380D02*
X141407309Y-51774380D01*
X141502547Y-51822000D01*
X141550166Y-51869619D01*
X141597785Y-51964857D01*
X141645404Y-52155333D01*
X141645404Y-52393428D01*
X141597785Y-52583904D01*
X141550166Y-52679142D01*
X141502547Y-52726761D01*
X141407309Y-52774380D01*
X141312071Y-52774380D01*
X141216833Y-52726761D01*
X141169214Y-52679142D01*
X141121595Y-52583904D01*
X141073976Y-52393428D01*
X141073976Y-52155333D01*
X141121595Y-51964857D01*
X141169214Y-51869619D01*
X141216833Y-51822000D01*
X141312071Y-51774380D01*
%TO.C,R5*%
X177887333Y-47062380D02*
X177554000Y-46586190D01*
X177315904Y-47062380D02*
X177315904Y-46062380D01*
X177696857Y-46062380D01*
X177792095Y-46110000D01*
X177839714Y-46157619D01*
X177887333Y-46252857D01*
X177887333Y-46395714D01*
X177839714Y-46490952D01*
X177792095Y-46538571D01*
X177696857Y-46586190D01*
X177315904Y-46586190D01*
X178792095Y-46062380D02*
X178315904Y-46062380D01*
X178268285Y-46538571D01*
X178315904Y-46490952D01*
X178411142Y-46443333D01*
X178649238Y-46443333D01*
X178744476Y-46490952D01*
X178792095Y-46538571D01*
X178839714Y-46633809D01*
X178839714Y-46871904D01*
X178792095Y-46967142D01*
X178744476Y-47014761D01*
X178649238Y-47062380D01*
X178411142Y-47062380D01*
X178315904Y-47014761D01*
X178268285Y-46967142D01*
%TO.C,J11*%
X131278380Y-82343523D02*
X131992666Y-82343523D01*
X132135523Y-82391142D01*
X132230761Y-82486380D01*
X132278380Y-82629238D01*
X132278380Y-82724476D01*
X132278380Y-81343523D02*
X132278380Y-81914952D01*
X132278380Y-81629238D02*
X131278380Y-81629238D01*
X131421238Y-81724476D01*
X131516476Y-81819714D01*
X131564095Y-81914952D01*
X132278380Y-80391142D02*
X132278380Y-80962571D01*
X132278380Y-80676857D02*
X131278380Y-80676857D01*
X131421238Y-80772095D01*
X131516476Y-80867333D01*
X131564095Y-80962571D01*
%TO.C,U2*%
X209804095Y-39232380D02*
X209804095Y-40041904D01*
X209851714Y-40137142D01*
X209899333Y-40184761D01*
X209994571Y-40232380D01*
X210185047Y-40232380D01*
X210280285Y-40184761D01*
X210327904Y-40137142D01*
X210375523Y-40041904D01*
X210375523Y-39232380D01*
X210804095Y-39327619D02*
X210851714Y-39280000D01*
X210946952Y-39232380D01*
X211185047Y-39232380D01*
X211280285Y-39280000D01*
X211327904Y-39327619D01*
X211375523Y-39422857D01*
X211375523Y-39518095D01*
X211327904Y-39660952D01*
X210756476Y-40232380D01*
X211375523Y-40232380D01*
%TO.C,SW1*%
X221892761Y-90233333D02*
X221940380Y-90090476D01*
X221940380Y-89852380D01*
X221892761Y-89757142D01*
X221845142Y-89709523D01*
X221749904Y-89661904D01*
X221654666Y-89661904D01*
X221559428Y-89709523D01*
X221511809Y-89757142D01*
X221464190Y-89852380D01*
X221416571Y-90042857D01*
X221368952Y-90138095D01*
X221321333Y-90185714D01*
X221226095Y-90233333D01*
X221130857Y-90233333D01*
X221035619Y-90185714D01*
X220988000Y-90138095D01*
X220940380Y-90042857D01*
X220940380Y-89804761D01*
X220988000Y-89661904D01*
X220940380Y-89328571D02*
X221940380Y-89090476D01*
X221226095Y-88900000D01*
X221940380Y-88709523D01*
X220940380Y-88471428D01*
X221940380Y-87566666D02*
X221940380Y-88138095D01*
X221940380Y-87852380D02*
X220940380Y-87852380D01*
X221083238Y-87947619D01*
X221178476Y-88042857D01*
X221226095Y-88138095D01*
%TO.C,J2*%
X223300380Y-85169333D02*
X224014666Y-85169333D01*
X224157523Y-85216952D01*
X224252761Y-85312190D01*
X224300380Y-85455047D01*
X224300380Y-85550285D01*
X223395619Y-84740761D02*
X223348000Y-84693142D01*
X223300380Y-84597904D01*
X223300380Y-84359809D01*
X223348000Y-84264571D01*
X223395619Y-84216952D01*
X223490857Y-84169333D01*
X223586095Y-84169333D01*
X223728952Y-84216952D01*
X224300380Y-84788380D01*
X224300380Y-84169333D01*
%TO.C,H*%
X212566285Y-112212380D02*
X212566285Y-111212380D01*
X212566285Y-111688571D02*
X213137714Y-111688571D01*
X213137714Y-112212380D02*
X213137714Y-111212380D01*
%TO.C,R3*%
X217335833Y-42742380D02*
X217002500Y-42266190D01*
X216764404Y-42742380D02*
X216764404Y-41742380D01*
X217145357Y-41742380D01*
X217240595Y-41790000D01*
X217288214Y-41837619D01*
X217335833Y-41932857D01*
X217335833Y-42075714D01*
X217288214Y-42170952D01*
X217240595Y-42218571D01*
X217145357Y-42266190D01*
X216764404Y-42266190D01*
X217669166Y-41742380D02*
X218288214Y-41742380D01*
X217954880Y-42123333D01*
X218097738Y-42123333D01*
X218192976Y-42170952D01*
X218240595Y-42218571D01*
X218288214Y-42313809D01*
X218288214Y-42551904D01*
X218240595Y-42647142D01*
X218192976Y-42694761D01*
X218097738Y-42742380D01*
X217812023Y-42742380D01*
X217716785Y-42694761D01*
X217669166Y-42647142D01*
%TO.C,J15*%
X201628476Y-93432380D02*
X201628476Y-94146666D01*
X201580857Y-94289523D01*
X201485619Y-94384761D01*
X201342761Y-94432380D01*
X201247523Y-94432380D01*
X202628476Y-94432380D02*
X202057047Y-94432380D01*
X202342761Y-94432380D02*
X202342761Y-93432380D01*
X202247523Y-93575238D01*
X202152285Y-93670476D01*
X202057047Y-93718095D01*
X203533238Y-93432380D02*
X203057047Y-93432380D01*
X203009428Y-93908571D01*
X203057047Y-93860952D01*
X203152285Y-93813333D01*
X203390380Y-93813333D01*
X203485619Y-93860952D01*
X203533238Y-93908571D01*
X203580857Y-94003809D01*
X203580857Y-94241904D01*
X203533238Y-94337142D01*
X203485619Y-94384761D01*
X203390380Y-94432380D01*
X203152285Y-94432380D01*
X203057047Y-94384761D01*
X203009428Y-94337142D01*
%TO.C,D1*%
X226591904Y-47166380D02*
X226591904Y-46166380D01*
X226830000Y-46166380D01*
X226972857Y-46214000D01*
X227068095Y-46309238D01*
X227115714Y-46404476D01*
X227163333Y-46594952D01*
X227163333Y-46737809D01*
X227115714Y-46928285D01*
X227068095Y-47023523D01*
X226972857Y-47118761D01*
X226830000Y-47166380D01*
X226591904Y-47166380D01*
X228115714Y-47166380D02*
X227544285Y-47166380D01*
X227830000Y-47166380D02*
X227830000Y-46166380D01*
X227734761Y-46309238D01*
X227639523Y-46404476D01*
X227544285Y-46452095D01*
%TO.C,D3*%
X191793904Y-62936380D02*
X191793904Y-61936380D01*
X192032000Y-61936380D01*
X192174857Y-61984000D01*
X192270095Y-62079238D01*
X192317714Y-62174476D01*
X192365333Y-62364952D01*
X192365333Y-62507809D01*
X192317714Y-62698285D01*
X192270095Y-62793523D01*
X192174857Y-62888761D01*
X192032000Y-62936380D01*
X191793904Y-62936380D01*
X192698666Y-61936380D02*
X193317714Y-61936380D01*
X192984380Y-62317333D01*
X193127238Y-62317333D01*
X193222476Y-62364952D01*
X193270095Y-62412571D01*
X193317714Y-62507809D01*
X193317714Y-62745904D01*
X193270095Y-62841142D01*
X193222476Y-62888761D01*
X193127238Y-62936380D01*
X192841523Y-62936380D01*
X192746285Y-62888761D01*
X192698666Y-62841142D01*
X204975095Y-63416380D02*
X204975095Y-62416380D01*
X205546523Y-63416380D02*
X205117952Y-62844952D01*
X205546523Y-62416380D02*
X204975095Y-62987809D01*
%TO.C,H*%
X131032285Y-75128380D02*
X131032285Y-74128380D01*
X131032285Y-74604571D02*
X131603714Y-74604571D01*
X131603714Y-75128380D02*
X131603714Y-74128380D01*
%TO.C,R27*%
X139408142Y-48202380D02*
X139074809Y-47726190D01*
X138836714Y-48202380D02*
X138836714Y-47202380D01*
X139217666Y-47202380D01*
X139312904Y-47250000D01*
X139360523Y-47297619D01*
X139408142Y-47392857D01*
X139408142Y-47535714D01*
X139360523Y-47630952D01*
X139312904Y-47678571D01*
X139217666Y-47726190D01*
X138836714Y-47726190D01*
X139789095Y-47297619D02*
X139836714Y-47250000D01*
X139931952Y-47202380D01*
X140170047Y-47202380D01*
X140265285Y-47250000D01*
X140312904Y-47297619D01*
X140360523Y-47392857D01*
X140360523Y-47488095D01*
X140312904Y-47630952D01*
X139741476Y-48202380D01*
X140360523Y-48202380D01*
X140693857Y-47202380D02*
X141360523Y-47202380D01*
X140931952Y-48202380D01*
%TO.C,EYE*%
X132008571Y-67389238D02*
X132008571Y-67055904D01*
X132532380Y-66913047D02*
X132532380Y-67389238D01*
X131532380Y-67389238D01*
X131532380Y-66913047D01*
X132056190Y-66294000D02*
X132532380Y-66294000D01*
X131532380Y-66627333D02*
X132056190Y-66294000D01*
X131532380Y-65960666D01*
X132008571Y-65627333D02*
X132008571Y-65294000D01*
X132532380Y-65151142D02*
X132532380Y-65627333D01*
X131532380Y-65627333D01*
X131532380Y-65151142D01*
%TO.C,R24*%
X187522380Y-102496857D02*
X187046190Y-102830190D01*
X187522380Y-103068285D02*
X186522380Y-103068285D01*
X186522380Y-102687333D01*
X186570000Y-102592095D01*
X186617619Y-102544476D01*
X186712857Y-102496857D01*
X186855714Y-102496857D01*
X186950952Y-102544476D01*
X186998571Y-102592095D01*
X187046190Y-102687333D01*
X187046190Y-103068285D01*
X186617619Y-102115904D02*
X186570000Y-102068285D01*
X186522380Y-101973047D01*
X186522380Y-101734952D01*
X186570000Y-101639714D01*
X186617619Y-101592095D01*
X186712857Y-101544476D01*
X186808095Y-101544476D01*
X186950952Y-101592095D01*
X187522380Y-102163523D01*
X187522380Y-101544476D01*
X186855714Y-100687333D02*
X187522380Y-100687333D01*
X186474761Y-100925428D02*
X187189047Y-101163523D01*
X187189047Y-100544476D01*
%TO.C,J1*%
X230664380Y-55571333D02*
X231378666Y-55571333D01*
X231521523Y-55618952D01*
X231616761Y-55714190D01*
X231664380Y-55857047D01*
X231664380Y-55952285D01*
X231664380Y-54571333D02*
X231664380Y-55142761D01*
X231664380Y-54857047D02*
X230664380Y-54857047D01*
X230807238Y-54952285D01*
X230902476Y-55047523D01*
X230950095Y-55142761D01*
%TO.C,C4*%
X205123142Y-51220666D02*
X205170761Y-51268285D01*
X205218380Y-51411142D01*
X205218380Y-51506380D01*
X205170761Y-51649238D01*
X205075523Y-51744476D01*
X204980285Y-51792095D01*
X204789809Y-51839714D01*
X204646952Y-51839714D01*
X204456476Y-51792095D01*
X204361238Y-51744476D01*
X204266000Y-51649238D01*
X204218380Y-51506380D01*
X204218380Y-51411142D01*
X204266000Y-51268285D01*
X204313619Y-51220666D01*
X204551714Y-50363523D02*
X205218380Y-50363523D01*
X204170761Y-50601619D02*
X204885047Y-50839714D01*
X204885047Y-50220666D01*
%TO.C,C5*%
X196911142Y-56554666D02*
X196958761Y-56602285D01*
X197006380Y-56745142D01*
X197006380Y-56840380D01*
X196958761Y-56983238D01*
X196863523Y-57078476D01*
X196768285Y-57126095D01*
X196577809Y-57173714D01*
X196434952Y-57173714D01*
X196244476Y-57126095D01*
X196149238Y-57078476D01*
X196054000Y-56983238D01*
X196006380Y-56840380D01*
X196006380Y-56745142D01*
X196054000Y-56602285D01*
X196101619Y-56554666D01*
X196006380Y-55649904D02*
X196006380Y-56126095D01*
X196482571Y-56173714D01*
X196434952Y-56126095D01*
X196387333Y-56030857D01*
X196387333Y-55792761D01*
X196434952Y-55697523D01*
X196482571Y-55649904D01*
X196577809Y-55602285D01*
X196815904Y-55602285D01*
X196911142Y-55649904D01*
X196958761Y-55697523D01*
X197006380Y-55792761D01*
X197006380Y-56030857D01*
X196958761Y-56126095D01*
X196911142Y-56173714D01*
%TO.C,C6*%
X190841333Y-52639142D02*
X190793714Y-52686761D01*
X190650857Y-52734380D01*
X190555619Y-52734380D01*
X190412761Y-52686761D01*
X190317523Y-52591523D01*
X190269904Y-52496285D01*
X190222285Y-52305809D01*
X190222285Y-52162952D01*
X190269904Y-51972476D01*
X190317523Y-51877238D01*
X190412761Y-51782000D01*
X190555619Y-51734380D01*
X190650857Y-51734380D01*
X190793714Y-51782000D01*
X190841333Y-51829619D01*
X191698476Y-51734380D02*
X191508000Y-51734380D01*
X191412761Y-51782000D01*
X191365142Y-51829619D01*
X191269904Y-51972476D01*
X191222285Y-52162952D01*
X191222285Y-52543904D01*
X191269904Y-52639142D01*
X191317523Y-52686761D01*
X191412761Y-52734380D01*
X191603238Y-52734380D01*
X191698476Y-52686761D01*
X191746095Y-52639142D01*
X191793714Y-52543904D01*
X191793714Y-52305809D01*
X191746095Y-52210571D01*
X191698476Y-52162952D01*
X191603238Y-52115333D01*
X191412761Y-52115333D01*
X191317523Y-52162952D01*
X191269904Y-52210571D01*
X191222285Y-52305809D01*
%TO.C,TH1*%
X202930285Y-38568380D02*
X203501714Y-38568380D01*
X203216000Y-39568380D02*
X203216000Y-38568380D01*
X203835047Y-39568380D02*
X203835047Y-38568380D01*
X203835047Y-39044571D02*
X204406476Y-39044571D01*
X204406476Y-39568380D02*
X204406476Y-38568380D01*
X205406476Y-39568380D02*
X204835047Y-39568380D01*
X205120761Y-39568380D02*
X205120761Y-38568380D01*
X205025523Y-38711238D01*
X204930285Y-38806476D01*
X204835047Y-38854095D01*
%TO.C,R26*%
X212796380Y-103004857D02*
X212320190Y-103338190D01*
X212796380Y-103576285D02*
X211796380Y-103576285D01*
X211796380Y-103195333D01*
X211844000Y-103100095D01*
X211891619Y-103052476D01*
X211986857Y-103004857D01*
X212129714Y-103004857D01*
X212224952Y-103052476D01*
X212272571Y-103100095D01*
X212320190Y-103195333D01*
X212320190Y-103576285D01*
X211891619Y-102623904D02*
X211844000Y-102576285D01*
X211796380Y-102481047D01*
X211796380Y-102242952D01*
X211844000Y-102147714D01*
X211891619Y-102100095D01*
X211986857Y-102052476D01*
X212082095Y-102052476D01*
X212224952Y-102100095D01*
X212796380Y-102671523D01*
X212796380Y-102052476D01*
X211796380Y-101195333D02*
X211796380Y-101385809D01*
X211844000Y-101481047D01*
X211891619Y-101528666D01*
X212034476Y-101623904D01*
X212224952Y-101671523D01*
X212605904Y-101671523D01*
X212701142Y-101623904D01*
X212748761Y-101576285D01*
X212796380Y-101481047D01*
X212796380Y-101290571D01*
X212748761Y-101195333D01*
X212701142Y-101147714D01*
X212605904Y-101100095D01*
X212367809Y-101100095D01*
X212272571Y-101147714D01*
X212224952Y-101195333D01*
X212177333Y-101290571D01*
X212177333Y-101481047D01*
X212224952Y-101576285D01*
X212272571Y-101623904D01*
X212367809Y-101671523D01*
%TO.C,R7*%
X160566380Y-50179166D02*
X160090190Y-50512500D01*
X160566380Y-50750595D02*
X159566380Y-50750595D01*
X159566380Y-50369642D01*
X159614000Y-50274404D01*
X159661619Y-50226785D01*
X159756857Y-50179166D01*
X159899714Y-50179166D01*
X159994952Y-50226785D01*
X160042571Y-50274404D01*
X160090190Y-50369642D01*
X160090190Y-50750595D01*
X159566380Y-49845833D02*
X159566380Y-49179166D01*
X160566380Y-49607738D01*
%TO.C,D13*%
X144835714Y-109926380D02*
X144835714Y-108926380D01*
X145073809Y-108926380D01*
X145216666Y-108974000D01*
X145311904Y-109069238D01*
X145359523Y-109164476D01*
X145407142Y-109354952D01*
X145407142Y-109497809D01*
X145359523Y-109688285D01*
X145311904Y-109783523D01*
X145216666Y-109878761D01*
X145073809Y-109926380D01*
X144835714Y-109926380D01*
X146359523Y-109926380D02*
X145788095Y-109926380D01*
X146073809Y-109926380D02*
X146073809Y-108926380D01*
X145978571Y-109069238D01*
X145883333Y-109164476D01*
X145788095Y-109212095D01*
X146692857Y-108926380D02*
X147311904Y-108926380D01*
X146978571Y-109307333D01*
X147121428Y-109307333D01*
X147216666Y-109354952D01*
X147264285Y-109402571D01*
X147311904Y-109497809D01*
X147311904Y-109735904D01*
X147264285Y-109831142D01*
X147216666Y-109878761D01*
X147121428Y-109926380D01*
X146835714Y-109926380D01*
X146740476Y-109878761D01*
X146692857Y-109831142D01*
%TO.C,J20*%
X128738380Y-45767523D02*
X129452666Y-45767523D01*
X129595523Y-45815142D01*
X129690761Y-45910380D01*
X129738380Y-46053238D01*
X129738380Y-46148476D01*
X128833619Y-45338952D02*
X128786000Y-45291333D01*
X128738380Y-45196095D01*
X128738380Y-44958000D01*
X128786000Y-44862761D01*
X128833619Y-44815142D01*
X128928857Y-44767523D01*
X129024095Y-44767523D01*
X129166952Y-44815142D01*
X129738380Y-45386571D01*
X129738380Y-44767523D01*
X128738380Y-44148476D02*
X128738380Y-44053238D01*
X128786000Y-43958000D01*
X128833619Y-43910380D01*
X128928857Y-43862761D01*
X129119333Y-43815142D01*
X129357428Y-43815142D01*
X129547904Y-43862761D01*
X129643142Y-43910380D01*
X129690761Y-43958000D01*
X129738380Y-44053238D01*
X129738380Y-44148476D01*
X129690761Y-44243714D01*
X129643142Y-44291333D01*
X129547904Y-44338952D01*
X129357428Y-44386571D01*
X129119333Y-44386571D01*
X128928857Y-44338952D01*
X128833619Y-44291333D01*
X128786000Y-44243714D01*
X128738380Y-44148476D01*
%TO.C,R9*%
X140216833Y-57346380D02*
X139883500Y-56870190D01*
X139645404Y-57346380D02*
X139645404Y-56346380D01*
X140026357Y-56346380D01*
X140121595Y-56394000D01*
X140169214Y-56441619D01*
X140216833Y-56536857D01*
X140216833Y-56679714D01*
X140169214Y-56774952D01*
X140121595Y-56822571D01*
X140026357Y-56870190D01*
X139645404Y-56870190D01*
X140693023Y-57346380D02*
X140883500Y-57346380D01*
X140978738Y-57298761D01*
X141026357Y-57251142D01*
X141121595Y-57108285D01*
X141169214Y-56917809D01*
X141169214Y-56536857D01*
X141121595Y-56441619D01*
X141073976Y-56394000D01*
X140978738Y-56346380D01*
X140788261Y-56346380D01*
X140693023Y-56394000D01*
X140645404Y-56441619D01*
X140597785Y-56536857D01*
X140597785Y-56774952D01*
X140645404Y-56870190D01*
X140693023Y-56917809D01*
X140788261Y-56965428D01*
X140978738Y-56965428D01*
X141073976Y-56917809D01*
X141121595Y-56870190D01*
X141169214Y-56774952D01*
%TO.C,J18*%
X185741276Y-85312380D02*
X185741276Y-86026666D01*
X185693657Y-86169523D01*
X185598419Y-86264761D01*
X185455561Y-86312380D01*
X185360323Y-86312380D01*
X186741276Y-86312380D02*
X186169847Y-86312380D01*
X186455561Y-86312380D02*
X186455561Y-85312380D01*
X186360323Y-85455238D01*
X186265085Y-85550476D01*
X186169847Y-85598095D01*
X187312704Y-85740952D02*
X187217466Y-85693333D01*
X187169847Y-85645714D01*
X187122228Y-85550476D01*
X187122228Y-85502857D01*
X187169847Y-85407619D01*
X187217466Y-85360000D01*
X187312704Y-85312380D01*
X187503180Y-85312380D01*
X187598419Y-85360000D01*
X187646038Y-85407619D01*
X187693657Y-85502857D01*
X187693657Y-85550476D01*
X187646038Y-85645714D01*
X187598419Y-85693333D01*
X187503180Y-85740952D01*
X187312704Y-85740952D01*
X187217466Y-85788571D01*
X187169847Y-85836190D01*
X187122228Y-85931428D01*
X187122228Y-86121904D01*
X187169847Y-86217142D01*
X187217466Y-86264761D01*
X187312704Y-86312380D01*
X187503180Y-86312380D01*
X187598419Y-86264761D01*
X187646038Y-86217142D01*
X187693657Y-86121904D01*
X187693657Y-85931428D01*
X187646038Y-85836190D01*
X187598419Y-85788571D01*
X187503180Y-85740952D01*
%TO.C,D7*%
X206271904Y-110180380D02*
X206271904Y-109180380D01*
X206510000Y-109180380D01*
X206652857Y-109228000D01*
X206748095Y-109323238D01*
X206795714Y-109418476D01*
X206843333Y-109608952D01*
X206843333Y-109751809D01*
X206795714Y-109942285D01*
X206748095Y-110037523D01*
X206652857Y-110132761D01*
X206510000Y-110180380D01*
X206271904Y-110180380D01*
X207176666Y-109180380D02*
X207843333Y-109180380D01*
X207414761Y-110180380D01*
%TO.C,F1*%
X215532571Y-73635333D02*
X215532571Y-73968666D01*
X216056380Y-73968666D02*
X215056380Y-73968666D01*
X215056380Y-73492476D01*
X216056380Y-72587714D02*
X216056380Y-73159142D01*
X216056380Y-72873428D02*
X215056380Y-72873428D01*
X215199238Y-72968666D01*
X215294476Y-73063904D01*
X215342095Y-73159142D01*
%TO.C,J8*%
X152320666Y-61682380D02*
X152320666Y-62396666D01*
X152273047Y-62539523D01*
X152177809Y-62634761D01*
X152034952Y-62682380D01*
X151939714Y-62682380D01*
X152939714Y-62110952D02*
X152844476Y-62063333D01*
X152796857Y-62015714D01*
X152749238Y-61920476D01*
X152749238Y-61872857D01*
X152796857Y-61777619D01*
X152844476Y-61730000D01*
X152939714Y-61682380D01*
X153130190Y-61682380D01*
X153225428Y-61730000D01*
X153273047Y-61777619D01*
X153320666Y-61872857D01*
X153320666Y-61920476D01*
X153273047Y-62015714D01*
X153225428Y-62063333D01*
X153130190Y-62110952D01*
X152939714Y-62110952D01*
X152844476Y-62158571D01*
X152796857Y-62206190D01*
X152749238Y-62301428D01*
X152749238Y-62491904D01*
X152796857Y-62587142D01*
X152844476Y-62634761D01*
X152939714Y-62682380D01*
X153130190Y-62682380D01*
X153225428Y-62634761D01*
X153273047Y-62587142D01*
X153320666Y-62491904D01*
X153320666Y-62301428D01*
X153273047Y-62206190D01*
X153225428Y-62158571D01*
X153130190Y-62110952D01*
%TO.C,H*%
X232124285Y-38298380D02*
X232124285Y-37298380D01*
X232124285Y-37774571D02*
X232695714Y-37774571D01*
X232695714Y-38298380D02*
X232695714Y-37298380D01*
%TO.C,R8*%
X176094380Y-59427166D02*
X175618190Y-59760500D01*
X176094380Y-59998595D02*
X175094380Y-59998595D01*
X175094380Y-59617642D01*
X175142000Y-59522404D01*
X175189619Y-59474785D01*
X175284857Y-59427166D01*
X175427714Y-59427166D01*
X175522952Y-59474785D01*
X175570571Y-59522404D01*
X175618190Y-59617642D01*
X175618190Y-59998595D01*
X175522952Y-58855738D02*
X175475333Y-58950976D01*
X175427714Y-58998595D01*
X175332476Y-59046214D01*
X175284857Y-59046214D01*
X175189619Y-58998595D01*
X175142000Y-58950976D01*
X175094380Y-58855738D01*
X175094380Y-58665261D01*
X175142000Y-58570023D01*
X175189619Y-58522404D01*
X175284857Y-58474785D01*
X175332476Y-58474785D01*
X175427714Y-58522404D01*
X175475333Y-58570023D01*
X175522952Y-58665261D01*
X175522952Y-58855738D01*
X175570571Y-58950976D01*
X175618190Y-58998595D01*
X175713428Y-59046214D01*
X175903904Y-59046214D01*
X175999142Y-58998595D01*
X176046761Y-58950976D01*
X176094380Y-58855738D01*
X176094380Y-58665261D01*
X176046761Y-58570023D01*
X175999142Y-58522404D01*
X175903904Y-58474785D01*
X175713428Y-58474785D01*
X175618190Y-58522404D01*
X175570571Y-58570023D01*
X175522952Y-58665261D01*
%TO.C,C9*%
X214437142Y-63920666D02*
X214484761Y-63968285D01*
X214532380Y-64111142D01*
X214532380Y-64206380D01*
X214484761Y-64349238D01*
X214389523Y-64444476D01*
X214294285Y-64492095D01*
X214103809Y-64539714D01*
X213960952Y-64539714D01*
X213770476Y-64492095D01*
X213675238Y-64444476D01*
X213580000Y-64349238D01*
X213532380Y-64206380D01*
X213532380Y-64111142D01*
X213580000Y-63968285D01*
X213627619Y-63920666D01*
X214532380Y-63444476D02*
X214532380Y-63254000D01*
X214484761Y-63158761D01*
X214437142Y-63111142D01*
X214294285Y-63015904D01*
X214103809Y-62968285D01*
X213722857Y-62968285D01*
X213627619Y-63015904D01*
X213580000Y-63063523D01*
X213532380Y-63158761D01*
X213532380Y-63349238D01*
X213580000Y-63444476D01*
X213627619Y-63492095D01*
X213722857Y-63539714D01*
X213960952Y-63539714D01*
X214056190Y-63492095D01*
X214103809Y-63444476D01*
X214151428Y-63349238D01*
X214151428Y-63158761D01*
X214103809Y-63063523D01*
X214056190Y-63015904D01*
X213960952Y-62968285D01*
%TO.C,H*%
X183610285Y-111958380D02*
X183610285Y-110958380D01*
X183610285Y-111434571D02*
X184181714Y-111434571D01*
X184181714Y-111958380D02*
X184181714Y-110958380D01*
%TO.C,D21*%
X212145714Y-110942380D02*
X212145714Y-109942380D01*
X212383809Y-109942380D01*
X212526666Y-109990000D01*
X212621904Y-110085238D01*
X212669523Y-110180476D01*
X212717142Y-110370952D01*
X212717142Y-110513809D01*
X212669523Y-110704285D01*
X212621904Y-110799523D01*
X212526666Y-110894761D01*
X212383809Y-110942380D01*
X212145714Y-110942380D01*
X213098095Y-110037619D02*
X213145714Y-109990000D01*
X213240952Y-109942380D01*
X213479047Y-109942380D01*
X213574285Y-109990000D01*
X213621904Y-110037619D01*
X213669523Y-110132857D01*
X213669523Y-110228095D01*
X213621904Y-110370952D01*
X213050476Y-110942380D01*
X213669523Y-110942380D01*
X214621904Y-110942380D02*
X214050476Y-110942380D01*
X214336190Y-110942380D02*
X214336190Y-109942380D01*
X214240952Y-110085238D01*
X214145714Y-110180476D01*
X214050476Y-110228095D01*
%TO.C,U3*%
X168910095Y-53906380D02*
X168910095Y-54715904D01*
X168957714Y-54811142D01*
X169005333Y-54858761D01*
X169100571Y-54906380D01*
X169291047Y-54906380D01*
X169386285Y-54858761D01*
X169433904Y-54811142D01*
X169481523Y-54715904D01*
X169481523Y-53906380D01*
X169862476Y-53906380D02*
X170481523Y-53906380D01*
X170148190Y-54287333D01*
X170291047Y-54287333D01*
X170386285Y-54334952D01*
X170433904Y-54382571D01*
X170481523Y-54477809D01*
X170481523Y-54715904D01*
X170433904Y-54811142D01*
X170386285Y-54858761D01*
X170291047Y-54906380D01*
X170005333Y-54906380D01*
X169910095Y-54858761D01*
X169862476Y-54811142D01*
%TO.C,R18*%
X146502380Y-102242857D02*
X146026190Y-102576190D01*
X146502380Y-102814285D02*
X145502380Y-102814285D01*
X145502380Y-102433333D01*
X145550000Y-102338095D01*
X145597619Y-102290476D01*
X145692857Y-102242857D01*
X145835714Y-102242857D01*
X145930952Y-102290476D01*
X145978571Y-102338095D01*
X146026190Y-102433333D01*
X146026190Y-102814285D01*
X146502380Y-101290476D02*
X146502380Y-101861904D01*
X146502380Y-101576190D02*
X145502380Y-101576190D01*
X145645238Y-101671428D01*
X145740476Y-101766666D01*
X145788095Y-101861904D01*
X145930952Y-100719047D02*
X145883333Y-100814285D01*
X145835714Y-100861904D01*
X145740476Y-100909523D01*
X145692857Y-100909523D01*
X145597619Y-100861904D01*
X145550000Y-100814285D01*
X145502380Y-100719047D01*
X145502380Y-100528571D01*
X145550000Y-100433333D01*
X145597619Y-100385714D01*
X145692857Y-100338095D01*
X145740476Y-100338095D01*
X145835714Y-100385714D01*
X145883333Y-100433333D01*
X145930952Y-100528571D01*
X145930952Y-100719047D01*
X145978571Y-100814285D01*
X146026190Y-100861904D01*
X146121428Y-100909523D01*
X146311904Y-100909523D01*
X146407142Y-100861904D01*
X146454761Y-100814285D01*
X146502380Y-100719047D01*
X146502380Y-100528571D01*
X146454761Y-100433333D01*
X146407142Y-100385714D01*
X146311904Y-100338095D01*
X146121428Y-100338095D01*
X146026190Y-100385714D01*
X145978571Y-100433333D01*
X145930952Y-100528571D01*
%TO.C,R22*%
X152852380Y-101988857D02*
X152376190Y-102322190D01*
X152852380Y-102560285D02*
X151852380Y-102560285D01*
X151852380Y-102179333D01*
X151900000Y-102084095D01*
X151947619Y-102036476D01*
X152042857Y-101988857D01*
X152185714Y-101988857D01*
X152280952Y-102036476D01*
X152328571Y-102084095D01*
X152376190Y-102179333D01*
X152376190Y-102560285D01*
X151947619Y-101607904D02*
X151900000Y-101560285D01*
X151852380Y-101465047D01*
X151852380Y-101226952D01*
X151900000Y-101131714D01*
X151947619Y-101084095D01*
X152042857Y-101036476D01*
X152138095Y-101036476D01*
X152280952Y-101084095D01*
X152852380Y-101655523D01*
X152852380Y-101036476D01*
X151947619Y-100655523D02*
X151900000Y-100607904D01*
X151852380Y-100512666D01*
X151852380Y-100274571D01*
X151900000Y-100179333D01*
X151947619Y-100131714D01*
X152042857Y-100084095D01*
X152138095Y-100084095D01*
X152280952Y-100131714D01*
X152852380Y-100703142D01*
X152852380Y-100084095D01*
%TO.C,J10*%
X231092476Y-93940380D02*
X231092476Y-94654666D01*
X231044857Y-94797523D01*
X230949619Y-94892761D01*
X230806761Y-94940380D01*
X230711523Y-94940380D01*
X232092476Y-94940380D02*
X231521047Y-94940380D01*
X231806761Y-94940380D02*
X231806761Y-93940380D01*
X231711523Y-94083238D01*
X231616285Y-94178476D01*
X231521047Y-94226095D01*
X232711523Y-93940380D02*
X232806761Y-93940380D01*
X232902000Y-93988000D01*
X232949619Y-94035619D01*
X232997238Y-94130857D01*
X233044857Y-94321333D01*
X233044857Y-94559428D01*
X232997238Y-94749904D01*
X232949619Y-94845142D01*
X232902000Y-94892761D01*
X232806761Y-94940380D01*
X232711523Y-94940380D01*
X232616285Y-94892761D01*
X232568666Y-94845142D01*
X232521047Y-94749904D01*
X232473428Y-94559428D01*
X232473428Y-94321333D01*
X232521047Y-94130857D01*
X232568666Y-94035619D01*
X232616285Y-93988000D01*
X232711523Y-93940380D01*
%TO.C,R2*%
X181697333Y-42488380D02*
X181364000Y-42012190D01*
X181125904Y-42488380D02*
X181125904Y-41488380D01*
X181506857Y-41488380D01*
X181602095Y-41536000D01*
X181649714Y-41583619D01*
X181697333Y-41678857D01*
X181697333Y-41821714D01*
X181649714Y-41916952D01*
X181602095Y-41964571D01*
X181506857Y-42012190D01*
X181125904Y-42012190D01*
X182078285Y-41583619D02*
X182125904Y-41536000D01*
X182221142Y-41488380D01*
X182459238Y-41488380D01*
X182554476Y-41536000D01*
X182602095Y-41583619D01*
X182649714Y-41678857D01*
X182649714Y-41774095D01*
X182602095Y-41916952D01*
X182030666Y-42488380D01*
X182649714Y-42488380D01*
%TO.C,C8*%
X179469142Y-54014666D02*
X179516761Y-54062285D01*
X179564380Y-54205142D01*
X179564380Y-54300380D01*
X179516761Y-54443238D01*
X179421523Y-54538476D01*
X179326285Y-54586095D01*
X179135809Y-54633714D01*
X178992952Y-54633714D01*
X178802476Y-54586095D01*
X178707238Y-54538476D01*
X178612000Y-54443238D01*
X178564380Y-54300380D01*
X178564380Y-54205142D01*
X178612000Y-54062285D01*
X178659619Y-54014666D01*
X178992952Y-53443238D02*
X178945333Y-53538476D01*
X178897714Y-53586095D01*
X178802476Y-53633714D01*
X178754857Y-53633714D01*
X178659619Y-53586095D01*
X178612000Y-53538476D01*
X178564380Y-53443238D01*
X178564380Y-53252761D01*
X178612000Y-53157523D01*
X178659619Y-53109904D01*
X178754857Y-53062285D01*
X178802476Y-53062285D01*
X178897714Y-53109904D01*
X178945333Y-53157523D01*
X178992952Y-53252761D01*
X178992952Y-53443238D01*
X179040571Y-53538476D01*
X179088190Y-53586095D01*
X179183428Y-53633714D01*
X179373904Y-53633714D01*
X179469142Y-53586095D01*
X179516761Y-53538476D01*
X179564380Y-53443238D01*
X179564380Y-53252761D01*
X179516761Y-53157523D01*
X179469142Y-53109904D01*
X179373904Y-53062285D01*
X179183428Y-53062285D01*
X179088190Y-53109904D01*
X179040571Y-53157523D01*
X178992952Y-53252761D01*
%TO.C,D22*%
X138540380Y-46759439D02*
X137540380Y-46759439D01*
X137540380Y-46521344D01*
X137588000Y-46378487D01*
X137683238Y-46283249D01*
X137778476Y-46235630D01*
X137968952Y-46188011D01*
X138111809Y-46188011D01*
X138302285Y-46235630D01*
X138397523Y-46283249D01*
X138492761Y-46378487D01*
X138540380Y-46521344D01*
X138540380Y-46759439D01*
X137635619Y-45807058D02*
X137588000Y-45759439D01*
X137540380Y-45664201D01*
X137540380Y-45426106D01*
X137588000Y-45330868D01*
X137635619Y-45283249D01*
X137730857Y-45235630D01*
X137826095Y-45235630D01*
X137968952Y-45283249D01*
X138540380Y-45854677D01*
X138540380Y-45235630D01*
X137635619Y-44854677D02*
X137588000Y-44807058D01*
X137540380Y-44711820D01*
X137540380Y-44473725D01*
X137588000Y-44378487D01*
X137635619Y-44330868D01*
X137730857Y-44283249D01*
X137826095Y-44283249D01*
X137968952Y-44330868D01*
X138540380Y-44902296D01*
X138540380Y-44283249D01*
%TO.C,R25*%
X201366380Y-102750857D02*
X200890190Y-103084190D01*
X201366380Y-103322285D02*
X200366380Y-103322285D01*
X200366380Y-102941333D01*
X200414000Y-102846095D01*
X200461619Y-102798476D01*
X200556857Y-102750857D01*
X200699714Y-102750857D01*
X200794952Y-102798476D01*
X200842571Y-102846095D01*
X200890190Y-102941333D01*
X200890190Y-103322285D01*
X200461619Y-102369904D02*
X200414000Y-102322285D01*
X200366380Y-102227047D01*
X200366380Y-101988952D01*
X200414000Y-101893714D01*
X200461619Y-101846095D01*
X200556857Y-101798476D01*
X200652095Y-101798476D01*
X200794952Y-101846095D01*
X201366380Y-102417523D01*
X201366380Y-101798476D01*
X200366380Y-100893714D02*
X200366380Y-101369904D01*
X200842571Y-101417523D01*
X200794952Y-101369904D01*
X200747333Y-101274666D01*
X200747333Y-101036571D01*
X200794952Y-100941333D01*
X200842571Y-100893714D01*
X200937809Y-100846095D01*
X201175904Y-100846095D01*
X201271142Y-100893714D01*
X201318761Y-100941333D01*
X201366380Y-101036571D01*
X201366380Y-101274666D01*
X201318761Y-101369904D01*
X201271142Y-101417523D01*
%TO.C,C3*%
X186327142Y-56554666D02*
X186374761Y-56602285D01*
X186422380Y-56745142D01*
X186422380Y-56840380D01*
X186374761Y-56983238D01*
X186279523Y-57078476D01*
X186184285Y-57126095D01*
X185993809Y-57173714D01*
X185850952Y-57173714D01*
X185660476Y-57126095D01*
X185565238Y-57078476D01*
X185470000Y-56983238D01*
X185422380Y-56840380D01*
X185422380Y-56745142D01*
X185470000Y-56602285D01*
X185517619Y-56554666D01*
X185422380Y-56221333D02*
X185422380Y-55602285D01*
X185803333Y-55935619D01*
X185803333Y-55792761D01*
X185850952Y-55697523D01*
X185898571Y-55649904D01*
X185993809Y-55602285D01*
X186231904Y-55602285D01*
X186327142Y-55649904D01*
X186374761Y-55697523D01*
X186422380Y-55792761D01*
X186422380Y-56078476D01*
X186374761Y-56173714D01*
X186327142Y-56221333D01*
%TO.C,J12*%
X157432476Y-93432380D02*
X157432476Y-94146666D01*
X157384857Y-94289523D01*
X157289619Y-94384761D01*
X157146761Y-94432380D01*
X157051523Y-94432380D01*
X158432476Y-94432380D02*
X157861047Y-94432380D01*
X158146761Y-94432380D02*
X158146761Y-93432380D01*
X158051523Y-93575238D01*
X157956285Y-93670476D01*
X157861047Y-93718095D01*
X158813428Y-93527619D02*
X158861047Y-93480000D01*
X158956285Y-93432380D01*
X159194380Y-93432380D01*
X159289619Y-93480000D01*
X159337238Y-93527619D01*
X159384857Y-93622857D01*
X159384857Y-93718095D01*
X159337238Y-93860952D01*
X158765809Y-94432380D01*
X159384857Y-94432380D01*
%TO.C,D18*%
X168092380Y-105608285D02*
X167092380Y-105608285D01*
X167092380Y-105370190D01*
X167140000Y-105227333D01*
X167235238Y-105132095D01*
X167330476Y-105084476D01*
X167520952Y-105036857D01*
X167663809Y-105036857D01*
X167854285Y-105084476D01*
X167949523Y-105132095D01*
X168044761Y-105227333D01*
X168092380Y-105370190D01*
X168092380Y-105608285D01*
X168092380Y-104084476D02*
X168092380Y-104655904D01*
X168092380Y-104370190D02*
X167092380Y-104370190D01*
X167235238Y-104465428D01*
X167330476Y-104560666D01*
X167378095Y-104655904D01*
X167520952Y-103513047D02*
X167473333Y-103608285D01*
X167425714Y-103655904D01*
X167330476Y-103703523D01*
X167282857Y-103703523D01*
X167187619Y-103655904D01*
X167140000Y-103608285D01*
X167092380Y-103513047D01*
X167092380Y-103322571D01*
X167140000Y-103227333D01*
X167187619Y-103179714D01*
X167282857Y-103132095D01*
X167330476Y-103132095D01*
X167425714Y-103179714D01*
X167473333Y-103227333D01*
X167520952Y-103322571D01*
X167520952Y-103513047D01*
X167568571Y-103608285D01*
X167616190Y-103655904D01*
X167711428Y-103703523D01*
X167901904Y-103703523D01*
X167997142Y-103655904D01*
X168044761Y-103608285D01*
X168092380Y-103513047D01*
X168092380Y-103322571D01*
X168044761Y-103227333D01*
X167997142Y-103179714D01*
X167901904Y-103132095D01*
X167711428Y-103132095D01*
X167616190Y-103179714D01*
X167568571Y-103227333D01*
X167520952Y-103322571D01*
%TO.C,D17*%
X152201714Y-109418380D02*
X152201714Y-108418380D01*
X152439809Y-108418380D01*
X152582666Y-108466000D01*
X152677904Y-108561238D01*
X152725523Y-108656476D01*
X152773142Y-108846952D01*
X152773142Y-108989809D01*
X152725523Y-109180285D01*
X152677904Y-109275523D01*
X152582666Y-109370761D01*
X152439809Y-109418380D01*
X152201714Y-109418380D01*
X153725523Y-109418380D02*
X153154095Y-109418380D01*
X153439809Y-109418380D02*
X153439809Y-108418380D01*
X153344571Y-108561238D01*
X153249333Y-108656476D01*
X153154095Y-108704095D01*
X154058857Y-108418380D02*
X154725523Y-108418380D01*
X154296952Y-109418380D01*
%TO.C,J7*%
X172894666Y-85050380D02*
X172894666Y-85764666D01*
X172847047Y-85907523D01*
X172751809Y-86002761D01*
X172608952Y-86050380D01*
X172513714Y-86050380D01*
X173275619Y-85050380D02*
X173942285Y-85050380D01*
X173513714Y-86050380D01*
%TO.C,L1*%
X202060380Y-48394666D02*
X202060380Y-48870857D01*
X201060380Y-48870857D01*
X202060380Y-47537523D02*
X202060380Y-48108952D01*
X202060380Y-47823238D02*
X201060380Y-47823238D01*
X201203238Y-47918476D01*
X201298476Y-48013714D01*
X201346095Y-48108952D01*
%TO.C,H*%
X153130285Y-111196380D02*
X153130285Y-110196380D01*
X153130285Y-110672571D02*
X153701714Y-110672571D01*
X153701714Y-111196380D02*
X153701714Y-110196380D01*
%TO.C,R29*%
X233942380Y-67294857D02*
X233466190Y-67628190D01*
X233942380Y-67866285D02*
X232942380Y-67866285D01*
X232942380Y-67485333D01*
X232990000Y-67390095D01*
X233037619Y-67342476D01*
X233132857Y-67294857D01*
X233275714Y-67294857D01*
X233370952Y-67342476D01*
X233418571Y-67390095D01*
X233466190Y-67485333D01*
X233466190Y-67866285D01*
X233037619Y-66913904D02*
X232990000Y-66866285D01*
X232942380Y-66771047D01*
X232942380Y-66532952D01*
X232990000Y-66437714D01*
X233037619Y-66390095D01*
X233132857Y-66342476D01*
X233228095Y-66342476D01*
X233370952Y-66390095D01*
X233942380Y-66961523D01*
X233942380Y-66342476D01*
X233942380Y-65866285D02*
X233942380Y-65675809D01*
X233894761Y-65580571D01*
X233847142Y-65532952D01*
X233704285Y-65437714D01*
X233513809Y-65390095D01*
X233132857Y-65390095D01*
X233037619Y-65437714D01*
X232990000Y-65485333D01*
X232942380Y-65580571D01*
X232942380Y-65771047D01*
X232990000Y-65866285D01*
X233037619Y-65913904D01*
X233132857Y-65961523D01*
X233370952Y-65961523D01*
X233466190Y-65913904D01*
X233513809Y-65866285D01*
X233561428Y-65771047D01*
X233561428Y-65580571D01*
X233513809Y-65485333D01*
X233466190Y-65437714D01*
X233370952Y-65390095D01*
%TO.C,R20*%
X231210380Y-102750857D02*
X230734190Y-103084190D01*
X231210380Y-103322285D02*
X230210380Y-103322285D01*
X230210380Y-102941333D01*
X230258000Y-102846095D01*
X230305619Y-102798476D01*
X230400857Y-102750857D01*
X230543714Y-102750857D01*
X230638952Y-102798476D01*
X230686571Y-102846095D01*
X230734190Y-102941333D01*
X230734190Y-103322285D01*
X230305619Y-102369904D02*
X230258000Y-102322285D01*
X230210380Y-102227047D01*
X230210380Y-101988952D01*
X230258000Y-101893714D01*
X230305619Y-101846095D01*
X230400857Y-101798476D01*
X230496095Y-101798476D01*
X230638952Y-101846095D01*
X231210380Y-102417523D01*
X231210380Y-101798476D01*
X230210380Y-101179428D02*
X230210380Y-101084190D01*
X230258000Y-100988952D01*
X230305619Y-100941333D01*
X230400857Y-100893714D01*
X230591333Y-100846095D01*
X230829428Y-100846095D01*
X231019904Y-100893714D01*
X231115142Y-100941333D01*
X231162761Y-100988952D01*
X231210380Y-101084190D01*
X231210380Y-101179428D01*
X231162761Y-101274666D01*
X231115142Y-101322285D01*
X231019904Y-101369904D01*
X230829428Y-101417523D01*
X230591333Y-101417523D01*
X230400857Y-101369904D01*
X230305619Y-101322285D01*
X230258000Y-101274666D01*
X230210380Y-101179428D01*
%TO.C,R16*%
X138565142Y-78466380D02*
X138231809Y-77990190D01*
X137993714Y-78466380D02*
X137993714Y-77466380D01*
X138374666Y-77466380D01*
X138469904Y-77514000D01*
X138517523Y-77561619D01*
X138565142Y-77656857D01*
X138565142Y-77799714D01*
X138517523Y-77894952D01*
X138469904Y-77942571D01*
X138374666Y-77990190D01*
X137993714Y-77990190D01*
X139517523Y-78466380D02*
X138946095Y-78466380D01*
X139231809Y-78466380D02*
X139231809Y-77466380D01*
X139136571Y-77609238D01*
X139041333Y-77704476D01*
X138946095Y-77752095D01*
X140374666Y-77466380D02*
X140184190Y-77466380D01*
X140088952Y-77514000D01*
X140041333Y-77561619D01*
X139946095Y-77704476D01*
X139898476Y-77894952D01*
X139898476Y-78275904D01*
X139946095Y-78371142D01*
X139993714Y-78418761D01*
X140088952Y-78466380D01*
X140279428Y-78466380D01*
X140374666Y-78418761D01*
X140422285Y-78371142D01*
X140469904Y-78275904D01*
X140469904Y-78037809D01*
X140422285Y-77942571D01*
X140374666Y-77894952D01*
X140279428Y-77847333D01*
X140088952Y-77847333D01*
X139993714Y-77894952D01*
X139946095Y-77942571D01*
X139898476Y-78037809D01*
%TO.C,D20*%
X197667714Y-109926380D02*
X197667714Y-108926380D01*
X197905809Y-108926380D01*
X198048666Y-108974000D01*
X198143904Y-109069238D01*
X198191523Y-109164476D01*
X198239142Y-109354952D01*
X198239142Y-109497809D01*
X198191523Y-109688285D01*
X198143904Y-109783523D01*
X198048666Y-109878761D01*
X197905809Y-109926380D01*
X197667714Y-109926380D01*
X198620095Y-109021619D02*
X198667714Y-108974000D01*
X198762952Y-108926380D01*
X199001047Y-108926380D01*
X199096285Y-108974000D01*
X199143904Y-109021619D01*
X199191523Y-109116857D01*
X199191523Y-109212095D01*
X199143904Y-109354952D01*
X198572476Y-109926380D01*
X199191523Y-109926380D01*
X199810571Y-108926380D02*
X199905809Y-108926380D01*
X200001047Y-108974000D01*
X200048666Y-109021619D01*
X200096285Y-109116857D01*
X200143904Y-109307333D01*
X200143904Y-109545428D01*
X200096285Y-109735904D01*
X200048666Y-109831142D01*
X200001047Y-109878761D01*
X199905809Y-109926380D01*
X199810571Y-109926380D01*
X199715333Y-109878761D01*
X199667714Y-109831142D01*
X199620095Y-109735904D01*
X199572476Y-109545428D01*
X199572476Y-109307333D01*
X199620095Y-109116857D01*
X199667714Y-109021619D01*
X199715333Y-108974000D01*
X199810571Y-108926380D01*
%TO.C,D23*%
X132278380Y-42108285D02*
X131278380Y-42108285D01*
X131278380Y-41870190D01*
X131326000Y-41727333D01*
X131421238Y-41632095D01*
X131516476Y-41584476D01*
X131706952Y-41536857D01*
X131849809Y-41536857D01*
X132040285Y-41584476D01*
X132135523Y-41632095D01*
X132230761Y-41727333D01*
X132278380Y-41870190D01*
X132278380Y-42108285D01*
X131373619Y-41155904D02*
X131326000Y-41108285D01*
X131278380Y-41013047D01*
X131278380Y-40774952D01*
X131326000Y-40679714D01*
X131373619Y-40632095D01*
X131468857Y-40584476D01*
X131564095Y-40584476D01*
X131706952Y-40632095D01*
X132278380Y-41203523D01*
X132278380Y-40584476D01*
X131278380Y-40251142D02*
X131278380Y-39632095D01*
X131659333Y-39965428D01*
X131659333Y-39822571D01*
X131706952Y-39727333D01*
X131754571Y-39679714D01*
X131849809Y-39632095D01*
X132087904Y-39632095D01*
X132183142Y-39679714D01*
X132230761Y-39727333D01*
X132278380Y-39822571D01*
X132278380Y-40108285D01*
X132230761Y-40203523D01*
X132183142Y-40251142D01*
%TO.C,D5*%
X134559904Y-48460688D02*
X134559904Y-47460688D01*
X134798000Y-47460688D01*
X134940857Y-47508308D01*
X135036095Y-47603546D01*
X135083714Y-47698784D01*
X135131333Y-47889260D01*
X135131333Y-48032117D01*
X135083714Y-48222593D01*
X135036095Y-48317831D01*
X134940857Y-48413069D01*
X134798000Y-48460688D01*
X134559904Y-48460688D01*
X136036095Y-47460688D02*
X135559904Y-47460688D01*
X135512285Y-47936879D01*
X135559904Y-47889260D01*
X135655142Y-47841641D01*
X135893238Y-47841641D01*
X135988476Y-47889260D01*
X136036095Y-47936879D01*
X136083714Y-48032117D01*
X136083714Y-48270212D01*
X136036095Y-48365450D01*
X135988476Y-48413069D01*
X135893238Y-48460688D01*
X135655142Y-48460688D01*
X135559904Y-48413069D01*
X135512285Y-48365450D01*
%TO.C,R12*%
X207208380Y-101988857D02*
X206732190Y-102322190D01*
X207208380Y-102560285D02*
X206208380Y-102560285D01*
X206208380Y-102179333D01*
X206256000Y-102084095D01*
X206303619Y-102036476D01*
X206398857Y-101988857D01*
X206541714Y-101988857D01*
X206636952Y-102036476D01*
X206684571Y-102084095D01*
X206732190Y-102179333D01*
X206732190Y-102560285D01*
X207208380Y-101036476D02*
X207208380Y-101607904D01*
X207208380Y-101322190D02*
X206208380Y-101322190D01*
X206351238Y-101417428D01*
X206446476Y-101512666D01*
X206494095Y-101607904D01*
X206303619Y-100655523D02*
X206256000Y-100607904D01*
X206208380Y-100512666D01*
X206208380Y-100274571D01*
X206256000Y-100179333D01*
X206303619Y-100131714D01*
X206398857Y-100084095D01*
X206494095Y-100084095D01*
X206636952Y-100131714D01*
X207208380Y-100703142D01*
X207208380Y-100084095D01*
%TO.C,J17*%
X183086476Y-60920380D02*
X183086476Y-61634666D01*
X183038857Y-61777523D01*
X182943619Y-61872761D01*
X182800761Y-61920380D01*
X182705523Y-61920380D01*
X184086476Y-61920380D02*
X183515047Y-61920380D01*
X183800761Y-61920380D02*
X183800761Y-60920380D01*
X183705523Y-61063238D01*
X183610285Y-61158476D01*
X183515047Y-61206095D01*
X184419809Y-60920380D02*
X185086476Y-60920380D01*
X184657904Y-61920380D01*
%TO.C,D6*%
X220241904Y-110688380D02*
X220241904Y-109688380D01*
X220480000Y-109688380D01*
X220622857Y-109736000D01*
X220718095Y-109831238D01*
X220765714Y-109926476D01*
X220813333Y-110116952D01*
X220813333Y-110259809D01*
X220765714Y-110450285D01*
X220718095Y-110545523D01*
X220622857Y-110640761D01*
X220480000Y-110688380D01*
X220241904Y-110688380D01*
X221670476Y-109688380D02*
X221480000Y-109688380D01*
X221384761Y-109736000D01*
X221337142Y-109783619D01*
X221241904Y-109926476D01*
X221194285Y-110116952D01*
X221194285Y-110497904D01*
X221241904Y-110593142D01*
X221289523Y-110640761D01*
X221384761Y-110688380D01*
X221575238Y-110688380D01*
X221670476Y-110640761D01*
X221718095Y-110593142D01*
X221765714Y-110497904D01*
X221765714Y-110259809D01*
X221718095Y-110164571D01*
X221670476Y-110116952D01*
X221575238Y-110069333D01*
X221384761Y-110069333D01*
X221289523Y-110116952D01*
X221241904Y-110164571D01*
X221194285Y-110259809D01*
%TO.C,R11*%
X221432380Y-103258857D02*
X220956190Y-103592190D01*
X221432380Y-103830285D02*
X220432380Y-103830285D01*
X220432380Y-103449333D01*
X220480000Y-103354095D01*
X220527619Y-103306476D01*
X220622857Y-103258857D01*
X220765714Y-103258857D01*
X220860952Y-103306476D01*
X220908571Y-103354095D01*
X220956190Y-103449333D01*
X220956190Y-103830285D01*
X221432380Y-102306476D02*
X221432380Y-102877904D01*
X221432380Y-102592190D02*
X220432380Y-102592190D01*
X220575238Y-102687428D01*
X220670476Y-102782666D01*
X220718095Y-102877904D01*
X221432380Y-101354095D02*
X221432380Y-101925523D01*
X221432380Y-101639809D02*
X220432380Y-101639809D01*
X220575238Y-101735047D01*
X220670476Y-101830285D01*
X220718095Y-101925523D01*
%TO.C,D10*%
X160329714Y-109418380D02*
X160329714Y-108418380D01*
X160567809Y-108418380D01*
X160710666Y-108466000D01*
X160805904Y-108561238D01*
X160853523Y-108656476D01*
X160901142Y-108846952D01*
X160901142Y-108989809D01*
X160853523Y-109180285D01*
X160805904Y-109275523D01*
X160710666Y-109370761D01*
X160567809Y-109418380D01*
X160329714Y-109418380D01*
X161853523Y-109418380D02*
X161282095Y-109418380D01*
X161567809Y-109418380D02*
X161567809Y-108418380D01*
X161472571Y-108561238D01*
X161377333Y-108656476D01*
X161282095Y-108704095D01*
X162472571Y-108418380D02*
X162567809Y-108418380D01*
X162663047Y-108466000D01*
X162710666Y-108513619D01*
X162758285Y-108608857D01*
X162805904Y-108799333D01*
X162805904Y-109037428D01*
X162758285Y-109227904D01*
X162710666Y-109323142D01*
X162663047Y-109370761D01*
X162567809Y-109418380D01*
X162472571Y-109418380D01*
X162377333Y-109370761D01*
X162329714Y-109323142D01*
X162282095Y-109227904D01*
X162234476Y-109037428D01*
X162234476Y-108799333D01*
X162282095Y-108608857D01*
X162329714Y-108513619D01*
X162377333Y-108466000D01*
X162472571Y-108418380D01*
%TO.C,H*%
X142970285Y-69794380D02*
X142970285Y-68794380D01*
X142970285Y-69270571D02*
X143541714Y-69270571D01*
X143541714Y-69794380D02*
X143541714Y-68794380D01*
%TO.C,C10*%
X209415142Y-61469142D02*
X209367523Y-61516761D01*
X209224666Y-61564380D01*
X209129428Y-61564380D01*
X208986571Y-61516761D01*
X208891333Y-61421523D01*
X208843714Y-61326285D01*
X208796095Y-61135809D01*
X208796095Y-60992952D01*
X208843714Y-60802476D01*
X208891333Y-60707238D01*
X208986571Y-60612000D01*
X209129428Y-60564380D01*
X209224666Y-60564380D01*
X209367523Y-60612000D01*
X209415142Y-60659619D01*
X210367523Y-61564380D02*
X209796095Y-61564380D01*
X210081809Y-61564380D02*
X210081809Y-60564380D01*
X209986571Y-60707238D01*
X209891333Y-60802476D01*
X209796095Y-60850095D01*
X210986571Y-60564380D02*
X211081809Y-60564380D01*
X211177047Y-60612000D01*
X211224666Y-60659619D01*
X211272285Y-60754857D01*
X211319904Y-60945333D01*
X211319904Y-61183428D01*
X211272285Y-61373904D01*
X211224666Y-61469142D01*
X211177047Y-61516761D01*
X211081809Y-61564380D01*
X210986571Y-61564380D01*
X210891333Y-61516761D01*
X210843714Y-61469142D01*
X210796095Y-61373904D01*
X210748476Y-61183428D01*
X210748476Y-60945333D01*
X210796095Y-60754857D01*
X210843714Y-60659619D01*
X210891333Y-60612000D01*
X210986571Y-60564380D01*
%TO.C,R15*%
X163012380Y-101988857D02*
X162536190Y-102322190D01*
X163012380Y-102560285D02*
X162012380Y-102560285D01*
X162012380Y-102179333D01*
X162060000Y-102084095D01*
X162107619Y-102036476D01*
X162202857Y-101988857D01*
X162345714Y-101988857D01*
X162440952Y-102036476D01*
X162488571Y-102084095D01*
X162536190Y-102179333D01*
X162536190Y-102560285D01*
X163012380Y-101036476D02*
X163012380Y-101607904D01*
X163012380Y-101322190D02*
X162012380Y-101322190D01*
X162155238Y-101417428D01*
X162250476Y-101512666D01*
X162298095Y-101607904D01*
X162012380Y-100131714D02*
X162012380Y-100607904D01*
X162488571Y-100655523D01*
X162440952Y-100607904D01*
X162393333Y-100512666D01*
X162393333Y-100274571D01*
X162440952Y-100179333D01*
X162488571Y-100131714D01*
X162583809Y-100084095D01*
X162821904Y-100084095D01*
X162917142Y-100131714D01*
X162964761Y-100179333D01*
X163012380Y-100274571D01*
X163012380Y-100512666D01*
X162964761Y-100607904D01*
X162917142Y-100655523D01*
%TO.C,J9*%
X169592666Y-60158380D02*
X169592666Y-60872666D01*
X169545047Y-61015523D01*
X169449809Y-61110761D01*
X169306952Y-61158380D01*
X169211714Y-61158380D01*
X170116476Y-61158380D02*
X170306952Y-61158380D01*
X170402190Y-61110761D01*
X170449809Y-61063142D01*
X170545047Y-60920285D01*
X170592666Y-60729809D01*
X170592666Y-60348857D01*
X170545047Y-60253619D01*
X170497428Y-60206000D01*
X170402190Y-60158380D01*
X170211714Y-60158380D01*
X170116476Y-60206000D01*
X170068857Y-60253619D01*
X170021238Y-60348857D01*
X170021238Y-60586952D01*
X170068857Y-60682190D01*
X170116476Y-60729809D01*
X170211714Y-60777428D01*
X170402190Y-60777428D01*
X170497428Y-60729809D01*
X170545047Y-60682190D01*
X170592666Y-60586952D01*
%TO.C,C1*%
X216841333Y-54925142D02*
X216793714Y-54972761D01*
X216650857Y-55020380D01*
X216555619Y-55020380D01*
X216412761Y-54972761D01*
X216317523Y-54877523D01*
X216269904Y-54782285D01*
X216222285Y-54591809D01*
X216222285Y-54448952D01*
X216269904Y-54258476D01*
X216317523Y-54163238D01*
X216412761Y-54068000D01*
X216555619Y-54020380D01*
X216650857Y-54020380D01*
X216793714Y-54068000D01*
X216841333Y-54115619D01*
X217793714Y-55020380D02*
X217222285Y-55020380D01*
X217508000Y-55020380D02*
X217508000Y-54020380D01*
X217412761Y-54163238D01*
X217317523Y-54258476D01*
X217222285Y-54306095D01*
%TO.C,U5*%
X176461380Y-77205904D02*
X177270904Y-77205904D01*
X177366142Y-77158285D01*
X177413761Y-77110666D01*
X177461380Y-77015428D01*
X177461380Y-76824952D01*
X177413761Y-76729714D01*
X177366142Y-76682095D01*
X177270904Y-76634476D01*
X176461380Y-76634476D01*
X176461380Y-75682095D02*
X176461380Y-76158285D01*
X176937571Y-76205904D01*
X176889952Y-76158285D01*
X176842333Y-76063047D01*
X176842333Y-75824952D01*
X176889952Y-75729714D01*
X176937571Y-75682095D01*
X177032809Y-75634476D01*
X177270904Y-75634476D01*
X177366142Y-75682095D01*
X177413761Y-75729714D01*
X177461380Y-75824952D01*
X177461380Y-76063047D01*
X177413761Y-76158285D01*
X177366142Y-76205904D01*
%TO.C,R19*%
X137104380Y-101988857D02*
X136628190Y-102322190D01*
X137104380Y-102560285D02*
X136104380Y-102560285D01*
X136104380Y-102179333D01*
X136152000Y-102084095D01*
X136199619Y-102036476D01*
X136294857Y-101988857D01*
X136437714Y-101988857D01*
X136532952Y-102036476D01*
X136580571Y-102084095D01*
X136628190Y-102179333D01*
X136628190Y-102560285D01*
X137104380Y-101036476D02*
X137104380Y-101607904D01*
X137104380Y-101322190D02*
X136104380Y-101322190D01*
X136247238Y-101417428D01*
X136342476Y-101512666D01*
X136390095Y-101607904D01*
X137104380Y-100560285D02*
X137104380Y-100369809D01*
X137056761Y-100274571D01*
X137009142Y-100226952D01*
X136866285Y-100131714D01*
X136675809Y-100084095D01*
X136294857Y-100084095D01*
X136199619Y-100131714D01*
X136152000Y-100179333D01*
X136104380Y-100274571D01*
X136104380Y-100465047D01*
X136152000Y-100560285D01*
X136199619Y-100607904D01*
X136294857Y-100655523D01*
X136532952Y-100655523D01*
X136628190Y-100607904D01*
X136675809Y-100560285D01*
X136723428Y-100465047D01*
X136723428Y-100274571D01*
X136675809Y-100179333D01*
X136628190Y-100131714D01*
X136532952Y-100084095D01*
%TO.C,D15*%
X228401714Y-110180380D02*
X228401714Y-109180380D01*
X228639809Y-109180380D01*
X228782666Y-109228000D01*
X228877904Y-109323238D01*
X228925523Y-109418476D01*
X228973142Y-109608952D01*
X228973142Y-109751809D01*
X228925523Y-109942285D01*
X228877904Y-110037523D01*
X228782666Y-110132761D01*
X228639809Y-110180380D01*
X228401714Y-110180380D01*
X229925523Y-110180380D02*
X229354095Y-110180380D01*
X229639809Y-110180380D02*
X229639809Y-109180380D01*
X229544571Y-109323238D01*
X229449333Y-109418476D01*
X229354095Y-109466095D01*
X230830285Y-109180380D02*
X230354095Y-109180380D01*
X230306476Y-109656571D01*
X230354095Y-109608952D01*
X230449333Y-109561333D01*
X230687428Y-109561333D01*
X230782666Y-109608952D01*
X230830285Y-109656571D01*
X230877904Y-109751809D01*
X230877904Y-109989904D01*
X230830285Y-110085142D01*
X230782666Y-110132761D01*
X230687428Y-110180380D01*
X230449333Y-110180380D01*
X230354095Y-110132761D01*
X230306476Y-110085142D01*
%TO.C,D4*%
X132620380Y-57634095D02*
X131620380Y-57634095D01*
X131620380Y-57396000D01*
X131668000Y-57253142D01*
X131763238Y-57157904D01*
X131858476Y-57110285D01*
X132048952Y-57062666D01*
X132191809Y-57062666D01*
X132382285Y-57110285D01*
X132477523Y-57157904D01*
X132572761Y-57253142D01*
X132620380Y-57396000D01*
X132620380Y-57634095D01*
X131953714Y-56205523D02*
X132620380Y-56205523D01*
X131572761Y-56443619D02*
X132287047Y-56681714D01*
X132287047Y-56062666D01*
%TO.C,D8*%
X192984380Y-110466095D02*
X191984380Y-110466095D01*
X191984380Y-110228000D01*
X192032000Y-110085142D01*
X192127238Y-109989904D01*
X192222476Y-109942285D01*
X192412952Y-109894666D01*
X192555809Y-109894666D01*
X192746285Y-109942285D01*
X192841523Y-109989904D01*
X192936761Y-110085142D01*
X192984380Y-110228000D01*
X192984380Y-110466095D01*
X192412952Y-109323238D02*
X192365333Y-109418476D01*
X192317714Y-109466095D01*
X192222476Y-109513714D01*
X192174857Y-109513714D01*
X192079619Y-109466095D01*
X192032000Y-109418476D01*
X191984380Y-109323238D01*
X191984380Y-109132761D01*
X192032000Y-109037523D01*
X192079619Y-108989904D01*
X192174857Y-108942285D01*
X192222476Y-108942285D01*
X192317714Y-108989904D01*
X192365333Y-109037523D01*
X192412952Y-109132761D01*
X192412952Y-109323238D01*
X192460571Y-109418476D01*
X192508190Y-109466095D01*
X192603428Y-109513714D01*
X192793904Y-109513714D01*
X192889142Y-109466095D01*
X192936761Y-109418476D01*
X192984380Y-109323238D01*
X192984380Y-109132761D01*
X192936761Y-109037523D01*
X192889142Y-108989904D01*
X192793904Y-108942285D01*
X192603428Y-108942285D01*
X192508190Y-108989904D01*
X192460571Y-109037523D01*
X192412952Y-109132761D01*
%TO.C,R1*%
X218273333Y-47060380D02*
X217940000Y-46584190D01*
X217701904Y-47060380D02*
X217701904Y-46060380D01*
X218082857Y-46060380D01*
X218178095Y-46108000D01*
X218225714Y-46155619D01*
X218273333Y-46250857D01*
X218273333Y-46393714D01*
X218225714Y-46488952D01*
X218178095Y-46536571D01*
X218082857Y-46584190D01*
X217701904Y-46584190D01*
X219225714Y-47060380D02*
X218654285Y-47060380D01*
X218940000Y-47060380D02*
X218940000Y-46060380D01*
X218844761Y-46203238D01*
X218749523Y-46298476D01*
X218654285Y-46346095D01*
%TO.C,R4*%
X187793333Y-42488380D02*
X187460000Y-42012190D01*
X187221904Y-42488380D02*
X187221904Y-41488380D01*
X187602857Y-41488380D01*
X187698095Y-41536000D01*
X187745714Y-41583619D01*
X187793333Y-41678857D01*
X187793333Y-41821714D01*
X187745714Y-41916952D01*
X187698095Y-41964571D01*
X187602857Y-42012190D01*
X187221904Y-42012190D01*
X188650476Y-41821714D02*
X188650476Y-42488380D01*
X188412380Y-41440761D02*
X188174285Y-42155047D01*
X188793333Y-42155047D01*
%TO.C,H*%
X127476285Y-47188380D02*
X127476285Y-46188380D01*
X127476285Y-46664571D02*
X128047714Y-46664571D01*
X128047714Y-47188380D02*
X128047714Y-46188380D01*
%TO.C,D2*%
X226083904Y-39487380D02*
X226083904Y-38487380D01*
X226322000Y-38487380D01*
X226464857Y-38535000D01*
X226560095Y-38630238D01*
X226607714Y-38725476D01*
X226655333Y-38915952D01*
X226655333Y-39058809D01*
X226607714Y-39249285D01*
X226560095Y-39344523D01*
X226464857Y-39439761D01*
X226322000Y-39487380D01*
X226083904Y-39487380D01*
X227036285Y-38582619D02*
X227083904Y-38535000D01*
X227179142Y-38487380D01*
X227417238Y-38487380D01*
X227512476Y-38535000D01*
X227560095Y-38582619D01*
X227607714Y-38677857D01*
X227607714Y-38773095D01*
X227560095Y-38915952D01*
X226988666Y-39487380D01*
X227607714Y-39487380D01*
%TO.C,R28*%
X139232642Y-43630380D02*
X138899309Y-43154190D01*
X138661214Y-43630380D02*
X138661214Y-42630380D01*
X139042166Y-42630380D01*
X139137404Y-42678000D01*
X139185023Y-42725619D01*
X139232642Y-42820857D01*
X139232642Y-42963714D01*
X139185023Y-43058952D01*
X139137404Y-43106571D01*
X139042166Y-43154190D01*
X138661214Y-43154190D01*
X139613595Y-42725619D02*
X139661214Y-42678000D01*
X139756452Y-42630380D01*
X139994547Y-42630380D01*
X140089785Y-42678000D01*
X140137404Y-42725619D01*
X140185023Y-42820857D01*
X140185023Y-42916095D01*
X140137404Y-43058952D01*
X139565976Y-43630380D01*
X140185023Y-43630380D01*
X140756452Y-43058952D02*
X140661214Y-43011333D01*
X140613595Y-42963714D01*
X140565976Y-42868476D01*
X140565976Y-42820857D01*
X140613595Y-42725619D01*
X140661214Y-42678000D01*
X140756452Y-42630380D01*
X140946928Y-42630380D01*
X141042166Y-42678000D01*
X141089785Y-42725619D01*
X141137404Y-42820857D01*
X141137404Y-42868476D01*
X141089785Y-42963714D01*
X141042166Y-43011333D01*
X140946928Y-43058952D01*
X140756452Y-43058952D01*
X140661214Y-43106571D01*
X140613595Y-43154190D01*
X140565976Y-43249428D01*
X140565976Y-43439904D01*
X140613595Y-43535142D01*
X140661214Y-43582761D01*
X140756452Y-43630380D01*
X140946928Y-43630380D01*
X141042166Y-43582761D01*
X141089785Y-43535142D01*
X141137404Y-43439904D01*
X141137404Y-43249428D01*
X141089785Y-43154190D01*
X141042166Y-43106571D01*
X140946928Y-43058952D01*
%TO.C,R30*%
X140073142Y-62048380D02*
X139739809Y-61572190D01*
X139501714Y-62048380D02*
X139501714Y-61048380D01*
X139882666Y-61048380D01*
X139977904Y-61096000D01*
X140025523Y-61143619D01*
X140073142Y-61238857D01*
X140073142Y-61381714D01*
X140025523Y-61476952D01*
X139977904Y-61524571D01*
X139882666Y-61572190D01*
X139501714Y-61572190D01*
X140406476Y-61048380D02*
X141025523Y-61048380D01*
X140692190Y-61429333D01*
X140835047Y-61429333D01*
X140930285Y-61476952D01*
X140977904Y-61524571D01*
X141025523Y-61619809D01*
X141025523Y-61857904D01*
X140977904Y-61953142D01*
X140930285Y-62000761D01*
X140835047Y-62048380D01*
X140549333Y-62048380D01*
X140454095Y-62000761D01*
X140406476Y-61953142D01*
X141644571Y-61048380D02*
X141739809Y-61048380D01*
X141835047Y-61096000D01*
X141882666Y-61143619D01*
X141930285Y-61238857D01*
X141977904Y-61429333D01*
X141977904Y-61667428D01*
X141930285Y-61857904D01*
X141882666Y-61953142D01*
X141835047Y-62000761D01*
X141739809Y-62048380D01*
X141644571Y-62048380D01*
X141549333Y-62000761D01*
X141501714Y-61953142D01*
X141454095Y-61857904D01*
X141406476Y-61667428D01*
X141406476Y-61429333D01*
X141454095Y-61238857D01*
X141501714Y-61143619D01*
X141549333Y-61096000D01*
X141644571Y-61048380D01*
%TO.C,R13*%
X192476380Y-102491857D02*
X192000190Y-102825190D01*
X192476380Y-103063285D02*
X191476380Y-103063285D01*
X191476380Y-102682333D01*
X191524000Y-102587095D01*
X191571619Y-102539476D01*
X191666857Y-102491857D01*
X191809714Y-102491857D01*
X191904952Y-102539476D01*
X191952571Y-102587095D01*
X192000190Y-102682333D01*
X192000190Y-103063285D01*
X192476380Y-101539476D02*
X192476380Y-102110904D01*
X192476380Y-101825190D02*
X191476380Y-101825190D01*
X191619238Y-101920428D01*
X191714476Y-102015666D01*
X191762095Y-102110904D01*
X191476380Y-101206142D02*
X191476380Y-100587095D01*
X191857333Y-100920428D01*
X191857333Y-100777571D01*
X191904952Y-100682333D01*
X191952571Y-100634714D01*
X192047809Y-100587095D01*
X192285904Y-100587095D01*
X192381142Y-100634714D01*
X192428761Y-100682333D01*
X192476380Y-100777571D01*
X192476380Y-101063285D01*
X192428761Y-101158523D01*
X192381142Y-101206142D01*
%TO.C,J16*%
X216360476Y-93686380D02*
X216360476Y-94400666D01*
X216312857Y-94543523D01*
X216217619Y-94638761D01*
X216074761Y-94686380D01*
X215979523Y-94686380D01*
X217360476Y-94686380D02*
X216789047Y-94686380D01*
X217074761Y-94686380D02*
X217074761Y-93686380D01*
X216979523Y-93829238D01*
X216884285Y-93924476D01*
X216789047Y-93972095D01*
X218217619Y-93686380D02*
X218027142Y-93686380D01*
X217931904Y-93734000D01*
X217884285Y-93781619D01*
X217789047Y-93924476D01*
X217741428Y-94114952D01*
X217741428Y-94495904D01*
X217789047Y-94591142D01*
X217836666Y-94638761D01*
X217931904Y-94686380D01*
X218122380Y-94686380D01*
X218217619Y-94638761D01*
X218265238Y-94591142D01*
X218312857Y-94495904D01*
X218312857Y-94257809D01*
X218265238Y-94162571D01*
X218217619Y-94114952D01*
X218122380Y-94067333D01*
X217931904Y-94067333D01*
X217836666Y-94114952D01*
X217789047Y-94162571D01*
X217741428Y-94257809D01*
%TO.C,D16*%
X143288380Y-75387285D02*
X142288380Y-75387285D01*
X142288380Y-75149190D01*
X142336000Y-75006333D01*
X142431238Y-74911095D01*
X142526476Y-74863476D01*
X142716952Y-74815857D01*
X142859809Y-74815857D01*
X143050285Y-74863476D01*
X143145523Y-74911095D01*
X143240761Y-75006333D01*
X143288380Y-75149190D01*
X143288380Y-75387285D01*
X143288380Y-73863476D02*
X143288380Y-74434904D01*
X143288380Y-74149190D02*
X142288380Y-74149190D01*
X142431238Y-74244428D01*
X142526476Y-74339666D01*
X142574095Y-74434904D01*
X142288380Y-73006333D02*
X142288380Y-73196809D01*
X142336000Y-73292047D01*
X142383619Y-73339666D01*
X142526476Y-73434904D01*
X142716952Y-73482523D01*
X143097904Y-73482523D01*
X143193142Y-73434904D01*
X143240761Y-73387285D01*
X143288380Y-73292047D01*
X143288380Y-73101571D01*
X143240761Y-73006333D01*
X143193142Y-72958714D01*
X143097904Y-72911095D01*
X142859809Y-72911095D01*
X142764571Y-72958714D01*
X142716952Y-73006333D01*
X142669333Y-73101571D01*
X142669333Y-73292047D01*
X142716952Y-73387285D01*
X142764571Y-73434904D01*
X142859809Y-73482523D01*
%TO.C,J3*%
X204898666Y-77728380D02*
X204898666Y-78442666D01*
X204851047Y-78585523D01*
X204755809Y-78680761D01*
X204612952Y-78728380D01*
X204517714Y-78728380D01*
X205279619Y-77728380D02*
X205898666Y-77728380D01*
X205565333Y-78109333D01*
X205708190Y-78109333D01*
X205803428Y-78156952D01*
X205851047Y-78204571D01*
X205898666Y-78299809D01*
X205898666Y-78537904D01*
X205851047Y-78633142D01*
X205803428Y-78680761D01*
X205708190Y-78728380D01*
X205422476Y-78728380D01*
X205327238Y-78680761D01*
X205279619Y-78633142D01*
%TO.C,C2*%
X192873333Y-61317142D02*
X192825714Y-61364761D01*
X192682857Y-61412380D01*
X192587619Y-61412380D01*
X192444761Y-61364761D01*
X192349523Y-61269523D01*
X192301904Y-61174285D01*
X192254285Y-60983809D01*
X192254285Y-60840952D01*
X192301904Y-60650476D01*
X192349523Y-60555238D01*
X192444761Y-60460000D01*
X192587619Y-60412380D01*
X192682857Y-60412380D01*
X192825714Y-60460000D01*
X192873333Y-60507619D01*
X193254285Y-60507619D02*
X193301904Y-60460000D01*
X193397142Y-60412380D01*
X193635238Y-60412380D01*
X193730476Y-60460000D01*
X193778095Y-60507619D01*
X193825714Y-60602857D01*
X193825714Y-60698095D01*
X193778095Y-60840952D01*
X193206666Y-61412380D01*
X193825714Y-61412380D01*
%TO.C,U6*%
X222340095Y-67238380D02*
X222340095Y-68047904D01*
X222387714Y-68143142D01*
X222435333Y-68190761D01*
X222530571Y-68238380D01*
X222721047Y-68238380D01*
X222816285Y-68190761D01*
X222863904Y-68143142D01*
X222911523Y-68047904D01*
X222911523Y-67238380D01*
X223816285Y-67238380D02*
X223625809Y-67238380D01*
X223530571Y-67286000D01*
X223482952Y-67333619D01*
X223387714Y-67476476D01*
X223340095Y-67666952D01*
X223340095Y-68047904D01*
X223387714Y-68143142D01*
X223435333Y-68190761D01*
X223530571Y-68238380D01*
X223721047Y-68238380D01*
X223816285Y-68190761D01*
X223863904Y-68143142D01*
X223911523Y-68047904D01*
X223911523Y-67809809D01*
X223863904Y-67714571D01*
X223816285Y-67666952D01*
X223721047Y-67619333D01*
X223530571Y-67619333D01*
X223435333Y-67666952D01*
X223387714Y-67714571D01*
X223340095Y-67809809D01*
%TO.C,J22*%
X173436380Y-42719523D02*
X174150666Y-42719523D01*
X174293523Y-42767142D01*
X174388761Y-42862380D01*
X174436380Y-43005238D01*
X174436380Y-43100476D01*
X173531619Y-42290952D02*
X173484000Y-42243333D01*
X173436380Y-42148095D01*
X173436380Y-41910000D01*
X173484000Y-41814761D01*
X173531619Y-41767142D01*
X173626857Y-41719523D01*
X173722095Y-41719523D01*
X173864952Y-41767142D01*
X174436380Y-42338571D01*
X174436380Y-41719523D01*
X173531619Y-41338571D02*
X173484000Y-41290952D01*
X173436380Y-41195714D01*
X173436380Y-40957619D01*
X173484000Y-40862380D01*
X173531619Y-40814761D01*
X173626857Y-40767142D01*
X173722095Y-40767142D01*
X173864952Y-40814761D01*
X174436380Y-41386190D01*
X174436380Y-40767142D01*
%TO.C,U4*%
X174338380Y-77225904D02*
X175147904Y-77225904D01*
X175243142Y-77178285D01*
X175290761Y-77130666D01*
X175338380Y-77035428D01*
X175338380Y-76844952D01*
X175290761Y-76749714D01*
X175243142Y-76702095D01*
X175147904Y-76654476D01*
X174338380Y-76654476D01*
X174671714Y-75749714D02*
X175338380Y-75749714D01*
X174290761Y-75987809D02*
X175005047Y-76225904D01*
X175005047Y-75606857D01*
%TO.C,J13*%
X172124476Y-93686380D02*
X172124476Y-94400666D01*
X172076857Y-94543523D01*
X171981619Y-94638761D01*
X171838761Y-94686380D01*
X171743523Y-94686380D01*
X173124476Y-94686380D02*
X172553047Y-94686380D01*
X172838761Y-94686380D02*
X172838761Y-93686380D01*
X172743523Y-93829238D01*
X172648285Y-93924476D01*
X172553047Y-93972095D01*
X173457809Y-93686380D02*
X174076857Y-93686380D01*
X173743523Y-94067333D01*
X173886380Y-94067333D01*
X173981619Y-94114952D01*
X174029238Y-94162571D01*
X174076857Y-94257809D01*
X174076857Y-94495904D01*
X174029238Y-94591142D01*
X173981619Y-94638761D01*
X173886380Y-94686380D01*
X173600666Y-94686380D01*
X173505428Y-94638761D01*
X173457809Y-94591142D01*
%TO.C,R23*%
X172156380Y-102750857D02*
X171680190Y-103084190D01*
X172156380Y-103322285D02*
X171156380Y-103322285D01*
X171156380Y-102941333D01*
X171204000Y-102846095D01*
X171251619Y-102798476D01*
X171346857Y-102750857D01*
X171489714Y-102750857D01*
X171584952Y-102798476D01*
X171632571Y-102846095D01*
X171680190Y-102941333D01*
X171680190Y-103322285D01*
X171251619Y-102369904D02*
X171204000Y-102322285D01*
X171156380Y-102227047D01*
X171156380Y-101988952D01*
X171204000Y-101893714D01*
X171251619Y-101846095D01*
X171346857Y-101798476D01*
X171442095Y-101798476D01*
X171584952Y-101846095D01*
X172156380Y-102417523D01*
X172156380Y-101798476D01*
X171156380Y-101465142D02*
X171156380Y-100846095D01*
X171537333Y-101179428D01*
X171537333Y-101036571D01*
X171584952Y-100941333D01*
X171632571Y-100893714D01*
X171727809Y-100846095D01*
X171965904Y-100846095D01*
X172061142Y-100893714D01*
X172108761Y-100941333D01*
X172156380Y-101036571D01*
X172156380Y-101322285D01*
X172108761Y-101417523D01*
X172061142Y-101465142D01*
%TO.C,D11*%
X144586714Y-83676380D02*
X144586714Y-82676380D01*
X144824809Y-82676380D01*
X144967666Y-82724000D01*
X145062904Y-82819238D01*
X145110523Y-82914476D01*
X145158142Y-83104952D01*
X145158142Y-83247809D01*
X145110523Y-83438285D01*
X145062904Y-83533523D01*
X144967666Y-83628761D01*
X144824809Y-83676380D01*
X144586714Y-83676380D01*
X146110523Y-83676380D02*
X145539095Y-83676380D01*
X145824809Y-83676380D02*
X145824809Y-82676380D01*
X145729571Y-82819238D01*
X145634333Y-82914476D01*
X145539095Y-82962095D01*
X147062904Y-83676380D02*
X146491476Y-83676380D01*
X146777190Y-83676380D02*
X146777190Y-82676380D01*
X146681952Y-82819238D01*
X146586714Y-82914476D01*
X146491476Y-82962095D01*
%TO.C,U1*%
X188026380Y-51053904D02*
X188835904Y-51053904D01*
X188931142Y-51006285D01*
X188978761Y-50958666D01*
X189026380Y-50863428D01*
X189026380Y-50672952D01*
X188978761Y-50577714D01*
X188931142Y-50530095D01*
X188835904Y-50482476D01*
X188026380Y-50482476D01*
X189026380Y-49482476D02*
X189026380Y-50053904D01*
X189026380Y-49768190D02*
X188026380Y-49768190D01*
X188169238Y-49863428D01*
X188264476Y-49958666D01*
X188312095Y-50053904D01*
D13*
%TO.C,J4*%
X153808000Y-88770000D02*
X153808000Y-91270000D01*
X154108000Y-89470000D02*
X155108000Y-89470000D01*
X154108000Y-86950000D02*
X154108000Y-90970000D01*
X164328000Y-90970000D02*
X164328000Y-86950000D01*
X163828000Y-87450000D02*
X163828000Y-88660000D01*
X154608000Y-87450000D02*
X163828000Y-87450000D01*
X163328000Y-89470000D02*
X163328000Y-90970000D01*
X164328000Y-89470000D02*
X163328000Y-89470000D01*
X155108000Y-89470000D02*
X155108000Y-90970000D01*
X154608000Y-88660000D02*
X154608000Y-87450000D01*
X153808000Y-91270000D02*
X156308000Y-91270000D01*
X154108000Y-88660000D02*
X154608000Y-88660000D01*
X164328000Y-86950000D02*
X154108000Y-86950000D01*
X163828000Y-88660000D02*
X164328000Y-88660000D01*
X154108000Y-90970000D02*
X164328000Y-90970000D01*
%TO.C,J19*%
X194828000Y-88660000D02*
X195328000Y-88660000D01*
X195328000Y-87450000D02*
X204548000Y-87450000D01*
X194828000Y-86950000D02*
X194828000Y-90970000D01*
X205048000Y-89470000D02*
X204048000Y-89470000D01*
X194828000Y-90970000D02*
X205048000Y-90970000D01*
X204048000Y-89470000D02*
X204048000Y-90970000D01*
X194528000Y-88770000D02*
X194528000Y-91270000D01*
X205048000Y-86950000D02*
X194828000Y-86950000D01*
X195828000Y-89470000D02*
X195828000Y-90970000D01*
X194828000Y-89470000D02*
X195828000Y-89470000D01*
X204548000Y-87450000D02*
X204548000Y-88660000D01*
X195328000Y-88660000D02*
X195328000Y-87450000D01*
X205048000Y-90970000D02*
X205048000Y-86950000D01*
X194528000Y-91270000D02*
X197028000Y-91270000D01*
X204548000Y-88660000D02*
X205048000Y-88660000D01*
%TO.C,J6*%
X155956000Y-41452000D02*
X155956000Y-41952000D01*
X157666000Y-41452000D02*
X153646000Y-41452000D01*
X153346000Y-41152000D02*
X153346000Y-43652000D01*
X155146000Y-55672000D02*
X153646000Y-55672000D01*
X155956000Y-41952000D02*
X157166000Y-41952000D01*
X157666000Y-56672000D02*
X157666000Y-41452000D01*
X157166000Y-56172000D02*
X155956000Y-56172000D01*
X155146000Y-56672000D02*
X155146000Y-55672000D01*
X153646000Y-56672000D02*
X157666000Y-56672000D01*
X155956000Y-56172000D02*
X155956000Y-56672000D01*
X155146000Y-42452000D02*
X153646000Y-42452000D01*
X155846000Y-41152000D02*
X153346000Y-41152000D01*
X157166000Y-41952000D02*
X157166000Y-56172000D01*
X155146000Y-41452000D02*
X155146000Y-42452000D01*
X153646000Y-41452000D02*
X153646000Y-56672000D01*
%TO.C,J21*%
X205048000Y-67496000D02*
X205048000Y-63476000D01*
X205048000Y-64976000D02*
X204048000Y-64976000D01*
X204548000Y-65786000D02*
X204548000Y-66996000D01*
X195828000Y-64976000D02*
X195828000Y-63476000D01*
X195328000Y-65786000D02*
X194828000Y-65786000D01*
X194828000Y-63476000D02*
X194828000Y-67496000D01*
X205348000Y-65676000D02*
X205348000Y-63176000D01*
X205048000Y-65786000D02*
X204548000Y-65786000D01*
X204548000Y-66996000D02*
X195328000Y-66996000D01*
X194828000Y-67496000D02*
X205048000Y-67496000D01*
X205348000Y-63176000D02*
X202848000Y-63176000D01*
X204048000Y-64976000D02*
X204048000Y-63476000D01*
X195328000Y-66996000D02*
X195328000Y-65786000D01*
X194828000Y-64976000D02*
X195828000Y-64976000D01*
X205048000Y-63476000D02*
X194828000Y-63476000D01*
%TO.C,R6*%
X184653422Y-42978000D02*
X185170578Y-42978000D01*
X184653422Y-44398000D02*
X185170578Y-44398000D01*
%TO.C,D12*%
X236002000Y-107662000D02*
X236002000Y-107506000D01*
X236002000Y-105346000D02*
X236002000Y-105190000D01*
X233400870Y-107505837D02*
G75*
G03*
X235482961Y-107506000I1041130J1079837D01*
G01*
X232769665Y-107504608D02*
G75*
G03*
X236002000Y-107661516I1672335J1078608D01*
G01*
X233400870Y-105346163D02*
G75*
G02*
X235482961Y-105346000I1041130J-1079837D01*
G01*
X232769665Y-105347392D02*
G75*
G02*
X236002000Y-105190484I1672335J-1078608D01*
G01*
%TO.C,D9*%
X177333000Y-107916000D02*
X177333000Y-107760000D01*
X177333000Y-105600000D02*
X177333000Y-105444000D01*
X174731870Y-107759837D02*
G75*
G03*
X176813961Y-107760000I1041130J1079837D01*
G01*
X174731870Y-105600163D02*
G75*
G02*
X176813961Y-105600000I1041130J-1079837D01*
G01*
X174100665Y-105601392D02*
G75*
G02*
X177333000Y-105444484I1672335J-1078608D01*
G01*
X174100665Y-107758608D02*
G75*
G03*
X177333000Y-107915516I1672335J1078608D01*
G01*
%TO.C,R21*%
X139807422Y-73361000D02*
X140324578Y-73361000D01*
X139807422Y-74781000D02*
X140324578Y-74781000D01*
%TO.C,D19*%
X185992000Y-107737000D02*
X186148000Y-107737000D01*
X183676000Y-107737000D02*
X183832000Y-107737000D01*
X185991837Y-105135870D02*
G75*
G02*
X185992000Y-107217961I-1079837J-1041130D01*
G01*
X185990608Y-104504665D02*
G75*
G02*
X186147516Y-107737000I-1078608J-1672335D01*
G01*
X183833392Y-104504665D02*
G75*
G03*
X183676484Y-107737000I1078608J-1672335D01*
G01*
X183832163Y-105135870D02*
G75*
G03*
X183832000Y-107217961I1079837J-1041130D01*
G01*
%TO.C,C7*%
X161316000Y-59410000D02*
X162516000Y-59410000D01*
X164771563Y-54890000D02*
X165836000Y-55954437D01*
X165836000Y-59410000D02*
X164636000Y-59410000D01*
X164771563Y-54890000D02*
X164636000Y-54890000D01*
X165136000Y-54150000D02*
X165136000Y-54650000D01*
X165836000Y-55954437D02*
X165836000Y-59410000D01*
X162380437Y-54890000D02*
X161316000Y-55954437D01*
X165386000Y-54400000D02*
X164886000Y-54400000D01*
X162380437Y-54890000D02*
X162516000Y-54890000D01*
X161316000Y-55954437D02*
X161316000Y-59410000D01*
%TO.C,J5*%
X136328000Y-96774000D02*
X136828000Y-96774000D01*
X146548000Y-97584000D02*
X145548000Y-97584000D01*
X136028000Y-99384000D02*
X138528000Y-99384000D01*
X136328000Y-97584000D02*
X137328000Y-97584000D01*
X136828000Y-96774000D02*
X136828000Y-95564000D01*
X146548000Y-99084000D02*
X146548000Y-95064000D01*
X146048000Y-95564000D02*
X146048000Y-96774000D01*
X136328000Y-95064000D02*
X136328000Y-99084000D01*
X136028000Y-96884000D02*
X136028000Y-99384000D01*
X136828000Y-95564000D02*
X146048000Y-95564000D01*
X145548000Y-97584000D02*
X145548000Y-99084000D01*
X146548000Y-95064000D02*
X136328000Y-95064000D01*
X136328000Y-99084000D02*
X146548000Y-99084000D01*
X146048000Y-96774000D02*
X146548000Y-96774000D01*
X137328000Y-97584000D02*
X137328000Y-99084000D01*
%TO.C,D25*%
X212152000Y-77417000D02*
X216092000Y-77417000D01*
X212152000Y-77537000D02*
X216092000Y-77537000D01*
X212152000Y-69852000D02*
X212482000Y-69852000D01*
X212482000Y-78992000D02*
X212152000Y-78992000D01*
X216092000Y-78992000D02*
X216092000Y-69852000D01*
X212152000Y-78992000D02*
X212152000Y-69852000D01*
X216092000Y-69852000D02*
X215762000Y-69852000D01*
X212152000Y-77657000D02*
X216092000Y-77657000D01*
X215762000Y-78992000D02*
X216092000Y-78992000D01*
%TO.C,R14*%
X174296000Y-102103422D02*
X174296000Y-102620578D01*
X175716000Y-102103422D02*
X175716000Y-102620578D01*
%TO.C,D26*%
X145267000Y-68092000D02*
X148357000Y-68092000D01*
X146811538Y-62542000D02*
G75*
G02*
X148356830Y-68092000I462J-2990000D01*
G01*
X146812462Y-62542000D02*
G75*
G03*
X145267170Y-68092000I-462J-2990000D01*
G01*
X149312000Y-65532000D02*
G75*
G03*
X149312000Y-65532000I-2500000J0D01*
G01*
%TO.C,RV1*%
X162999000Y-44507000D02*
X162999000Y-38167000D01*
X172769000Y-44507000D02*
X172769000Y-38167000D01*
X172769000Y-44507000D02*
X162999000Y-44507000D01*
X172769000Y-38167000D02*
X162999000Y-38167000D01*
%TO.C,D14*%
X139736000Y-107408000D02*
X139736000Y-107252000D01*
X139736000Y-105092000D02*
X139736000Y-104936000D01*
X137134870Y-107251837D02*
G75*
G03*
X139216961Y-107252000I1041130J1079837D01*
G01*
X136503665Y-105093392D02*
G75*
G02*
X139736000Y-104936484I1672335J-1078608D01*
G01*
X137134870Y-105092163D02*
G75*
G02*
X139216961Y-105092000I1041130J-1079837D01*
G01*
X136503665Y-107250608D02*
G75*
G03*
X139736000Y-107407516I1672335J1078608D01*
G01*
%TO.C,R17*%
X234240000Y-101849422D02*
X234240000Y-102366578D01*
X235660000Y-101849422D02*
X235660000Y-102366578D01*
%TO.C,D24*%
X225138000Y-53482000D02*
X222918000Y-53482000D01*
X222918000Y-53482000D02*
X222918000Y-58892000D01*
X225138000Y-58892000D02*
X225138000Y-53482000D01*
%TO.C,J14*%
X193070000Y-95272000D02*
X182850000Y-95272000D01*
X182850000Y-96982000D02*
X183350000Y-96982000D01*
X182850000Y-97792000D02*
X183850000Y-97792000D01*
X182850000Y-99292000D02*
X193070000Y-99292000D01*
X183350000Y-95772000D02*
X192570000Y-95772000D01*
X192570000Y-95772000D02*
X192570000Y-96982000D01*
X182850000Y-95272000D02*
X182850000Y-99292000D01*
X182550000Y-99592000D02*
X185050000Y-99592000D01*
X192570000Y-96982000D02*
X193070000Y-96982000D01*
X193070000Y-97792000D02*
X192070000Y-97792000D01*
X193070000Y-99292000D02*
X193070000Y-95272000D01*
X183850000Y-97792000D02*
X183850000Y-99292000D01*
X182550000Y-97092000D02*
X182550000Y-99592000D01*
X192070000Y-97792000D02*
X192070000Y-99292000D01*
X183350000Y-96982000D02*
X183350000Y-95772000D01*
%TO.C,R10*%
X140642078Y-51382000D02*
X140124922Y-51382000D01*
X140642078Y-49962000D02*
X140124922Y-49962000D01*
%TO.C,R5*%
X177795422Y-47550000D02*
X178312578Y-47550000D01*
X177795422Y-48970000D02*
X178312578Y-48970000D01*
%TO.C,J11*%
X134881000Y-73355000D02*
X133381000Y-73355000D01*
X135691000Y-72355000D02*
X135691000Y-72855000D01*
X134881000Y-72355000D02*
X134881000Y-73355000D01*
X134881000Y-81575000D02*
X133381000Y-81575000D01*
X137401000Y-72355000D02*
X133381000Y-72355000D01*
X135691000Y-72855000D02*
X136901000Y-72855000D01*
X134881000Y-82575000D02*
X134881000Y-81575000D01*
X136901000Y-82075000D02*
X135691000Y-82075000D01*
X133381000Y-72355000D02*
X133381000Y-82575000D01*
X133381000Y-82575000D02*
X137401000Y-82575000D01*
X135691000Y-82075000D02*
X135691000Y-82575000D01*
X137401000Y-82575000D02*
X137401000Y-72355000D01*
X136901000Y-72855000D02*
X136901000Y-82075000D01*
X135581000Y-72055000D02*
X133081000Y-72055000D01*
X133081000Y-72055000D02*
X133081000Y-74555000D01*
%TO.C,U2*%
X210566000Y-40620000D02*
X207116000Y-40620000D01*
X210566000Y-45740000D02*
X208616000Y-45740000D01*
X210566000Y-40620000D02*
X212516000Y-40620000D01*
X210566000Y-45740000D02*
X212516000Y-45740000D01*
%TO.C,SW1*%
X216015600Y-89175000D02*
X214662267Y-89175000D01*
X216015600Y-88215000D02*
X214662267Y-88215000D01*
X219175600Y-91320000D02*
X217791600Y-91320000D01*
X218935600Y-91080000D02*
X209035600Y-91080000D01*
X218935600Y-91080000D02*
X218935600Y-86240000D01*
X216015600Y-88025000D02*
X211955600Y-88025000D01*
X218935600Y-86240000D02*
X209035600Y-86240000D01*
X216015600Y-88815000D02*
X214662267Y-88815000D01*
X211955600Y-89295000D02*
X216015600Y-89295000D01*
X214662267Y-89295000D02*
X214662267Y-88025000D01*
X216015600Y-88575000D02*
X214662267Y-88575000D01*
X216015600Y-88095000D02*
X214662267Y-88095000D01*
X216015600Y-89055000D02*
X214662267Y-89055000D01*
X216015600Y-88935000D02*
X214662267Y-88935000D01*
X209035600Y-91080000D02*
X209035600Y-86240000D01*
X216015600Y-88335000D02*
X214662267Y-88335000D01*
X216015600Y-88695000D02*
X214662267Y-88695000D01*
X216015600Y-89295000D02*
X216015600Y-88025000D01*
X211955600Y-88025000D02*
X211955600Y-89295000D01*
X219175600Y-91320000D02*
X219175600Y-89937000D01*
X216015600Y-88455000D02*
X214662267Y-88455000D01*
%TO.C,J2*%
X224848000Y-85836000D02*
X224848000Y-83836000D01*
X225038000Y-89946000D02*
X225038000Y-87136000D01*
X225038000Y-79726000D02*
X231098000Y-79726000D01*
X225038000Y-82536000D02*
X225038000Y-79726000D01*
X231098000Y-89946000D02*
X225038000Y-89946000D01*
X238258000Y-89946000D02*
X235198000Y-89946000D01*
X238258000Y-79726000D02*
X238258000Y-89946000D01*
X235198000Y-79726000D02*
X238258000Y-79726000D01*
%TO.C,R3*%
X217761078Y-41350000D02*
X217243922Y-41350000D01*
X217761078Y-39930000D02*
X217243922Y-39930000D01*
%TO.C,J15*%
X197828000Y-95264000D02*
X207048000Y-95264000D01*
X197828000Y-96474000D02*
X197828000Y-95264000D01*
X207048000Y-95264000D02*
X207048000Y-96474000D01*
X197328000Y-97284000D02*
X198328000Y-97284000D01*
X198328000Y-97284000D02*
X198328000Y-98784000D01*
X197328000Y-98784000D02*
X207548000Y-98784000D01*
X206548000Y-97284000D02*
X206548000Y-98784000D01*
X207548000Y-94764000D02*
X197328000Y-94764000D01*
X207548000Y-97284000D02*
X206548000Y-97284000D01*
X197328000Y-94764000D02*
X197328000Y-98784000D01*
X207048000Y-96474000D02*
X207548000Y-96474000D01*
X197028000Y-99084000D02*
X199528000Y-99084000D01*
X207548000Y-98784000D02*
X207548000Y-94764000D01*
X197028000Y-96584000D02*
X197028000Y-99084000D01*
X197328000Y-96474000D02*
X197828000Y-96474000D01*
%TO.C,D1*%
X224170000Y-49624000D02*
X229580000Y-49624000D01*
X229580000Y-47404000D02*
X224170000Y-47404000D01*
X224170000Y-47404000D02*
X224170000Y-49624000D01*
%TO.C,D3*%
X204247000Y-61214000D02*
X203067000Y-61214000D01*
X202611000Y-62134000D02*
X202611000Y-60294000D01*
X203067000Y-60294000D02*
X199787000Y-60294000D01*
X198607000Y-61214000D02*
X199787000Y-61214000D01*
X199787000Y-60294000D02*
X199787000Y-62134000D01*
X203067000Y-62134000D02*
X203067000Y-60294000D01*
X202491000Y-62134000D02*
X202491000Y-60294000D01*
X199787000Y-62134000D02*
X203067000Y-62134000D01*
X202371000Y-62134000D02*
X202371000Y-60294000D01*
%TO.C,R27*%
X140309578Y-45390000D02*
X139792422Y-45390000D01*
X140309578Y-46810000D02*
X139792422Y-46810000D01*
%TO.C,EYE*%
X137092000Y-62668000D02*
X133072000Y-62668000D01*
X135382000Y-69888000D02*
X135382000Y-70388000D01*
X134572000Y-62668000D02*
X134572000Y-63668000D01*
X136592000Y-63168000D02*
X136592000Y-69888000D01*
X136592000Y-69888000D02*
X135382000Y-69888000D01*
X135272000Y-62368000D02*
X132772000Y-62368000D01*
X137092000Y-70388000D02*
X137092000Y-62668000D01*
X133072000Y-70388000D02*
X137092000Y-70388000D01*
X134572000Y-69388000D02*
X133072000Y-69388000D01*
X134572000Y-70388000D02*
X134572000Y-69388000D01*
X132772000Y-62368000D02*
X132772000Y-64868000D01*
X133072000Y-62668000D02*
X133072000Y-70388000D01*
X135382000Y-62668000D02*
X135382000Y-63168000D01*
X134572000Y-63668000D02*
X133072000Y-63668000D01*
X135382000Y-63168000D02*
X136592000Y-63168000D01*
%TO.C,R24*%
X186130000Y-101595422D02*
X186130000Y-102112578D01*
X184710000Y-101595422D02*
X184710000Y-102112578D01*
%TO.C,J1*%
X232802000Y-59048000D02*
X232802000Y-58668000D01*
X236852000Y-51428000D02*
X237112000Y-51428000D01*
X234572000Y-59048000D02*
X232802000Y-59048000D01*
X232802000Y-51428000D02*
X232802000Y-51808000D01*
X237112000Y-59048000D02*
X236852000Y-59048000D01*
X232802000Y-51428000D02*
X234572000Y-51428000D01*
%TO.C,C4*%
X203856000Y-50451936D02*
X203856000Y-51656064D01*
X202036000Y-50451936D02*
X202036000Y-51656064D01*
%TO.C,C5*%
X197464000Y-56990064D02*
X197464000Y-55785936D01*
X199284000Y-56990064D02*
X199284000Y-55785936D01*
%TO.C,C6*%
X190405936Y-55012000D02*
X191610064Y-55012000D01*
X190405936Y-53192000D02*
X191610064Y-53192000D01*
%TO.C,TH1*%
X192256000Y-40677000D02*
X192256000Y-43627000D01*
X199116000Y-38417000D02*
X191496000Y-38417000D01*
X194806000Y-38427000D02*
X194806000Y-39177000D01*
X195806000Y-39177000D02*
X195806000Y-38427000D01*
X197306000Y-38427000D02*
X197306000Y-39177000D01*
X193306000Y-38427000D02*
X191506000Y-38427000D01*
X198356000Y-40677000D02*
X198356000Y-43627000D01*
X198356000Y-43627000D02*
X195306000Y-43627000D01*
X192456000Y-38127000D02*
X191206000Y-38127000D01*
X191506000Y-38427000D02*
X191506000Y-39177000D01*
X191206000Y-38127000D02*
X191206000Y-39377000D01*
X194806000Y-39177000D02*
X195806000Y-39177000D01*
X191506000Y-39177000D02*
X193306000Y-39177000D01*
X199106000Y-39177000D02*
X199106000Y-38427000D01*
X199106000Y-40677000D02*
X198356000Y-40677000D01*
X197306000Y-39177000D02*
X199106000Y-39177000D01*
X199116000Y-44387000D02*
X199116000Y-38417000D01*
X191496000Y-44387000D02*
X199116000Y-44387000D01*
X191506000Y-40677000D02*
X192256000Y-40677000D01*
X199106000Y-38427000D02*
X197306000Y-38427000D01*
X192256000Y-43627000D02*
X195306000Y-43627000D01*
X191496000Y-38417000D02*
X191496000Y-44387000D01*
X195806000Y-38427000D02*
X194806000Y-38427000D01*
X193306000Y-39177000D02*
X193306000Y-38427000D01*
%TO.C,R26*%
X214832000Y-102357422D02*
X214832000Y-102874578D01*
X213412000Y-102357422D02*
X213412000Y-102874578D01*
%TO.C,R7*%
X162054000Y-50175279D02*
X162054000Y-49849721D01*
X161034000Y-50175279D02*
X161034000Y-49849721D01*
%TO.C,D13*%
X142961000Y-104682000D02*
X142961000Y-104838000D01*
X142961000Y-106998000D02*
X142961000Y-107154000D01*
X146193335Y-104839392D02*
G75*
G03*
X142961000Y-104682484I-1672335J-1078608D01*
G01*
X145562130Y-106997837D02*
G75*
G02*
X143480039Y-106998000I-1041130J1079837D01*
G01*
X145562130Y-104838163D02*
G75*
G03*
X143480039Y-104838000I-1041130J-1079837D01*
G01*
X146193335Y-106996608D02*
G75*
G02*
X142961000Y-107153516I-1672335J1078608D01*
G01*
%TO.C,J20*%
X145286000Y-56886000D02*
X145286000Y-55886000D01*
X143786000Y-41666000D02*
X143786000Y-56886000D01*
X146096000Y-56386000D02*
X146096000Y-56886000D01*
X146096000Y-41666000D02*
X146096000Y-42166000D01*
X147306000Y-42166000D02*
X147306000Y-56386000D01*
X145286000Y-42666000D02*
X143786000Y-42666000D01*
X147806000Y-41666000D02*
X143786000Y-41666000D01*
X146096000Y-42166000D02*
X147306000Y-42166000D01*
X145986000Y-41366000D02*
X143486000Y-41366000D01*
X145286000Y-41666000D02*
X145286000Y-42666000D01*
X143786000Y-56886000D02*
X147806000Y-56886000D01*
X143486000Y-41366000D02*
X143486000Y-43866000D01*
X145286000Y-55886000D02*
X143786000Y-55886000D01*
X147806000Y-56886000D02*
X147806000Y-41666000D01*
X147306000Y-56386000D02*
X146096000Y-56386000D01*
%TO.C,R9*%
X140642078Y-55954000D02*
X140124922Y-55954000D01*
X140642078Y-54534000D02*
X140124922Y-54534000D01*
%TO.C,J18*%
X191160800Y-87450000D02*
X191160800Y-88660000D01*
X182440800Y-89470000D02*
X182440800Y-90970000D01*
X181440800Y-86950000D02*
X181440800Y-90970000D01*
X191660800Y-89470000D02*
X190660800Y-89470000D01*
X191660800Y-86950000D02*
X181440800Y-86950000D01*
X191660800Y-90970000D02*
X191660800Y-86950000D01*
X181140800Y-91270000D02*
X183640800Y-91270000D01*
X181940800Y-88660000D02*
X181940800Y-87450000D01*
X181440800Y-88660000D02*
X181940800Y-88660000D01*
X181440800Y-89470000D02*
X182440800Y-89470000D01*
X190660800Y-89470000D02*
X190660800Y-90970000D01*
X181440800Y-90970000D02*
X191660800Y-90970000D01*
X191160800Y-88660000D02*
X191660800Y-88660000D01*
X181140800Y-88770000D02*
X181140800Y-91270000D01*
X181940800Y-87450000D02*
X191160800Y-87450000D01*
%TO.C,D7*%
X203418000Y-105190000D02*
X203418000Y-105346000D01*
X203418000Y-107506000D02*
X203418000Y-107662000D01*
X206019130Y-107505837D02*
G75*
G02*
X203937039Y-107506000I-1041130J1079837D01*
G01*
X206019130Y-105346163D02*
G75*
G03*
X203937039Y-105346000I-1041130J-1079837D01*
G01*
X206650335Y-105347392D02*
G75*
G03*
X203418000Y-105190484I-1672335J-1078608D01*
G01*
X206650335Y-107504608D02*
G75*
G02*
X203418000Y-107661516I-1672335J1078608D01*
G01*
%TO.C,F1*%
X226484000Y-70202000D02*
X226334000Y-70332000D01*
X226094000Y-69072000D02*
X226354000Y-69222000D01*
X225584000Y-69092000D02*
X225834000Y-69042000D01*
X226564000Y-70022000D02*
X226484000Y-70202000D01*
X226354000Y-69222000D02*
X226524000Y-69442000D01*
X225424000Y-69182000D02*
X225584000Y-69092000D01*
X225834000Y-69042000D02*
X226094000Y-69072000D01*
X226604000Y-69732000D02*
X226564000Y-70022000D01*
X225284000Y-69302000D02*
X225424000Y-69182000D01*
X226524000Y-69442000D02*
X226604000Y-69732000D01*
X227254000Y-73152000D02*
G75*
G03*
X227254000Y-73152000I-4750000J0D01*
G01*
%TO.C,J8*%
X163866000Y-64976000D02*
X162866000Y-64976000D01*
X153646000Y-63476000D02*
X153646000Y-67496000D01*
X153646000Y-67496000D02*
X163866000Y-67496000D01*
X163866000Y-63476000D02*
X153646000Y-63476000D01*
X154146000Y-65786000D02*
X153646000Y-65786000D01*
X164166000Y-63176000D02*
X161666000Y-63176000D01*
X163866000Y-65786000D02*
X163366000Y-65786000D01*
X154146000Y-66996000D02*
X154146000Y-65786000D01*
X153646000Y-64976000D02*
X154646000Y-64976000D01*
X163366000Y-66996000D02*
X154146000Y-66996000D01*
X162866000Y-64976000D02*
X162866000Y-63476000D01*
X163366000Y-65786000D02*
X163366000Y-66996000D01*
X154646000Y-64976000D02*
X154646000Y-63476000D01*
X164166000Y-65676000D02*
X164166000Y-63176000D01*
X163866000Y-67496000D02*
X163866000Y-63476000D01*
%TO.C,R8*%
X178002000Y-59519078D02*
X178002000Y-59001922D01*
X176582000Y-59519078D02*
X176582000Y-59001922D01*
%TO.C,C9*%
X216810000Y-64356064D02*
X216810000Y-63151936D01*
X214990000Y-64356064D02*
X214990000Y-63151936D01*
%TO.C,D21*%
X212886000Y-108753000D02*
X213042000Y-108753000D01*
X215202000Y-108753000D02*
X215358000Y-108753000D01*
X215201837Y-106151870D02*
G75*
G02*
X215202000Y-108233961I-1079837J-1041130D01*
G01*
X213042163Y-106151870D02*
G75*
G03*
X213042000Y-108233961I1079837J-1041130D01*
G01*
X215200608Y-105520665D02*
G75*
G02*
X215357516Y-108753000I-1078608J-1672335D01*
G01*
X213043392Y-105520665D02*
G75*
G03*
X212886484Y-108753000I1078608J-1672335D01*
G01*
%TO.C,U3*%
X169672000Y-48494000D02*
X167722000Y-48494000D01*
X169672000Y-48494000D02*
X171622000Y-48494000D01*
X169672000Y-53614000D02*
X167722000Y-53614000D01*
X169672000Y-53614000D02*
X173122000Y-53614000D01*
%TO.C,R18*%
X143508000Y-101437221D02*
X143508000Y-101762779D01*
X144528000Y-101437221D02*
X144528000Y-101762779D01*
%TO.C,R22*%
X155142000Y-101087422D02*
X155142000Y-101604578D01*
X153722000Y-101087422D02*
X153722000Y-101604578D01*
%TO.C,J10*%
X226538000Y-97444000D02*
X227038000Y-97444000D01*
X227038000Y-97444000D02*
X227038000Y-96234000D01*
X236758000Y-95734000D02*
X226538000Y-95734000D01*
X236258000Y-96234000D02*
X236258000Y-97444000D01*
X226238000Y-100054000D02*
X228738000Y-100054000D01*
X227538000Y-98254000D02*
X227538000Y-99754000D01*
X236758000Y-98254000D02*
X235758000Y-98254000D01*
X226538000Y-99754000D02*
X236758000Y-99754000D01*
X226238000Y-97554000D02*
X226238000Y-100054000D01*
X235758000Y-98254000D02*
X235758000Y-99754000D01*
X226538000Y-95734000D02*
X226538000Y-99754000D01*
X236258000Y-97444000D02*
X236758000Y-97444000D01*
X236758000Y-99754000D02*
X236758000Y-95734000D01*
X226538000Y-98254000D02*
X227538000Y-98254000D01*
X227038000Y-96234000D02*
X236258000Y-96234000D01*
%TO.C,R2*%
X182122578Y-41096000D02*
X181605422Y-41096000D01*
X182122578Y-39676000D02*
X181605422Y-39676000D01*
%TO.C,C8*%
X176382000Y-53245936D02*
X176382000Y-54450064D01*
X178202000Y-53245936D02*
X178202000Y-54450064D01*
%TO.C,D22*%
X134048000Y-43985154D02*
X133892000Y-43985154D01*
X136364000Y-43985154D02*
X136208000Y-43985154D01*
X134048163Y-46586284D02*
G75*
G02*
X134048000Y-44504193I1079837J1041130D01*
G01*
X134049392Y-47217489D02*
G75*
G02*
X133892484Y-43985154I1078608J1672335D01*
G01*
X136207837Y-46586284D02*
G75*
G03*
X136208000Y-44504193I-1079837J1041130D01*
G01*
X136206608Y-47217489D02*
G75*
G03*
X136363516Y-43985154I-1078608J1672335D01*
G01*
%TO.C,R25*%
X198426000Y-101341422D02*
X198426000Y-101858578D01*
X199846000Y-101341422D02*
X199846000Y-101858578D01*
%TO.C,C3*%
X185060000Y-55785936D02*
X185060000Y-56990064D01*
X183240000Y-55785936D02*
X183240000Y-56990064D01*
%TO.C,J12*%
X152634000Y-97492000D02*
X153634000Y-97492000D01*
X152634000Y-98992000D02*
X162854000Y-98992000D01*
X161854000Y-97492000D02*
X161854000Y-98992000D01*
X153134000Y-95472000D02*
X162354000Y-95472000D01*
X152334000Y-99292000D02*
X154834000Y-99292000D01*
X162354000Y-95472000D02*
X162354000Y-96682000D01*
X162854000Y-94972000D02*
X152634000Y-94972000D01*
X153634000Y-97492000D02*
X153634000Y-98992000D01*
X162354000Y-96682000D02*
X162854000Y-96682000D01*
X152634000Y-94972000D02*
X152634000Y-98992000D01*
X162854000Y-97492000D02*
X161854000Y-97492000D01*
X152334000Y-96792000D02*
X152334000Y-99292000D01*
X162854000Y-98992000D02*
X162854000Y-94972000D01*
X153134000Y-96682000D02*
X153134000Y-95472000D01*
X152634000Y-96682000D02*
X153134000Y-96682000D01*
%TO.C,D18*%
X171260000Y-107991000D02*
X171416000Y-107991000D01*
X168944000Y-107991000D02*
X169100000Y-107991000D01*
X171259837Y-105389870D02*
G75*
G02*
X171260000Y-107471961I-1079837J-1041130D01*
G01*
X171258608Y-104758665D02*
G75*
G02*
X171415516Y-107991000I-1078608J-1672335D01*
G01*
X169100163Y-105389870D02*
G75*
G03*
X169100000Y-107471961I1079837J-1041130D01*
G01*
X169101392Y-104758665D02*
G75*
G03*
X168944484Y-107991000I1078608J-1672335D01*
G01*
%TO.C,D17*%
X155738000Y-104838000D02*
X155738000Y-104682000D01*
X155738000Y-107154000D02*
X155738000Y-106998000D01*
X153136870Y-104838163D02*
G75*
G02*
X155218961Y-104838000I1041130J-1079837D01*
G01*
X152505665Y-104839392D02*
G75*
G02*
X155738000Y-104682484I1672335J-1078608D01*
G01*
X152505665Y-106996608D02*
G75*
G03*
X155738000Y-107153516I1672335J1078608D01*
G01*
X153136870Y-106997837D02*
G75*
G03*
X155218961Y-106998000I1041130J1079837D01*
G01*
%TO.C,J7*%
X167243400Y-88770000D02*
X167243400Y-91270000D01*
X167243400Y-91270000D02*
X169743400Y-91270000D01*
X176763400Y-89470000D02*
X176763400Y-90970000D01*
X167543400Y-86950000D02*
X167543400Y-90970000D01*
X167543400Y-89470000D02*
X168543400Y-89470000D01*
X177263400Y-87450000D02*
X177263400Y-88660000D01*
X177763400Y-86950000D02*
X167543400Y-86950000D01*
X168043400Y-87450000D02*
X177263400Y-87450000D01*
X177263400Y-88660000D02*
X177763400Y-88660000D01*
X167543400Y-88660000D02*
X168043400Y-88660000D01*
X177763400Y-89470000D02*
X176763400Y-89470000D01*
X177763400Y-90970000D02*
X177763400Y-86950000D01*
X168543400Y-89470000D02*
X168543400Y-90970000D01*
X168043400Y-88660000D02*
X168043400Y-87450000D01*
X167543400Y-90970000D02*
X177763400Y-90970000D01*
%TO.C,L1*%
X195824000Y-51082260D02*
G75*
G03*
X195824000Y-45373740I-1260000J2854260D01*
G01*
X193304000Y-51082260D02*
G75*
G02*
X193304000Y-45373740I1260000J2854260D01*
G01*
%TO.C,R29*%
X234430000Y-66910578D02*
X234430000Y-66393422D01*
X235850000Y-66910578D02*
X235850000Y-66393422D01*
%TO.C,R20*%
X229818000Y-101849422D02*
X229818000Y-102366578D01*
X228398000Y-101849422D02*
X228398000Y-102366578D01*
%TO.C,R16*%
X139949422Y-79554000D02*
X140466578Y-79554000D01*
X139949422Y-80974000D02*
X140466578Y-80974000D01*
%TO.C,D20*%
X200950000Y-105346000D02*
X200950000Y-105190000D01*
X200950000Y-107662000D02*
X200950000Y-107506000D01*
X197717665Y-105347392D02*
G75*
G02*
X200950000Y-105190484I1672335J-1078608D01*
G01*
X198348870Y-105346163D02*
G75*
G02*
X200430961Y-105346000I1041130J-1079837D01*
G01*
X197717665Y-107504608D02*
G75*
G03*
X200950000Y-107661516I1672335J1078608D01*
G01*
X198348870Y-107505837D02*
G75*
G03*
X200430961Y-107506000I1041130J1079837D01*
G01*
%TO.C,D23*%
X133738000Y-41212000D02*
X133738000Y-41368000D01*
X133738000Y-38896000D02*
X133738000Y-39052000D01*
X136970335Y-41210608D02*
G75*
G02*
X133738000Y-41367516I-1672335J1078608D01*
G01*
X136970335Y-39053392D02*
G75*
G03*
X133738000Y-38896484I-1672335J-1078608D01*
G01*
X136339130Y-41211837D02*
G75*
G02*
X134257039Y-41212000I-1041130J1079837D01*
G01*
X136339130Y-39052163D02*
G75*
G03*
X134257039Y-39052000I-1041130J-1079837D01*
G01*
%TO.C,D5*%
X133738000Y-49732308D02*
X133738000Y-49888308D01*
X133738000Y-52048308D02*
X133738000Y-52204308D01*
X136339130Y-49888471D02*
G75*
G03*
X134257039Y-49888308I-1041130J-1079837D01*
G01*
X136339130Y-52048145D02*
G75*
G02*
X134257039Y-52048308I-1041130J1079837D01*
G01*
X136970335Y-49889700D02*
G75*
G03*
X133738000Y-49732792I-1672335J-1078608D01*
G01*
X136970335Y-52046916D02*
G75*
G02*
X133738000Y-52203824I-1672335J1078608D01*
G01*
%TO.C,R12*%
X205688000Y-101595422D02*
X205688000Y-102112578D01*
X204268000Y-101595422D02*
X204268000Y-102112578D01*
%TO.C,J17*%
X182100666Y-64976000D02*
X182100666Y-63476000D01*
X181100666Y-64976000D02*
X182100666Y-64976000D01*
X190820666Y-65786000D02*
X190820666Y-66996000D01*
X191620666Y-63176000D02*
X189120666Y-63176000D01*
X181600666Y-66996000D02*
X181600666Y-65786000D01*
X191320666Y-65786000D02*
X190820666Y-65786000D01*
X190320666Y-64976000D02*
X190320666Y-63476000D01*
X181100666Y-67496000D02*
X191320666Y-67496000D01*
X190820666Y-66996000D02*
X181600666Y-66996000D01*
X181600666Y-65786000D02*
X181100666Y-65786000D01*
X191320666Y-63476000D02*
X181100666Y-63476000D01*
X191620666Y-65676000D02*
X191620666Y-63176000D01*
X181100666Y-63476000D02*
X181100666Y-67496000D01*
X191320666Y-64976000D02*
X190320666Y-64976000D01*
X191320666Y-67496000D02*
X191320666Y-63476000D01*
%TO.C,D6*%
X220790000Y-108494000D02*
X220946000Y-108494000D01*
X218474000Y-108494000D02*
X218630000Y-108494000D01*
X220789837Y-105892870D02*
G75*
G02*
X220790000Y-107974961I-1079837J-1041130D01*
G01*
X218630163Y-105892870D02*
G75*
G03*
X218630000Y-107974961I1079837J-1041130D01*
G01*
X220788608Y-105261665D02*
G75*
G02*
X220945516Y-108494000I-1078608J-1672335D01*
G01*
X218631392Y-105261665D02*
G75*
G03*
X218474484Y-108494000I1078608J-1672335D01*
G01*
%TO.C,R11*%
X219912000Y-102103422D02*
X219912000Y-102620578D01*
X218492000Y-102103422D02*
X218492000Y-102620578D01*
%TO.C,D10*%
X161839000Y-104584000D02*
X161839000Y-104428000D01*
X161839000Y-106900000D02*
X161839000Y-106744000D01*
X158606665Y-106742608D02*
G75*
G03*
X161839000Y-106899516I1672335J1078608D01*
G01*
X158606665Y-104585392D02*
G75*
G02*
X161839000Y-104428484I1672335J-1078608D01*
G01*
X159237870Y-106743837D02*
G75*
G03*
X161319961Y-106744000I1041130J1079837D01*
G01*
X159237870Y-104584163D02*
G75*
G02*
X161319961Y-104584000I1041130J-1079837D01*
G01*
%TO.C,C10*%
X212318000Y-59107563D02*
X211253563Y-60172000D01*
X207798000Y-55652000D02*
X207798000Y-56852000D01*
X207798000Y-60172000D02*
X207798000Y-58972000D01*
X212808000Y-59722000D02*
X212808000Y-59222000D01*
X212318000Y-59107563D02*
X212318000Y-58972000D01*
X211253563Y-60172000D02*
X207798000Y-60172000D01*
X213058000Y-59472000D02*
X212558000Y-59472000D01*
X211253563Y-55652000D02*
X207798000Y-55652000D01*
X212318000Y-56716437D02*
X212318000Y-56852000D01*
X212318000Y-56716437D02*
X211253563Y-55652000D01*
%TO.C,R15*%
X159968000Y-101087422D02*
X159968000Y-101604578D01*
X158548000Y-101087422D02*
X158548000Y-101604578D01*
%TO.C,J9*%
X167373333Y-63476000D02*
X167373333Y-67496000D01*
X167873333Y-66996000D02*
X167873333Y-65786000D01*
X177093333Y-65786000D02*
X177093333Y-66996000D01*
X177593333Y-65786000D02*
X177093333Y-65786000D01*
X177593333Y-63476000D02*
X167373333Y-63476000D01*
X177593333Y-67496000D02*
X177593333Y-63476000D01*
X167373333Y-64976000D02*
X168373333Y-64976000D01*
X177593333Y-64976000D02*
X176593333Y-64976000D01*
X167873333Y-65786000D02*
X167373333Y-65786000D01*
X176593333Y-64976000D02*
X176593333Y-63476000D01*
X177093333Y-66996000D02*
X167873333Y-66996000D01*
X167373333Y-67496000D02*
X177593333Y-67496000D01*
X177893333Y-65676000D02*
X177893333Y-63176000D01*
X177893333Y-63176000D02*
X175393333Y-63176000D01*
X168373333Y-64976000D02*
X168373333Y-63476000D01*
%TO.C,C1*%
X216405936Y-55478000D02*
X217610064Y-55478000D01*
X216405936Y-57298000D02*
X217610064Y-57298000D01*
%TO.C,U5*%
X198449000Y-73794000D02*
X178009000Y-73794000D01*
X198449000Y-79094000D02*
X198449000Y-73794000D01*
X178009000Y-79094000D02*
X198449000Y-79094000D01*
X178009000Y-77444000D02*
X178009000Y-79094000D01*
X178009000Y-73794000D02*
X178009000Y-75444000D01*
X178009000Y-75444000D02*
G75*
G02*
X178009000Y-77444000I0J-1000000D01*
G01*
%TO.C,R19*%
X139648000Y-101395422D02*
X139648000Y-101912578D01*
X138228000Y-101395422D02*
X138228000Y-101912578D01*
%TO.C,D15*%
X230442000Y-107991000D02*
X230598000Y-107991000D01*
X228126000Y-107991000D02*
X228282000Y-107991000D01*
X230440608Y-104758665D02*
G75*
G02*
X230597516Y-107991000I-1078608J-1672335D01*
G01*
X230441837Y-105389870D02*
G75*
G02*
X230442000Y-107471961I-1079837J-1041130D01*
G01*
X228282163Y-105389870D02*
G75*
G03*
X228282000Y-107471961I1079837J-1041130D01*
G01*
X228283392Y-104758665D02*
G75*
G03*
X228126484Y-107991000I1078608J-1672335D01*
G01*
%TO.C,D4*%
X136208000Y-58456000D02*
X136364000Y-58456000D01*
X133892000Y-58456000D02*
X134048000Y-58456000D01*
X136207837Y-55854870D02*
G75*
G02*
X136208000Y-57936961I-1079837J-1041130D01*
G01*
X136206608Y-55223665D02*
G75*
G02*
X136363516Y-58456000I-1078608J-1672335D01*
G01*
X134049392Y-55223665D02*
G75*
G03*
X133892484Y-58456000I1078608J-1672335D01*
G01*
X134048163Y-55854870D02*
G75*
G03*
X134048000Y-57936961I1079837J-1041130D01*
G01*
%TO.C,D8*%
X191326000Y-107737000D02*
X191482000Y-107737000D01*
X189010000Y-107737000D02*
X189166000Y-107737000D01*
X189166163Y-105135870D02*
G75*
G03*
X189166000Y-107217961I1079837J-1041130D01*
G01*
X189167392Y-104504665D02*
G75*
G03*
X189010484Y-107737000I1078608J-1672335D01*
G01*
X191324608Y-104504665D02*
G75*
G02*
X191481516Y-107737000I-1078608J-1672335D01*
G01*
X191325837Y-105135870D02*
G75*
G02*
X191326000Y-107217961I-1079837J-1041130D01*
G01*
%TO.C,R1*%
X218698578Y-44248000D02*
X218181422Y-44248000D01*
X218698578Y-45668000D02*
X218181422Y-45668000D01*
%TO.C,R4*%
X188218578Y-39676000D02*
X187701422Y-39676000D01*
X188218578Y-41096000D02*
X187701422Y-41096000D01*
%TO.C,D2*%
X223662000Y-41945000D02*
X229072000Y-41945000D01*
X223662000Y-39725000D02*
X223662000Y-41945000D01*
X229072000Y-39725000D02*
X223662000Y-39725000D01*
%TO.C,R28*%
X140134078Y-42238000D02*
X139616922Y-42238000D01*
X140134078Y-40818000D02*
X139616922Y-40818000D01*
%TO.C,R30*%
X140457422Y-62536000D02*
X140974578Y-62536000D01*
X140457422Y-63956000D02*
X140974578Y-63956000D01*
%TO.C,R13*%
X190702000Y-101595422D02*
X190702000Y-102112578D01*
X189282000Y-101595422D02*
X189282000Y-102112578D01*
%TO.C,J16*%
X212060000Y-95318000D02*
X212060000Y-99338000D01*
X211760000Y-97138000D02*
X211760000Y-99638000D01*
X212060000Y-97838000D02*
X213060000Y-97838000D01*
X222280000Y-97838000D02*
X221280000Y-97838000D01*
X221280000Y-97838000D02*
X221280000Y-99338000D01*
X211760000Y-99638000D02*
X214260000Y-99638000D01*
X222280000Y-95318000D02*
X212060000Y-95318000D01*
X221780000Y-97028000D02*
X222280000Y-97028000D01*
X212560000Y-97028000D02*
X212560000Y-95818000D01*
X222280000Y-99338000D02*
X222280000Y-95318000D01*
X221780000Y-95818000D02*
X221780000Y-97028000D01*
X213060000Y-97838000D02*
X213060000Y-99338000D01*
X212060000Y-97028000D02*
X212560000Y-97028000D01*
X212560000Y-95818000D02*
X221780000Y-95818000D01*
X212060000Y-99338000D02*
X222280000Y-99338000D01*
%TO.C,D16*%
X146876000Y-75733000D02*
X147032000Y-75733000D01*
X144560000Y-75733000D02*
X144716000Y-75733000D01*
X146875837Y-73131870D02*
G75*
G02*
X146876000Y-75213961I-1079837J-1041130D01*
G01*
X146874608Y-72500665D02*
G75*
G02*
X147031516Y-75733000I-1078608J-1672335D01*
G01*
X144716163Y-73131870D02*
G75*
G03*
X144716000Y-75213961I1079837J-1041130D01*
G01*
X144717392Y-72500665D02*
G75*
G03*
X144560484Y-75733000I1078608J-1672335D01*
G01*
%TO.C,J3*%
X206562000Y-75946000D02*
X206562000Y-77276000D01*
X203902000Y-74676000D02*
X203902000Y-72076000D01*
X206562000Y-74676000D02*
X206562000Y-72076000D01*
X206562000Y-77276000D02*
X205232000Y-77276000D01*
X206562000Y-72076000D02*
X203902000Y-72076000D01*
X206562000Y-74676000D02*
X203902000Y-74676000D01*
%TO.C,C2*%
X190340064Y-61616000D02*
X189135936Y-61616000D01*
X190340064Y-59796000D02*
X189135936Y-59796000D01*
%TO.C,U6*%
X224462000Y-61926000D02*
X224462000Y-62156000D01*
X221742000Y-63236000D02*
X221742000Y-61926000D01*
X224462000Y-66646000D02*
X224462000Y-66416000D01*
X225602000Y-66416000D02*
X224462000Y-66416000D01*
X221742000Y-61926000D02*
X224462000Y-61926000D01*
X224462000Y-66646000D02*
X221742000Y-66646000D01*
X221742000Y-66646000D02*
X221742000Y-65336000D01*
%TO.C,J22*%
X175574000Y-38550000D02*
X176784000Y-38550000D01*
X176784000Y-45270000D02*
X175574000Y-45270000D01*
X179394000Y-46070000D02*
X179394000Y-43570000D01*
X175574000Y-45270000D02*
X175574000Y-38550000D01*
X176894000Y-46070000D02*
X179394000Y-46070000D01*
X175074000Y-45770000D02*
X179094000Y-45770000D01*
X177594000Y-39050000D02*
X179094000Y-39050000D01*
X177594000Y-38050000D02*
X177594000Y-39050000D01*
X177594000Y-45770000D02*
X177594000Y-44770000D01*
X177594000Y-44770000D02*
X179094000Y-44770000D01*
X176784000Y-45770000D02*
X176784000Y-45270000D01*
X175074000Y-38050000D02*
X175074000Y-45770000D01*
X176784000Y-38550000D02*
X176784000Y-38050000D01*
X179094000Y-45770000D02*
X179094000Y-38050000D01*
X179094000Y-38050000D02*
X175074000Y-38050000D01*
%TO.C,U4*%
X173886000Y-75464000D02*
X173886000Y-73814000D01*
X153446000Y-73814000D02*
X153446000Y-79114000D01*
X173886000Y-79114000D02*
X173886000Y-77464000D01*
X173886000Y-73814000D02*
X153446000Y-73814000D01*
X153446000Y-79114000D02*
X173886000Y-79114000D01*
X173886000Y-77464000D02*
G75*
G02*
X173886000Y-75464000I0J1000000D01*
G01*
%TO.C,J13*%
X167824000Y-95734000D02*
X167824000Y-99754000D01*
X178044000Y-95734000D02*
X167824000Y-95734000D01*
X167824000Y-97444000D02*
X168324000Y-97444000D01*
X178044000Y-98254000D02*
X177044000Y-98254000D01*
X177544000Y-96234000D02*
X177544000Y-97444000D01*
X167824000Y-98254000D02*
X168824000Y-98254000D01*
X168324000Y-96234000D02*
X177544000Y-96234000D01*
X178044000Y-99754000D02*
X178044000Y-95734000D01*
X168824000Y-98254000D02*
X168824000Y-99754000D01*
X167824000Y-99754000D02*
X178044000Y-99754000D01*
X168324000Y-97444000D02*
X168324000Y-96234000D01*
X167524000Y-100054000D02*
X170024000Y-100054000D01*
X177044000Y-98254000D02*
X177044000Y-99754000D01*
X167524000Y-97554000D02*
X167524000Y-100054000D01*
X177544000Y-97444000D02*
X178044000Y-97444000D01*
%TO.C,R23*%
X169470000Y-101849422D02*
X169470000Y-102366578D01*
X170890000Y-101849422D02*
X170890000Y-102366578D01*
%TO.C,D11*%
X147361000Y-79184000D02*
X147361000Y-79028000D01*
X147361000Y-81500000D02*
X147361000Y-81344000D01*
X144128665Y-79185392D02*
G75*
G02*
X147361000Y-79028484I1672335J-1078608D01*
G01*
X144759870Y-79184163D02*
G75*
G02*
X146841961Y-79184000I1041130J-1079837D01*
G01*
X144128665Y-81342608D02*
G75*
G03*
X147361000Y-81499516I1672335J1078608D01*
G01*
X144759870Y-81343837D02*
G75*
G03*
X146841961Y-81344000I1041130J1079837D01*
G01*
%TO.C,U1*%
X187284000Y-51192000D02*
X187284000Y-48742000D01*
X184064000Y-49392000D02*
X184064000Y-51192000D01*
%TD*%
M02*
