%TF.GenerationSoftware,KiCad,Pcbnew,(5.99.0-11498-g1a301d8eea)*%
%TF.CreationDate,2021-09-08T01:14:58+03:00*%
%TF.ProjectId,f,662e6b69-6361-4645-9f70-636258585858,rev?*%
%TF.SameCoordinates,Original*%
%TF.FileFunction,Copper,L2,Bot*%
%TF.FilePolarity,Positive*%
%FSLAX46Y46*%
G04 Gerber Fmt 4.6, Leading zero omitted, Abs format (unit mm)*
G04 Created by KiCad (PCBNEW (5.99.0-11498-g1a301d8eea)) date 2021-09-08 01:14:58*
%MOMM*%
%LPD*%
G01*
G04 APERTURE LIST*
%TA.AperFunction,ComponentPad*%
%ADD10C,3.000000*%
%TD*%
%TA.AperFunction,ComponentPad*%
%ADD11R,3.000000X3.000000*%
%TD*%
%TA.AperFunction,ComponentPad*%
%ADD12R,1.800000X1.800000*%
%TD*%
%TA.AperFunction,ComponentPad*%
%ADD13C,1.800000*%
%TD*%
%TA.AperFunction,ComponentPad*%
%ADD14R,1.500000X1.500000*%
%TD*%
%TA.AperFunction,ComponentPad*%
%ADD15O,1.500000X1.500000*%
%TD*%
%TA.AperFunction,ComponentPad*%
%ADD16C,2.000000*%
%TD*%
%TA.AperFunction,ViaPad*%
%ADD17C,0.800000*%
%TD*%
%TA.AperFunction,Conductor*%
%ADD18C,0.480000*%
%TD*%
%TA.AperFunction,Conductor*%
%ADD19C,0.580000*%
%TD*%
%TA.AperFunction,Conductor*%
%ADD20C,0.250000*%
%TD*%
G04 APERTURE END LIST*
D10*
%TO.P,BT1,2,-*%
%TO.N,BAT-*%
X120946859Y-105768725D03*
D11*
%TO.P,BT1,1,+*%
%TO.N,BOOST*%
X100456859Y-105768725D03*
%TD*%
D12*
%TO.P,D4,1,K*%
%TO.N,BAT-*%
X69596000Y-48006000D03*
D13*
%TO.P,D4,2,A*%
%TO.N,Net-(D4-Pad2)*%
X67056000Y-48006000D03*
%TD*%
D14*
%TO.P,D3,1,K*%
%TO.N,5OT*%
X93218000Y-107696000D03*
D15*
%TO.P,D3,2,A*%
%TO.N,Net-(D3-Pad2)*%
X93218000Y-100076000D03*
%TD*%
D16*
%TO.P,L1,1*%
%TO.N,Net-(D3-Pad2)*%
X100584000Y-96012000D03*
%TO.P,L1,2*%
%TO.N,BOOST*%
X100584000Y-100012000D03*
%TD*%
D17*
%TO.N,BAT-*%
X87630000Y-101854000D03*
X84582000Y-72644000D03*
%TO.N,Net-(C1-Pad1)*%
X138938000Y-102870000D03*
X133350000Y-102616000D03*
%TO.N,Net-(D3-Pad2)*%
X108458000Y-92202000D03*
X114300000Y-93218000D03*
%TO.N,5OT*%
X105918000Y-107188000D03*
X113030000Y-94234000D03*
%TO.N,BAT-*%
X115062000Y-101092000D03*
X121666000Y-102616000D03*
%TO.N,BOOST*%
X129286000Y-98044000D03*
X141224000Y-97282000D03*
%TO.N,5OT*%
X120142000Y-95758000D03*
X116332000Y-95758000D03*
%TD*%
D18*
%TO.N,5OT*%
X105918000Y-100584000D02*
X105918000Y-107188000D01*
X112268000Y-94234000D02*
X105918000Y-100584000D01*
X113030000Y-94234000D02*
X112268000Y-94234000D01*
D19*
%TO.N,BAT-*%
X78994000Y-99822000D02*
X81026000Y-101854000D01*
X81026000Y-101854000D02*
X87630000Y-101854000D01*
X84582000Y-72644000D02*
X78994000Y-72644000D01*
X78994000Y-72644000D02*
X78994000Y-99822000D01*
D20*
%TO.N,Net-(C1-Pad1)*%
X138684000Y-102616000D02*
X138938000Y-102870000D01*
X133350000Y-102616000D02*
X138684000Y-102616000D01*
D18*
%TO.N,Net-(D3-Pad2)*%
X109474000Y-93218000D02*
X114300000Y-93218000D01*
X108458000Y-92202000D02*
X109474000Y-93218000D01*
%TO.N,BAT-*%
X116586000Y-102616000D02*
X121666000Y-102616000D01*
X115062000Y-101092000D02*
X116586000Y-102616000D01*
%TO.N,BOOST*%
X140462000Y-98044000D02*
X129286000Y-98044000D01*
X141224000Y-97282000D02*
X140462000Y-98044000D01*
%TO.N,5OT*%
X116332000Y-95758000D02*
X120142000Y-95758000D01*
%TD*%
M02*
