%TF.GenerationSoftware,KiCad,Pcbnew,(5.99.0-11498-g1a301d8eea)*%
%TF.CreationDate,2021-09-08T01:14:58+03:00*%
%TF.ProjectId,f,662e6b69-6361-4645-9f70-636258585858,rev?*%
%TF.SameCoordinates,Original*%
%TF.FileFunction,Profile,NP*%
%FSLAX46Y46*%
G04 Gerber Fmt 4.6, Leading zero omitted, Abs format (unit mm)*
G04 Created by KiCad (PCBNEW (5.99.0-11498-g1a301d8eea)) date 2021-09-08 01:14:58*
%MOMM*%
%LPD*%
G01*
G04 APERTURE LIST*
%TA.AperFunction,Profile*%
%ADD10C,0.100000*%
%TD*%
G04 APERTURE END LIST*
D10*
X61962938Y-72494726D02*
G75*
G03*
X66548000Y-73256725I2830923J2858585D01*
G01*
X79248000Y-104902000D02*
G75*
G03*
X122682000Y-125476000I29340161J5806340D01*
G01*
X122160939Y-180952725D02*
G75*
G03*
X123938939Y-184254725I256920J-1991351D01*
G01*
X122682000Y-125476000D02*
X125476000Y-128270000D01*
X66026939Y-56238725D02*
X66788939Y-56238725D01*
X118110001Y-164845999D02*
G75*
G02*
X123190000Y-158421559I4250077J1860010D01*
G01*
X148322939Y-119738725D02*
X147814939Y-118468725D01*
X94742001Y-48260000D02*
G75*
G02*
X93472000Y-53848000I-5809002J-1618090D01*
G01*
X81774939Y-56238725D02*
G75*
G02*
X66788939Y-56238725I-7493000J20239539D01*
G01*
X133844939Y-122024725D02*
G75*
G03*
X144512939Y-117706725I2637333J8821353D01*
G01*
X54342938Y-46735999D02*
G75*
G02*
X94742000Y-48260000I19585641J-17035338D01*
G01*
X131050939Y-179936725D02*
G75*
G02*
X130288939Y-181460725I-1892071J-6464D01*
G01*
X118110000Y-164846000D02*
X118110000Y-166116000D01*
X124968000Y-157734000D02*
X125476000Y-157480000D01*
X132080000Y-162306000D02*
X131064000Y-162560000D01*
X146036939Y-146154725D02*
G75*
G03*
X145528939Y-147932725I7254682J-3034338D01*
G01*
X54342938Y-46735999D02*
G75*
G03*
X61962939Y-72494725I18186056J-8626608D01*
G01*
X125476000Y-157480000D02*
X125476000Y-128270000D01*
X144512939Y-117706725D02*
X146798939Y-119484725D01*
X81774939Y-56238725D02*
G75*
G03*
X77724000Y-101346000I49290001J-27162114D01*
G01*
X124968000Y-163576000D02*
X124968000Y-178562000D01*
X149338939Y-116690725D02*
G75*
G03*
X87870939Y-99164725I-32643237J2066837D01*
G01*
X123938939Y-184254725D02*
X127240939Y-182730725D01*
X131064000Y-162560000D02*
X131050939Y-179936725D01*
X121411999Y-165862000D02*
G75*
G02*
X122682000Y-164338000I1272156J231037D01*
G01*
X152386939Y-142852725D02*
X133844939Y-122024725D01*
X148322939Y-119738725D02*
G75*
G02*
X147306939Y-120500725I-508003J-380996D01*
G01*
X146798939Y-119484725D02*
X147306939Y-120500725D01*
X131050939Y-128628725D02*
X146036939Y-146154725D01*
X120650000Y-166370000D02*
X121412000Y-165862000D01*
X121919999Y-163322001D02*
G75*
G02*
X121919999Y-163322001I-1015999J-1015999D01*
G01*
X124968000Y-178562000D02*
X122160939Y-180952725D01*
X131064000Y-156718000D02*
X131050939Y-128628725D01*
X145528939Y-147932725D02*
X131304939Y-156568725D01*
X124968000Y-163576000D02*
X122682000Y-164338000D01*
X119380000Y-166370000D02*
X120650000Y-166370000D01*
X79248000Y-104902000D02*
X77724000Y-101346000D01*
X132080000Y-162306000D02*
X155434939Y-151742725D01*
X66026939Y-56238725D02*
G75*
G03*
X66280939Y-68684725I5309021J-6117244D01*
G01*
X150100939Y-118214725D02*
G75*
G02*
X149084939Y-119230725I-415975J-600025D01*
G01*
X123190000Y-158421559D02*
X124968000Y-157734000D01*
X131304939Y-156568725D02*
X131064000Y-156718000D01*
X66548000Y-73256725D02*
G75*
G03*
X66280939Y-68684725I-77029491J-2205669D01*
G01*
X84822939Y-99418725D02*
G75*
G02*
X93472000Y-53848000I67889989J10721005D01*
G01*
X87870939Y-99164724D02*
G75*
G02*
X84822939Y-99418725I-1747444J2554317D01*
G01*
X127240939Y-182730725D02*
X130288939Y-181460725D01*
X150100939Y-118214725D02*
X149338939Y-116690725D01*
X147814939Y-118468725D02*
X149084939Y-119230725D01*
X118110000Y-166116000D02*
X119380000Y-166370000D01*
X152386939Y-142852725D02*
G75*
G02*
X155434939Y-151742725I-4767854J-6602207D01*
G01*
M02*
